<svg aria-hidden="true" style="position: absolute; width: 0; height: 0; overflow: hidden;" version="1.1" xmlns="http://www.w3.org/2000/svg" xmlns:xlink="http://www.w3.org/1999/xlink">
<defs>
<symbol id="icon-activity" viewBox="0 0 32 32">
<path d="M12 4c0.43 0 0.797 0.272 0.938 0.653l0.002 0.007 7.060 19.412 3.060-8.416c0.144-0.386 0.51-0.656 0.939-0.656 0 0 0.001 0 0.001 0h7c0.552 0 1 0.448 1 1s-0.448 1-1 1v0h-6.3l-3.76 10.34c-0.144 0.388-0.51 0.659-0.94 0.659s-0.796-0.271-0.938-0.652l-0.002-0.007-7.060-19.412-3.060 8.414c-0.144 0.387-0.51 0.658-0.94 0.658-0 0-0 0-0 0h-7c-0.552 0-1-0.448-1-1s0.448-1 1-1v0h6.3l3.76-10.34c0.143-0.388 0.51-0.66 0.94-0.66h0z"></path>
</symbol>
<symbol id="icon-arrow-counterclockwise" viewBox="0 0 32 32">
<path d="M16 6c5.521 0.002 9.996 4.479 9.996 10 0 5.523-4.477 10-10 10s-10-4.477-10-10c0-1.513 0.336-2.948 0.938-4.233l-0.026 0.061c0.047-0.112 0.075-0.243 0.075-0.38 0-0.552-0.448-1-1-1-0.387 0-0.722 0.219-0.888 0.541l-0.003 0.006c-0.691 1.469-1.094 3.19-1.094 5.006 0 6.627 5.373 12 12 12s12-5.373 12-12c0-6.627-5.371-11.999-11.998-12h-0v2z"></path>
<path d="M16 8.932v-7.864c-0-0.276-0.224-0.5-0.5-0.5-0.122 0-0.234 0.044-0.321 0.116l0.001-0.001-4.72 3.932c-0.11 0.092-0.18 0.23-0.18 0.384s0.070 0.292 0.179 0.383l0.001 0.001 4.72 3.932c0.086 0.072 0.198 0.116 0.32 0.116 0.276 0 0.5-0.224 0.5-0.5v0z"></path>
</symbol>
<symbol id="icon-arrow-down-short" viewBox="0 0 32 32">
<path d="M16 8c0.552 0 1 0.448 1 1v0 11.586l4.292-4.294c0.181-0.181 0.431-0.293 0.708-0.293 0.553 0 1.001 0.448 1.001 1.001 0 0.276-0.112 0.527-0.293 0.708v0l-6 6c-0.181 0.181-0.431 0.294-0.708 0.294s-0.527-0.112-0.708-0.294l-6-6c-0.181-0.181-0.293-0.431-0.293-0.708 0-0.553 0.448-1.001 1.001-1.001 0.277 0 0.527 0.112 0.708 0.293v0l4.292 4.294v-11.586c0-0.552 0.448-1 1-1v0z"></path>
</symbol>
<symbol id="icon-arrow-left-short" viewBox="0 0 32 32">
<path d="M24 16c0 0.552-0.448 1-1 1v0h-11.586l4.294 4.292c0.181 0.181 0.293 0.431 0.293 0.708 0 0.553-0.448 1.001-1.001 1.001-0.277 0-0.527-0.112-0.708-0.293v0l-6-6c-0.181-0.181-0.294-0.431-0.294-0.708s0.112-0.527 0.294-0.708l6-6c0.181-0.181 0.431-0.293 0.708-0.293 0.553 0 1.001 0.448 1.001 1.001 0 0.277-0.112 0.527-0.293 0.708v0l-4.294 4.292h11.586c0.552 0 1 0.448 1 1v0z"></path>
</symbol>
<symbol id="icon-arrow-right-short" viewBox="0 0 32 32">
<path d="M8 16c0-0.552 0.448-1 1-1v0h11.586l-4.294-4.292c-0.181-0.181-0.293-0.431-0.293-0.708 0-0.553 0.448-1.001 1.001-1.001 0.276 0 0.527 0.112 0.708 0.293v0l6 6c0.181 0.181 0.294 0.431 0.294 0.708s-0.112 0.527-0.294 0.708l-6 6c-0.181 0.181-0.431 0.293-0.708 0.293-0.553 0-1.001-0.448-1.001-1.001 0-0.276 0.112-0.527 0.293-0.708v0l4.294-4.292h-11.586c-0.552 0-1-0.448-1-1v0z"></path>
</symbol>
<symbol id="icon-arrow-through-heart-fill" viewBox="0 0 32 32">
<path d="M5.708 31.708c-0.181 0.181-0.431 0.294-0.708 0.294-0.552 0-1-0.448-1-1 0-0.001 0-0.001 0-0.002v0-3h-3c-0.001 0-0.001 0-0.002 0-0.552 0-1-0.448-1-1 0-0.277 0.112-0.527 0.294-0.708l3-3c0.181-0.18 0.43-0.292 0.706-0.292 0.001 0 0.001 0 0.002 0h3.586l6.206-6.208c0.181-0.181 0.431-0.293 0.708-0.293 0.553 0 1.001 0.448 1.001 1.001 0 0.276-0.112 0.527-0.293 0.708v0l-6.208 6.206v3.586c0 0.001 0 0.001 0 0.002 0 0.276-0.112 0.525-0.292 0.706l-3 3zM32 7c0 0.001 0 0.001 0 0.002 0 0.552-0.448 1-1 1-0.277 0-0.527-0.112-0.708-0.294l-2.292-2.294-2.012 2.012c0.472 0.496 0.88 1.062 1.2 1.69 1.124 2.192 1.17 5.034-0.426 8.184-1.586 3.126-4.79 6.576-10.21 10.16l-0.552 0.364-0.552-0.364c-1.475-0.973-2.729-1.899-3.934-2.882l0.086 0.068 5.020-5.026c0.543-0.543 0.879-1.293 0.879-2.122 0-1.657-1.344-3.001-3.001-3.001-0.829 0-1.579 0.336-2.122 0.879l-5.062 5.064c-0.764-0.917-1.454-1.946-2.032-3.043l-0.046-0.097c-1.596-3.152-1.55-5.994-0.426-8.186 2.042-3.984 7.55-5.496 11.19-2.648 2.5-1.96 5.888-1.856 8.424-0.304l2.16-2.162-2.29-2.292c-0.181-0.181-0.294-0.431-0.294-0.708 0-0.552 0.448-1 1-1h6c0.552 0 1 0.448 1 1v0 6z"></path>
</symbol>
<symbol id="icon-arrow-up-short" viewBox="0 0 32 32">
<path d="M16 24c0.552 0 1-0.448 1-1v0-11.586l4.292 4.294c0.181 0.181 0.431 0.293 0.708 0.293 0.553 0 1.001-0.448 1.001-1.001 0-0.277-0.112-0.527-0.293-0.708v0l-6-6c-0.181-0.181-0.431-0.294-0.708-0.294s-0.527 0.112-0.708 0.294l-6 6c-0.181 0.181-0.293 0.431-0.293 0.708 0 0.553 0.448 1.001 1.001 1.001 0.277 0 0.527-0.112 0.708-0.293v0l4.292-4.294v11.586c0 0.552 0.448 1 1 1v0z"></path>
</symbol>
<symbol id="icon-black-cat" viewBox="0 0 32 32">
<path d="M4.898 11.327s-1.133-1.133 0-3.398c0 0 1.699 0.566 1.699 2.265h3.398c0.566-1.699 2.265-2.265 2.265-2.265 1.133 2.265-0.566 3.398-0.566 3.398l1.133 0.566 0.566-1.133 1.133-1.699v1.133s0.566-2.265 2.832-2.265v0.566s0.566-1.133 2.265-1.133l-0.566 0.566 2.265-0.566-0.566 0.566h1.699l-0.566 0.566 1.699 0.566h-0.566l1.133 2.265h-0.566l0.566 1.699h-0.566l0.566 1.133s1.133-0.566 0.566-1.699v-1.699l0.566 0.566-0.566-1.133v-1.133l0.566 0.566v-2.265l0.566 0.566v-2.832l0.566 0.566 0.566-2.265v0.566l1.133-2.265v0.566l1.699-2.265 0.566 1.699s0.566 1.699-0.566 2.832l0.566-0.566-0.566 2.266 0.566-0.566s0 1.699-1.133 2.832l1.133-0.566s0 1.699-1.133 2.832l0.566-0.566-1.699 2.832 1.133-0.566-1.699 2.265h0.566l-2.265 2.265h0.566l-1.133 0.566s0 1.699-2.832 3.965v1.133s1.133 0.566 0 1.699l-3.398 4.531-0.566 2.832h-2.265l1.133-1.133 0.566-2.832 1.699-2.265v-1.133h-0.566l-0.566-1.699-0.566 0.566 0.566-1.699-0.566 0.566v-1.133h-0.566l0.566-1.133c0-0.566 1.133-2.265 0-2.832s-2.265 1.133-2.832 2.832l-1.133 4.531v7.363h-2.265l0.566-1.699 0.566-2.265c0-1.699 0-2.832-1.133-3.965s-1.699-3.965-1.699-6.23l-1.699 0.566-2.265-1.133h-2.265l1.699-0.566h-2.832l1.699-0.566-2.832-0.566h2.832l-0.566-1.699 1.133-2.265z"></path>
</symbol>
<symbol id="icon-camera-fill" viewBox="0 0 32 32">
<path d="M21 17c0 2.761-2.239 5-5 5s-5-2.239-5-5v0c0-2.761 2.239-5 5-5s5 2.239 5 5v0z"></path>
<path d="M4 8c-2.209 0-4 1.791-4 4v0 12c0 2.209 1.791 4 4 4v0h24c2.209 0 4-1.791 4-4v0-12c0-2.209-1.791-4-4-4v0h-2.344c-1.104-0-2.104-0.448-2.828-1.172l-1.656-1.656c-0.724-0.724-1.724-1.172-2.828-1.172h-4.688c-1.104 0-2.104 0.448-2.828 1.172l-1.656 1.656c-0.724 0.724-1.724 1.172-2.828 1.172h-2.344zM5 12c-0.552 0-1-0.448-1-1s0.448-1 1-1v0c0.552 0 1 0.448 1 1s-0.448 1-1 1v0zM23 17c0 3.866-3.134 7-7 7s-7-3.134-7-7v0c0-3.866 3.134-7 7-7s7 3.134 7 7v0z"></path>
</symbol>
<symbol id="icon-camera2" viewBox="0 0 32 32">
<path d="M10 16c0-3.314 4.686-6 8-6v-2c-4.418 0-8 3.582-8 8v0z"></path>
<path d="M24.636 6h4.030c1.84 0 3.334 1.492 3.334 3.334v13.332c0 1.84-1.492 3.334-3.334 3.334h-4.030c-1.859 1.253-4.15 2-6.615 2-0.007 0-0.015 0-0.022-0h0.001c-0.006 0-0.013 0-0.020 0-2.466 0-4.757-0.747-6.659-2.027l0.043 0.027h-8.030c-1.84 0-3.334-1.492-3.334-3.334v-13.332c0-1.84 1.492-3.334 3.334-3.334h0.666c0-1.105 0.895-2 2-2v0h2c1.105 0 2 0.895 2 2v0h1.364c1.859-1.253 4.15-2 6.615-2 0.007 0 0.015 0 0.022 0h-0.001c2.454 0 4.734 0.736 6.636 2zM4 9c0-0.552-0.448-1-1-1s-1 0.448-1 1v0c0 0.552 0.448 1 1 1s1-0.448 1-1v0zM28 16c0-5.523-4.477-10-10-10s-10 4.477-10 10v0c0 5.523 4.477 10 10 10s10-4.477 10-10v0z"></path>
</symbol>
<symbol id="icon-check" viewBox="0 0 32 32">
<path d="M21.94 9.94c0.269-0.256 0.633-0.414 1.034-0.414 0.828 0 1.5 0.672 1.5 1.5 0 0.391-0.15 0.748-0.395 1.015l0.001-0.001-7.98 9.98c-0.275 0.295-0.665 0.479-1.099 0.479-0.414 0-0.789-0.168-1.061-0.439l-5.292-5.292c-0.294-0.275-0.477-0.665-0.477-1.097 0-0.828 0.672-1.5 1.5-1.5 0.433 0 0.823 0.183 1.097 0.477l0.001 0.001 4.188 4.186 6.946-8.85c0.013-0.016 0.026-0.030 0.040-0.044l0-0z"></path>
</symbol>
<symbol id="icon-chevron-double-left" viewBox="0 0 32 32">
<path d="M16.708 3.292c0.181 0.181 0.294 0.431 0.294 0.708s-0.112 0.527-0.294 0.708l-11.294 11.292 11.294 11.292c0.181 0.181 0.293 0.431 0.293 0.708 0 0.553-0.448 1.001-1.001 1.001-0.277 0-0.527-0.112-0.708-0.293v0l-12-12c-0.181-0.181-0.294-0.431-0.294-0.708s0.112-0.527 0.294-0.708l12-12c0.181-0.181 0.431-0.294 0.708-0.294s0.527 0.112 0.708 0.294l0 0z"></path>
<path d="M24.708 3.292c0.181 0.181 0.294 0.431 0.294 0.708s-0.112 0.527-0.294 0.708l-11.294 11.292 11.294 11.292c0.181 0.181 0.293 0.431 0.293 0.708 0 0.553-0.448 1.001-1.001 1.001-0.276 0-0.527-0.112-0.708-0.293v0l-12-12c-0.181-0.181-0.294-0.431-0.294-0.708s0.112-0.527 0.294-0.708l12-12c0.181-0.181 0.431-0.294 0.708-0.294s0.527 0.112 0.708 0.294l0 0z"></path>
</symbol>
<symbol id="icon-chevron-double-right" viewBox="0 0 32 32">
<path d="M7.292 3.292c0.181-0.181 0.431-0.294 0.708-0.294s0.527 0.112 0.708 0.294l12 12c0.181 0.181 0.294 0.431 0.294 0.708s-0.112 0.527-0.294 0.708l-12 12c-0.181 0.181-0.431 0.293-0.708 0.293-0.553 0-1.001-0.448-1.001-1.001 0-0.276 0.112-0.527 0.293-0.708v0l11.294-11.292-11.294-11.292c-0.181-0.181-0.294-0.431-0.294-0.708s0.112-0.527 0.294-0.708l0-0z"></path>
<path d="M15.292 3.292c0.181-0.181 0.431-0.294 0.708-0.294s0.527 0.112 0.708 0.294l12 12c0.181 0.181 0.294 0.431 0.294 0.708s-0.112 0.527-0.294 0.708l-12 12c-0.181 0.181-0.431 0.293-0.708 0.293-0.553 0-1.001-0.448-1.001-1.001 0-0.276 0.112-0.527 0.293-0.708v0l11.294-11.292-11.294-11.292c-0.181-0.181-0.294-0.431-0.294-0.708s0.112-0.527 0.294-0.708l0-0z"></path>
</symbol>
<symbol id="icon-chevron-left" viewBox="0 0 32 32">
<path d="M22.708 3.292c0.181 0.181 0.294 0.431 0.294 0.708s-0.112 0.527-0.294 0.708l-11.294 11.292 11.294 11.292c0.181 0.181 0.293 0.431 0.293 0.708 0 0.553-0.448 1.001-1.001 1.001-0.276 0-0.527-0.112-0.708-0.293v0l-12-12c-0.181-0.181-0.294-0.431-0.294-0.708s0.112-0.527 0.294-0.708l12-12c0.181-0.181 0.431-0.294 0.708-0.294s0.527 0.112 0.708 0.294l0 0z"></path>
</symbol>
<symbol id="icon-chevron-right" viewBox="0 0 32 32">
<path d="M9.292 3.292c0.181-0.181 0.431-0.294 0.708-0.294s0.527 0.112 0.708 0.294l12 12c0.181 0.181 0.294 0.431 0.294 0.708s-0.112 0.527-0.294 0.708l-12 12c-0.181 0.181-0.431 0.293-0.708 0.293-0.553 0-1.001-0.448-1.001-1.001 0-0.276 0.112-0.527 0.293-0.708v0l11.294-11.292-11.294-11.292c-0.181-0.181-0.294-0.431-0.294-0.708s0.112-0.527 0.294-0.708l0-0z"></path>
</symbol>
<symbol id="icon-circle" viewBox="0 0 32 32">
<path d="M16 30c-7.732 0-14-6.268-14-14s6.268-14 14-14v0c7.732 0 14 6.268 14 14s-6.268 14-14 14v0zM16 32c8.837 0 16-7.163 16-16s-7.163-16-16-16v0c-8.837 0-16 7.163-16 16s7.163 16 16 16v0z"></path>
</symbol>
<symbol id="icon-clipboard2-plus" viewBox="0 0 32 32">
<path d="M19 0c0.552 0 1 0.448 1 1v0c0 0.552 0.448 1 1 1v0c0.552 0 1 0.448 1 1v0 1c0 0.552-0.448 1-1 1v0h-10c-0.552 0-1-0.448-1-1v0-1c0-0.552 0.448-1 1-1v0c0.552 0 1-0.448 1-1v0c0-0.552 0.448-1 1-1v0h6z"></path>
<path d="M6 5c0-0.552 0.448-1 1-1v0h1c0.552 0 1-0.448 1-1s-0.448-1-1-1v0h-1c-1.657 0-3 1.343-3 3v0 24c0 1.657 1.343 3 3 3v0h18c1.657 0 3-1.343 3-3v0-24c0-1.657-1.343-3-3-3v0h-1c-0.552 0-1 0.448-1 1s0.448 1 1 1v0h1c0.552 0 1 0.448 1 1v0 24c0 0.552-0.448 1-1 1v0h-18c-0.552 0-1-0.448-1-1v0-24z"></path>
<path d="M17 13c0-0.552-0.448-1-1-1s-1 0.448-1 1v0 3h-3c-0.552 0-1 0.448-1 1s0.448 1 1 1v0h3v3c0 0.552 0.448 1 1 1s1-0.448 1-1v0-3h3c0.552 0 1-0.448 1-1s-0.448-1-1-1v0h-3v-3z"></path>
</symbol>
<symbol id="icon-cloud-sun-fill" viewBox="0 0 32 32">
<path d="M22.946 22c-0.517-4.525-4.324-8.007-8.945-8.007-3.905 0-7.23 2.488-8.475 5.965l-0.020 0.063c-3.096 0.261-5.511 2.839-5.511 5.98 0 3.314 2.686 6 6 6 0.002 0 0.003 0 0.005 0h17c2.761 0 5-2.239 5-5s-2.239-5-5-5v0h-0.054z"></path>
<path d="M21 3c0-0.552-0.448-1-1-1s-1 0.448-1 1v0 2c0 0.552 0.448 1 1 1s1-0.448 1-1v0-2zM28.486 6.928c0.188-0.182 0.305-0.437 0.305-0.719 0-0.552-0.448-1-1-1-0.282 0-0.537 0.117-0.719 0.305l-0 0-1.416 1.414c-0.181 0.181-0.293 0.431-0.293 0.708 0 0.553 0.448 1.001 1.001 1.001 0.276 0 0.527-0.112 0.708-0.293v0l1.414-1.416zM12.928 5.514c-0.18-0.174-0.425-0.281-0.695-0.281-0.552 0-1 0.448-1 1 0 0.27 0.107 0.515 0.281 0.695l-0-0 1.414 1.416c0.181 0.181 0.431 0.293 0.708 0.293 0.553 0 1.001-0.448 1.001-1.001 0-0.277-0.112-0.527-0.293-0.708v0l-1.416-1.414zM16.396 12.262c0.662-1.349 2.026-2.262 3.602-2.262 2.209 0 4 1.791 4 4 0 1.022-0.383 1.954-1.014 2.662l0.003-0.004c0.398 0.562 0.744 1.164 1.032 1.796 1.217-1.102 1.978-2.688 1.978-4.452 0-3.314-2.686-6-6-6-2.598 0-4.81 1.651-5.644 3.96l-0.013 0.042c0.704 0.022 1.392 0.11 2.056 0.258zM25.364 20.41c1.2 0.43 2.25 1.18 3.044 2.144 0.227-0.185 0.371-0.464 0.371-0.777 0-0.276-0.112-0.526-0.293-0.707l-1.414-1.414c-0.181-0.182-0.432-0.295-0.709-0.295-0.552 0-1 0.448-1 1 0 0.017 0 0.034 0.001 0.051l-0-0.002zM29 13c-0.552 0-1 0.448-1 1s0.448 1 1 1v0h2c0.552 0 1-0.448 1-1s-0.448-1-1-1v0h-2z"></path>
</symbol>
<symbol id="icon-compass" viewBox="0 0 32 32">
<path d="M13.655 0.087c-0.566 0.246-0.717 0.67-0.717 2.011l-0 1.004-0.343 0.108c-2.739 0.863-3.665 4.811-1.655 7.054l0.288 0.322-0.838 1.754c-8.355 17.481-8.598 17.998-8.623 18.347-0.061 0.867 0.694 1.463 1.631 1.287 0.554-0.104 0.323 0.338 5.435-10.381l4.709-9.875 1.365-0.033 2.031 4.222c1.29 2.681 2.1 4.293 2.219 4.416 0.577 0.599 1.661 0.454 2.041-0.274 0.323-0.619 0.369-0.49-1.802-4.988-1.070-2.217-1.994-4.134-2.054-4.26l-0.108-0.228 0.274-0.318c2.006-2.325 1.044-6.258-1.731-7.077l-0.276-0.082-0.001-1.064c-0.002-1.175-0.055-1.398-0.413-1.732-0.325-0.303-0.996-0.403-1.431-0.214zM15.043 5.695c1.403 0.668 1.304 2.757-0.157 3.308-1.827 0.69-3.331-1.568-1.974-2.965 0.576-0.593 1.348-0.717 2.132-0.343zM28.665 16.131c-0.372 0.088-0.559 0.257-1.123 1.013-3.77 5.055-9.807 7.464-16.105 6.425-1.019-0.168-1.475-0.011-1.797 0.619-0.404 0.79 0.069 1.644 1.019 1.84 4.182 0.862 9.028 0.116 12.802-1.97 2.671-1.477 5.717-4.278 6.648-6.115 0.49-0.965-0.385-2.064-1.444-1.812zM23.676 26.341c-0.61 0.157-0.955 0.602-0.948 1.222 0.005 0.491 1.564 3.774 1.966 4.139 0.82 0.746 2.181 0.089 2.102-1.014-0.025-0.345-1.37-3.293-1.77-3.88-0.286-0.419-0.82-0.604-1.349-0.467z"></path>
</symbol>
<symbol id="icon-crop" viewBox="0 0 32 32">
<path d="M7 1c0.552 0 1 0.448 1 1v0 26h26c0.552 0 1 0.448 1 1s-0.448 1-1 1v0h-4v4c0 0.552-0.448 1-1 1s-1-0.448-1-1v0-4h-21c-0.552 0-1-0.448-1-1v0-21h-4c-0.552 0-1-0.448-1-1s0.448-1 1-1v0h4v-4c0-0.552 0.448-1 1-1v0zM12 7c0-0.552 0.448-1 1-1v0h16c0.552 0 1 0.448 1 1v0 16c0 0.552-0.448 1-1 1s-1-0.448-1-1v0-15h-15c-0.552 0-1-0.448-1-1v0z"></path>
</symbol>
<symbol id="icon-cursor-fill" viewBox="0 0 32 32">
<path d="M28.164 4.364c0.181 0.181 0.293 0.431 0.293 0.707 0 0.147-0.032 0.287-0.089 0.413l0.003-0.006-11.314 25.456c-0.16 0.353-0.509 0.594-0.914 0.594-0.411 0-0.764-0.248-0.918-0.602l-0.002-0.006-4.082-9.532-9.534-4.084c-0.359-0.157-0.605-0.509-0.605-0.919 0-0.405 0.241-0.754 0.587-0.911l0.006-0.003 25.456-11.314c0.119-0.054 0.259-0.086 0.406-0.086 0.276 0 0.525 0.112 0.706 0.292l-0-0z"></path>
</symbol>
<symbol id="icon-dash" viewBox="0 0 32 32">
<path d="M8 16c0-0.552 0.448-1 1-1v0h14c0.552 0 1 0.448 1 1s-0.448 1-1 1v0h-14c-0.552 0-1-0.448-1-1v0z"></path>
</symbol>
<symbol id="icon-dice-5" viewBox="0 0 32 32">
<path d="M26 2c2.209 0 4 1.791 4 4v0 20c0 2.209-1.791 4-4 4v0h-20c-2.209 0-4-1.791-4-4v0-20c0-2.209 1.791-4 4-4v0zM6 0c-3.314 0-6 2.686-6 6v0 20c0 3.314 2.686 6 6 6v0h20c3.314 0 6-2.686 6-6v0-20c0-3.314-2.686-6-6-6v0z"></path>
<path d="M11 8c0 1.657-1.343 3-3 3s-3-1.343-3-3v0c0-1.657 1.343-3 3-3s3 1.343 3 3v0zM27 8c0 1.657-1.343 3-3 3s-3-1.343-3-3v0c0-1.657 1.343-3 3-3s3 1.343 3 3v0zM27 24c0 1.657-1.343 3-3 3s-3-1.343-3-3v0c0-1.657 1.343-3 3-3s3 1.343 3 3v0zM11 24c0 1.657-1.343 3-3 3s-3-1.343-3-3v0c0-1.657 1.343-3 3-3s3 1.343 3 3v0zM19 16c0 1.657-1.343 3-3 3s-3-1.343-3-3v0c0-1.657 1.343-3 3-3s3 1.343 3 3v0z"></path>
</symbol>
<symbol id="icon-dice-5-fill" viewBox="0 0 32 32">
<path d="M6 0c-3.314 0-6 2.686-6 6v0 20c0 3.314 2.686 6 6 6v0h20c3.314 0 6-2.686 6-6v0-20c0-3.314-2.686-6-6-6v0h-20zM11 8c0 1.657-1.343 3-3 3s-3-1.343-3-3v0c0-1.657 1.343-3 3-3s3 1.343 3 3v0zM27 8c0 1.657-1.343 3-3 3s-3-1.343-3-3v0c0-1.657 1.343-3 3-3s3 1.343 3 3v0zM24 27c-1.657 0-3-1.343-3-3s1.343-3 3-3v0c1.657 0 3 1.343 3 3s-1.343 3-3 3v0zM11 24c0 1.657-1.343 3-3 3s-3-1.343-3-3v0c0-1.657 1.343-3 3-3s3 1.343 3 3v0zM16 19c-1.657 0-3-1.343-3-3s1.343-3 3-3v0c1.657 0 3 1.343 3 3s-1.343 3-3 3v0z"></path>
</symbol>
<symbol id="icon-dnd" viewBox="0 0 32 32">
<path d="M3.622 7.285c-0.029-0.213-0.045-0.459-0.045-0.709 0-1.54 0.62-2.935 1.625-3.949l-0 0c1.187-1.199 2.834-1.941 4.653-1.941 0.258 0 0.512 0.015 0.762 0.044l-0.030-0.003c3.908 0.211 5.78 2.887 5.78 5.774-0.114 1.737-0.733 3.31-1.711 4.596l0.015-0.021-0.17-0.177c-0.191-0.191-0.415-0.388-0.681-0.599-0.693-0.583-1.301-1.229-1.83-1.937l-0.022-0.030c1.069-1.947 0.456-4.705-1.804-4.705-1.315 0.080-2.351 1.166-2.351 2.494 0 0.117 0.008 0.232 0.024 0.344l-0.001-0.013c-0.277 0.682-0.439 1.473-0.439 2.301 0 0.189 0.008 0.377 0.025 0.562l-0.002-0.024c-0.626-0.334-1.124-0.839-1.441-1.452l-0.009-0.019-0.831-1.988-0.681 2.043c-0.098 0.311-0.155 0.668-0.155 1.039 0 0.186 0.014 0.369 0.042 0.547l-0.003-0.020c-0.401-0.615-0.666-1.353-0.734-2.148l-0.001-0.017zM1.055 14.441c1.117-1.117 3.404-1.811 3.547-2.417s-1.028-1.614-1.471-1.804c0.165-0.014 0.356-0.022 0.55-0.022 0.67 0 1.317 0.095 1.93 0.272l-0.049-0.012c-0.274-0.432-0.437-0.959-0.437-1.523 0-0.289 0.043-0.569 0.122-0.832l-0.005 0.020c0.885 2.124 4.044 2.465 4.827 4.221-0.257-0.912-0.855-1.654-1.644-2.095l-0.017-0.009c-0.449-1.157-0.116-3.282 0.436-3.874-0.197 3.064 4.174 4.814 5.079 7.033-0.538-1.906-2.567-3.111-3.534-4.248-0.091-0.278-0.144-0.598-0.144-0.931 0-0.57 0.155-1.104 0.424-1.562l-0.008 0.014c-0.102 2.043 2.111 3.649 3.289 4.766 1.396 1.362 1.791 2.54 1.6 3.513 0.391 0.072 0.684 0.411 0.684 0.818 0 0.024-0.001 0.047-0.003 0.071l0-0.003c0.453-0.161 0.811-0.492 1.003-0.915l0.004-0.011c0.021 0.149 0.033 0.321 0.033 0.496 0 1.302-0.675 2.447-1.694 3.104l-0.015 0.009c0.048-0.137 0.076-0.294 0.076-0.458 0-0.311-0.1-0.599-0.269-0.833l0.003 0.004c-0.449-0.545-1.729-0.552-2.158-0.517 0 0 0.524-0.79 0.32-1.185-0.266-0.497-2.764-0.279-3.888 0.129 0.068-0.003 0.147-0.005 0.226-0.005 0.489 0 0.962 0.072 1.409 0.205l-0.035-0.009c-0.177 0.259-0.633 1.362-0.306 1.695s0.681-0.225 0.681-0.225-0.388 1.205-0.109 1.484 0.878 0.082 0.878 0.082c-0.374 0.946-1.825 1.593-2.846 1.593 0.484-0.24 0.856-0.643 1.050-1.136l0.005-0.014c-0.299 0.117-0.646 0.185-1.008 0.185-0.077 0-0.152-0.003-0.228-0.009l0.010 0.001c0.498-0.349 0.819-0.92 0.819-1.566 0-0.13-0.013-0.257-0.038-0.38l0.002 0.012c-0.306-1.362-2.24-1.566-3.214-0.892 0.374-0.939 1.081-1.679 1.971-2.087l0.024-0.010c-0.411-0.146-0.908-0.276-1.419-0.366l-0.059-0.009c0.831-0.521 1.842-0.831 2.924-0.831 0.013 0 0.026 0 0.039 0h-0.002c-1.212-0.313-3.404 0.075-4.439 1.273 0.543 0.041 1.047 0.133 1.53 0.272l-0.053-0.013c-1.499 0.419-2.791 1.166-3.844 2.162l0.004-0.004c0.143-0.803 0.368-1.484 0.184-1.968-0.272-0.681-1.103-0.967-2.723-0.626zM13.671 14.625c-0.253-0.686-0.778-1.219-1.44-1.478l-0.017-0.006c0.225 0.776 0.517 1.484 1.457 1.484zM30.74 25.409c0-2.247-2.179-3.99-4.664-3.758 0.924 0.2 1.617 0.981 1.681 1.934l0 0.006c0 1.757-2.192 2.301-3.404 2.043 1.287-0.892 1.117-3.459-0.429-4.371 0.524 1.437-1.049 2.866-2.574 1.614-0.851-0.681-2.812-2.335-3.69-3.043s-1.906-0.293-2.308-0.599-0.163-1.362-0.797-1.702c-0.524-0.306-1.049-0.136-1.661-0.34-0.519-0.115-0.902-0.572-0.902-1.118 0-0.028 0.001-0.056 0.003-0.084l-0 0.004c-0.104 0.2-0.166 0.436-0.166 0.686 0 0.36 0.127 0.691 0.338 0.95l-0.002-0.003c0.422 0.483 1.117 0.783 1.409 1.314 0.374 0.681-0.259 1.648 1.403 2.955 0.797 0.62 2.043 1.641 2.832 2.349 1.362 1.192 0.633 2.669 0.81 3.963 0.185 1.228 1.060 2.213 2.211 2.554l0.022 0.006c-0.393-0.418-0.635-0.982-0.635-1.603s0.242-1.185 0.636-1.605l-0.001 0.001c0.123 1.803 1.355 3.288 3.013 3.785l0.030 0.008c2.206 0.586 4.555-0.681 5.045-1.546-0.269 0.075-0.579 0.118-0.898 0.118-0.846 0-1.622-0.302-2.226-0.803l0.006 0.005c2.587 0.368 4.882-1.437 4.882-3.738zM17.28 24.803c-0.681-0.606-1.723-1.464-2.499-2.083-0.885 1.512-2.771 3.486-4.677 3.486-3.513 0-5.277-4.97-1.362-9.042-0.159-0.051-0.341-0.081-0.531-0.082h-0c-0.012-0-0.026-0-0.040-0-0.313 0-0.604 0.089-0.852 0.243l0.007-0.004-1.491 1.089 0.354-1.968c0.038-0.134 0.080-0.247 0.129-0.356l-0.006 0.016c-0.807 0.391-1.501 0.874-2.108 1.447l0.004-0.004-1.525 1.668 0.163-2.349 0.102-0.524c0.080-0.262 0.126-0.564 0.126-0.876 0-0.049-0.001-0.097-0.003-0.145l0 0.007c-0.026-0.052-0.066-0.094-0.114-0.122l-0.001-0.001c-0.722 0.558-2.723 2.322-2.948 4.916 0.178-0.275 0.406-0.502 0.672-0.675l0.009-0.005c0.225-0.082 0.415 0 0.204 0.681-0.082 0.252-2.002 5.447 1.777 9.049 0 0-0.415-1.055-0.163-1.362 0.123-0.157 0.279-0.17 0.497 0.109s0.334 0.422 0.517 0.626v0c0.331 0.361 0.687 0.687 1.070 0.98l0.020 0.014c1.228 0.878 2.756 1.411 4.407 1.43l0.005 0c4.677 0 7.149-3.227 8.524-5.93-0.061-0.068-0.129-0.143-0.204-0.211zM25.362 13.549c-3.479 0.17-6.482 3.132-8.014 5.222 0.318 0.102 0.594 0.25 0.836 0.44l-0.006-0.004 1.307 1.069c0.765-1.686 1.695-3.139 2.8-4.438l-0.022 0.026c0.682-0.789 1.684-1.286 2.803-1.286 0.728 0 1.406 0.21 1.978 0.573l-0.015-0.009c0.769-0.681 3.404-1.362 4.766-0.946-1.162-1.256-2.785-2.072-4.598-2.178l-0.018-0.001c-1.641 0-2.567 0.803-2.805 0.443s1.11-1.123 1.11-1.123c-1.934 0.082-3.343 2.363-3.928 2.043-0.347-0.17 0.524-1.266 0.524-1.266-1.662 1.050-2.915 2.618-3.543 4.475l-0.018 0.060c1.627-1.995 4.766-3.404 6.843-3.125zM25.947 22.373c0.57 0.139 0.994 0.623 1.041 1.214l0 0.005c0 0 0 0.001 0 0.001 0 0.399-0.22 0.747-0.546 0.929l-0.005 0.003c-0.163 0.101-0.35 0.184-0.549 0.241l-0.016 0.004c0.096-0.318 0.151-0.684 0.151-1.063 0-0.040-0.001-0.081-0.002-0.121l0 0.006c0-0.742-0.075-1.151-0.075-1.151z"></path>
</symbol>
<symbol id="icon-door-open" viewBox="0 0 32 32">
<path d="M17 20c-0.552 0-1-0.896-1-2s0.448-2 1-2 1 0.896 1 2-0.448 2-1 2z"></path>
<path d="M21.656 0.244c0.211 0.184 0.344 0.454 0.344 0.755 0 0 0 0.001 0 0.001v-0 1h1c1.657 0 3 1.343 3 3v0 25h3c0.552 0 1 0.448 1 1s-0.448 1-1 1v0h-26c-0.552 0-1-0.448-1-1s0.448-1 1-1v0h3v-27c0-0.503 0.371-0.919 0.855-0.989l0.005-0.001 14-2c0.042-0.006 0.091-0.010 0.141-0.010 0.251 0 0.48 0.092 0.656 0.245l-0.001-0.001zM23 4h-1v26h2v-25c0-0.552-0.448-1-1-1v0zM8 3.868v26.132h12v-27.846z"></path>
</symbol>
<symbol id="icon-droplet-fill" viewBox="0 0 32 32">
<path d="M16 32c6.627 0 12-5.373 12-12v0c0-3.31-2.244-5.808-4.864-8.724-2.628-2.924-5.636-6.27-7.136-11.276 0 0-12 11.372-12 20 0 6.627 5.373 12 12 12v0zM13.292 9.292l1.416 1.416c-0.58 0.58-2.256 2.622-3.814 5.74l-1.788-0.896c1.64-3.282 3.434-5.506 4.186-6.26z"></path>
</symbol>
<symbol id="icon-ear-fill" viewBox="0 0 32 32">
<path d="M17 0c-6.075 0-11 4.925-11 11v0 14.094c0 0.001 0 0.002 0 0.004 0 3.814 3.092 6.906 6.906 6.906 2.945 0 5.459-1.843 6.452-4.438l0.016-0.047 1.020-2.726c0.35-0.915 0.802-1.706 1.355-2.414l-0.015 0.020 4.016-5.162c1.402-1.79 2.249-4.074 2.249-6.556 0-5.898-4.781-10.679-10.679-10.68h-0.32zM14 11v5.39c0.224-0.12 0.446-0.246 0.664-0.384 0.654-0.416 1.154-0.88 1.44-1.454 0.168-0.33 0.506-0.553 0.895-0.553 0.553 0 1.001 0.448 1.001 1.001 0 0.163-0.039 0.318-0.108 0.454l0.003-0.006c-0.512 1.026-1.346 1.73-2.158 2.246-0.476 0.299-1.045 0.61-1.632 0.888l-0.104 0.044v4.374c0 0.552-0.448 1-1 1s-1-0.448-1-1v0-12c0-2.761 2.239-5 5-5s5 2.239 5 5v0 1c0 0.552-0.448 1-1 1s-1-0.448-1-1v0-1c0-1.657-1.343-3-3-3s-3 1.343-3 3v0z"></path>
</symbol>
<symbol id="icon-emoji-dizzy" viewBox="0 0 32 32">
<path d="M16 30c-7.732 0-14-6.268-14-14s6.268-14 14-14v0c7.732 0 14 6.268 14 14s-6.268 14-14 14v0zM16 32c8.837 0 16-7.163 16-16s-7.163-16-16-16v0c-8.837 0-16 7.163-16 16s7.163 16 16 16v0z"></path>
<path d="M18.292 10.292c0.181-0.181 0.431-0.294 0.708-0.294s0.527 0.112 0.708 0.294l0 0 1.292 1.294 1.292-1.294c0.181-0.181 0.431-0.293 0.708-0.293 0.553 0 1.001 0.448 1.001 1.001 0 0.277-0.112 0.527-0.293 0.708v0l-1.294 1.292 1.294 1.292c0.181 0.181 0.293 0.431 0.293 0.708 0 0.553-0.448 1.001-1.001 1.001-0.276 0-0.527-0.112-0.708-0.293v0l-1.292-1.294-1.292 1.294c-0.181 0.181-0.431 0.293-0.708 0.293-0.553 0-1.001-0.448-1.001-1.001 0-0.277 0.112-0.527 0.293-0.708v0l1.294-1.292-1.294-1.292c-0.181-0.181-0.294-0.431-0.294-0.708s0.112-0.527 0.294-0.708l0-0zM8.292 10.292c0.181-0.181 0.431-0.294 0.708-0.294s0.527 0.112 0.708 0.294l0 0 1.292 1.294 1.292-1.294c0.181-0.181 0.431-0.293 0.708-0.293 0.553 0 1.001 0.448 1.001 1.001 0 0.277-0.112 0.527-0.293 0.708v0l-1.294 1.292 1.294 1.292c0.181 0.181 0.293 0.431 0.293 0.708 0 0.553-0.448 1.001-1.001 1.001-0.277 0-0.527-0.112-0.708-0.293v0l-1.292-1.294-1.292 1.294c-0.181 0.181-0.431 0.293-0.708 0.293-0.553 0-1.001-0.448-1.001-1.001 0-0.277 0.112-0.527 0.293-0.708v0l1.294-1.292-1.294-1.292c-0.181-0.181-0.294-0.431-0.294-0.708s0.112-0.527 0.294-0.708l0-0zM20 22c0 2.209-1.791 4-4 4s-4-1.791-4-4v0c0-2.209 1.791-4 4-4s4 1.791 4 4v0z"></path>
</symbol>
<symbol id="icon-eraser-fill" viewBox="0 0 32 32">
<path d="M16.172 4.414c0.724-0.724 1.724-1.171 2.828-1.171s2.104 0.448 2.828 1.171l7.758 7.758c0.724 0.724 1.171 1.724 1.171 2.828s-0.448 2.104-1.171 2.828l-11 11c-0.724 0.724-1.724 1.172-2.828 1.172h-5.518c-1.104-0-2.104-0.448-2.828-1.172l-5-5c-0.724-0.724-1.171-1.724-1.171-2.828s0.448-2.104 1.171-2.828l13.758-13.758zM17.492 27.094l-10.586-10.586-3.078 3.078c-0.362 0.362-0.586 0.862-0.586 1.414s0.224 1.052 0.586 1.414l5 5c0.362 0.362 0.862 0.586 1.414 0.586h5.518c0.552-0 1.052-0.224 1.414-0.586l0.32-0.32z"></path>
</symbol>
<symbol id="icon-exclamation-triangle-fill" viewBox="0 0 32 32">
<path d="M17.964 3.132c-0.397-0.683-1.126-1.135-1.96-1.135s-1.563 0.452-1.954 1.124l-0.006 0.011-13.714 23.334c-0.914 1.556 0.182 3.534 1.96 3.534h27.426c1.778 0 2.876-1.98 1.96-3.534l-13.712-23.334zM16 10c1.070 0 1.908 0.924 1.8 1.99l-0.7 7.014c-0.050 0.568-0.523 1.010-1.1 1.010s-1.050-0.442-1.1-1.006l-0-0.004-0.7-7.014c-0.006-0.054-0.009-0.117-0.009-0.18 0-0.999 0.81-1.809 1.809-1.81h0zM16.004 22c1.105 0 2 0.895 2 2s-0.895 2-2 2v0c-1.105 0-2-0.895-2-2s0.895-2 2-2v0z"></path>
</symbol>
<symbol id="icon-eye" viewBox="0 0 32 32">
<path d="M32 16s-6-11-16-11-16 11-16 11 6 11 16 11 16-11 16-11zM2.346 16c1.016-1.532 2.109-2.869 3.321-4.087l-0.001 0.001c2.574-2.578 6.094-4.914 10.334-4.914s7.758 2.336 10.336 4.914c1.211 1.217 2.304 2.554 3.26 3.99l0.060 0.096c-0.116 0.174-0.244 0.366-0.39 0.576-0.67 0.96-1.66 2.24-2.93 3.51-2.578 2.578-6.098 4.914-10.336 4.914-4.24 0-7.758-2.336-10.336-4.914-1.211-1.217-2.304-2.554-3.26-3.99l-0.060-0.096z"></path>
<path d="M16 11c-2.761 0-5 2.239-5 5s2.239 5 5 5v0c2.761 0 5-2.239 5-5s-2.239-5-5-5v0zM9 16c0-3.866 3.134-7 7-7s7 3.134 7 7v0c0 3.866-3.134 7-7 7s-7-3.134-7-7v0z"></path>
</symbol>
<symbol id="icon-eye-fill" viewBox="0 0 32 32">
<path d="M21 16c0 2.761-2.239 5-5 5s-5-2.239-5-5v0c0-2.761 2.239-5 5-5s5 2.239 5 5v0z"></path>
<path d="M0 16s6-11 16-11 16 11 16 11-6 11-16 11-16-11-16-11zM16 23c3.866 0 7-3.134 7-7s-3.134-7-7-7v0c-3.866 0-7 3.134-7 7s3.134 7 7 7v0z"></path>
</symbol>
<symbol id="icon-eye-slash-fill" viewBox="0 0 32 32">
<path d="M21.58 25.824l-3.228-3.23c-0.701 0.259-1.512 0.409-2.357 0.409-3.866 0-7-3.134-7-7 0-0.845 0.15-1.655 0.424-2.405l-0.016 0.049-4.12-4.12c-3.408 3.030-5.284 6.474-5.284 6.474s6 11 16 11c2.020-0.007 3.937-0.439 5.669-1.212l-0.089 0.036zM10.42 6.176c1.643-0.737 3.56-1.169 5.577-1.176h0.003c10 0 16 11 16 11s-1.878 3.442-5.282 6.476l-4.124-4.124c0.259-0.701 0.409-1.512 0.409-2.357 0-3.866-3.134-7-7-7-0.845 0-1.655 0.15-2.405 0.424l0.049-0.016-3.226-3.226z"></path>
<path d="M11.050 15.292c-0.032 0.213-0.050 0.459-0.050 0.708 0 2.761 2.239 5 5 5 0.25 0 0.496-0.018 0.736-0.054l-0.027 0.003-5.66-5.658zM20.95 16.708l-5.658-5.66c0.213-0.032 0.459-0.050 0.708-0.050 2.761 0 5 2.239 5 5 0 0.25-0.018 0.496-0.054 0.736l0.003-0.027zM27.292 28.708l-24-24 1.416-1.416 24 24-1.416 1.416z"></path>
</symbol>
<symbol id="icon-falling" viewBox="0 0 32 32">
<path d="M14 7v2.75l-3.328 1.633c-1.594 0.781-2.766 2.211-3.188 3.859l-1.32 4.446c-0.112 0.469-0.166 0.994-0.166 1.406 0 1.305 0.426 2.583 1.236 3.641l1.909 2.484c0.387 0.512 0.981 0.781 1.581 0.781 1.069 0 2.001-0.854 2.001-2.001 0-0.425-0.135-0.854-0.414-1.217l-1.899-2.477c-0.28-0.37-0.424-0.813-0.424-1.221 0-0.126 0.014-0.249 0.041-0.365l0.266-0.914 5.469 2.344c0.503 0.22 1.034 0.32 1.559 0.32 1.381 0 2.72-0.718 3.456-1.969l3.133-5.313 5.484 1.719c0.198 0.062 0.399 0.091 0.597 0.091 0.853 0 1.644-0.547 1.911-1.404 0.063-0.193 0.094-0.399 0.094-0.593 0-0.851-0.547-1.641-1.406-1.906l-6.313-1.984c-0.267-0.076-0.539-0.112-0.808-0.112-1.036 0-2.032 0.541-2.59 1.472l-2.258 3.821-4.899-1.953 2.594-1.266c1.017-0.502 1.679-1.565 1.679-2.64v-3.431c0-1.101-0.899-2-2-2-1.106 0-2 0.9-2 2zM6 14c0-1.656-1.344-3-3-3s-3 1.344-3 3 1.344 3 3 3 3-1.344 3-3zM19.844 23.887l2.156 0.931v4.181c0 1.101 0.899 2 2 2s2-0.899 2-2v-4.844c0-1.203-0.719-2.281-1.82-2.75l-1.281-0.555-0.391 0.672c-0.639 1.077-1.583 1.877-2.664 2.364z"></path>
</symbol>
<symbol id="icon-files" viewBox="0 0 32 32">
<path d="M26 0h-14c-2.209 0-4 1.791-4 4v0c-2.209 0-4 1.791-4 4v0 20c0 2.209 1.791 4 4 4v0h14c2.209 0 4-1.791 4-4v0c2.209 0 4-1.791 4-4v0-20c0-2.209-1.791-4-4-4v0zM26 26v-18c0-2.209-1.791-4-4-4v0h-12c0-1.105 0.895-2 2-2v0h14c1.105 0 2 0.895 2 2v0 20c0 1.105-0.895 2-2 2v0zM6 8c0-1.105 0.895-2 2-2v0h14c1.105 0 2 0.895 2 2v0 20c0 1.105-0.895 2-2 2v0h-14c-1.105 0-2-0.895-2-2v0-20z"></path>
</symbol>
<symbol id="icon-fire" viewBox="0 0 32 32">
<path d="M16 32c6.628 0 12-4 12-11 0-3-1-8-5-12 0.5 3-2.5 4-2.5 4 1.5-5-2.5-12-8.5-13 0.714 4 1 8-4 12-2.5 2-4 5.458-4 9 0 7 5.372 11 12 11zM16 30c-3.314 0-6-2-6-5.5 0-1.5 0.5-4 2.5-6-0.25 1.5 1.5 2.5 1.5 2.5-0.75-2.5 1-6.5 4-7-0.358 2-0.5 4 2 6 1.25 1 2 2.728 2 4.5 0 3.5-2.686 5.5-6 5.5z"></path>
</symbol>
<symbol id="icon-fist" viewBox="0 0 32 32">
<path d="M25.569 4.253c-0.794-1.087-2.087-1.753-3.494-1.753h-0.846c-0.22 0-0.44 0.017-0.658 0.051-0.771-0.593-1.721-0.926-2.727-0.926h-0.844c-0.249 0-0.494 0.023-0.734 0.068-0.722-1.023-1.916-1.693-3.266-1.693h-1c-2.206 0-4 1.791-4 4v3.107l-2.060 1.849c-1.234 1.044-1.94 2.581-1.94 4.225v4.936c0 2.006 1.069 3.853 2.791 4.82l2.209 1.244v6.319c0 0.831 0.669 1.5 1.444 1.5s1.556-0.669 1.556-1.5v-8.119c-0.082-0.041-0.173-0.058-0.254-0.102l-3.486-1.959c-0.777-0.433-1.26-1.283-1.26-2.201v-4.938c0-0.769 0.33-1.486 0.906-1.962l1.094-0.982v2.763c0 0.55 0.45 1 1 1s1-0.447 1-1v-9c0-0.552 0.449-1 1-1h1c0.55 0 1 0.448 1 1v1c0 0.599 0.496 1.002 1.009 1.002 0.402 0 0.769-0.251 0.921-0.636 0.026-0.064 0.339-0.742 1.070-0.742h0.846c1.311 0 1.12 1.224 2.142 1.224 0.511 0 0.619-0.349 1.242-0.349h0.846c1.596 0 1.142 1.764 2.416 1.764 0.010 0 0.020 0 0.029 0l0.941-0.014c0.794 0 1.538 0.731 1.538 1.625v8.125c0 2.259-1.221 4.207-3 5.231v8.269c0 0.832 0.669 1.501 1.444 1.501s1.556-0.669 1.556-1.5v-6.756c1.881-1.694 3-4.144 3-6.744v-8.125c0-2.494-1.95-4.535-4.431-4.622z"></path>
</symbol>
<symbol id="icon-fonts" viewBox="0 0 32 32">
<path d="M24.516 6h-17.020l-0.166 4.92h0.958c0.52-3.088 1.516-3.566 5.386-3.69l0.848-0.026v15.654c0 1.326-0.288 1.64-2.6 1.846v1.040h8.164v-1.040c-2.324-0.206-2.612-0.52-2.612-1.846v-15.654l0.862 0.026c3.868 0.124 4.868 0.602 5.386 3.692h0.958l-0.164-4.922z"></path>
</symbol>
<symbol id="icon-gem" viewBox="0 0 32 32">
<path d="M6.2 1.4c0.184-0.244 0.474-0.4 0.8-0.4v0h18c0.326 0 0.616 0.156 0.798 0.398l0.002 0.002 5.952 7.948c0.298 0.37 0.312 0.9 0.020 1.288l-14.972 19.964c-0.184 0.244-0.474 0.4-0.8 0.4s-0.616-0.156-0.798-0.398l-0.002-0.003-15-20c-0.125-0.165-0.2-0.374-0.2-0.6s0.075-0.435 0.202-0.603l-0.002 0.002 6-8zM28.972 8.97l-3.612-4.82-1.552 4.826 5.164-0.006zM21.706 8.978l1.922-5.978h-15.256l1.926 5.99 11.408-0.012zM10.94 10.99l5.060 15.742 5.064-15.752-10.124 0.010zM8.198 8.992l-1.56-4.844-3.636 4.85 5.196-0.006zM2.998 11l10.226 13.634-4.384-13.64-5.84 0.006zM18.776 24.634l10.246-13.66-5.856 0.004-4.39 13.656z"></path>
</symbol>
<symbol id="icon-geo-alt" viewBox="0 0 32 32">
<path d="M24.332 17.88c-1.048 2.124-2.468 4.24-3.92 6.14-1.464 1.893-2.909 3.568-4.435 5.164l0.023-0.024c-1.503-1.572-2.948-3.247-4.303-4.994l-0.109-0.145c-1.452-1.9-2.872-4.016-3.92-6.14-1.060-2.146-1.668-4.156-1.668-5.88 0-5.523 4.477-10 10-10s10 4.477 10 10v0c0 1.724-0.61 3.734-1.668 5.88zM16 32s12-11.372 12-20c0-6.627-5.373-12-12-12s-12 5.373-12 12v0c0 8.628 12 20 12 20z"></path>
<path d="M16 16c-2.209 0-4-1.791-4-4s1.791-4 4-4v0c2.209 0 4 1.791 4 4s-1.791 4-4 4v0zM16 18c3.314 0 6-2.686 6-6s-2.686-6-6-6v0c-3.314 0-6 2.686-6 6s2.686 6 6 6v0z"></path>
</symbol>
<symbol id="icon-globe-americas" viewBox="0 0 32 32">
<path d="M16 0c-8.837 0-16 7.163-16 16s7.163 16 16 16v0c8.837 0 16-7.163 16-16s-7.163-16-16-16v0zM4.080 8.652c0.65 2.658 5.064 5.080 7.434 6.38 0.96 0.526 1.586 0.868 1.486 0.968-0.16 0.16-0.324 0.316-0.484 0.468-0.832 0.792-1.574 1.498-1.516 2.532 0.070 1.268 1.236 1.648 2.428 2.034 1.154 0.376 2.336 0.76 2.572 1.966 0.164 0.834-0.15 1.976-0.44 3.040-0.43 1.564-0.812 2.96 0.44 2.96 3-1 7.596-6.372 8-10 0.276-2.486-4-4-7-5-0.956-0.32-1.51 0.162-1.98 0.568-0.344 0.3-0.644 0.558-1.020 0.432-0.89-0.296-5-4-3-5 1.56-0.78 1.904-0.342 2.454 0.364 0.156 0.198 0.326 0.416 0.546 0.636 1.218 0.608 1.324-0.264 1.446-1.266 0.078-0.644 0.162-1.342 0.554-1.734 0.868-0.868 2.53-1.582 4.056-2.24 1.424-0.612 2.73-1.174 3.158-1.76 4.093 2.492 6.785 6.931 6.785 11.998 0 7.732-6.268 14-14 14s-14-6.268-14-14c0-2.718 0.775-5.255 2.115-7.403l-0.034 0.059z"></path>
</symbol>
<symbol id="icon-heart-fill" viewBox="0 0 32 32">
<path d="M16 2.628c8.876-9.124 31.068 6.842 0 27.372-31.068-20.528-8.876-36.496 0-27.372z"></path>
</symbol>
<symbol id="icon-hourglass-split" viewBox="0 0 32 32">
<path d="M5 30c-0.552 0-1-0.448-1-1s0.448-1 1-1v0h2v-2c0-0.001 0-0.001 0-0.002 0-3.558 2.064-6.633 5.061-8.094l0.053-0.023c0.58-0.278 0.886-0.754 0.886-1.18v-1.4c0-0.426-0.308-0.902-0.886-1.18-3.050-1.484-5.114-4.56-5.114-8.118 0-0.001 0-0.002 0-0.002v0-2h-2c-0.552 0-1-0.448-1-1s0.448-1 1-1v0h22c0.552 0 1 0.448 1 1s-0.448 1-1 1v0h-2v2c0 0.001 0 0.001 0 0.002 0 3.558-2.064 6.633-5.061 8.094l-0.053 0.023c-0.58 0.278-0.886 0.754-0.886 1.18v1.4c0 0.426 0.308 0.902 0.886 1.18 3.050 1.484 5.114 4.56 5.114 8.118 0 0.001 0 0.002 0 0.002v-0 2h2c0.552 0 1 0.448 1 1s-0.448 1-1 1v0h-22zM9 4v2c0 1.074 0.24 2.090 0.674 3h12.652c0.432-0.91 0.674-1.926 0.674-3v-2h-14zM15 16.7c0 1.402-0.956 2.472-2.022 2.984-2.372 1.154-3.978 3.547-3.978 6.314 0 0.001 0 0.001 0 0.002v-0s1.732-2.598 6-2.96v-6.34zM17 16.7v6.34c4.268 0.362 6 2.96 6 2.96s0-0.001 0-0.002c0-2.767-1.606-5.16-3.937-6.296l-0.041-0.018c-1.066-0.512-2.022-1.58-2.022-2.982z"></path>
</symbol>
<symbol id="icon-images" viewBox="0 0 32 32">
<path d="M9.004 18c1.657 0 3-1.343 3-3s-1.343-3-3-3v0c-1.657 0-3 1.343-3 3s1.343 3 3 3v0z"></path>
<path d="M28.004 26c0 2.209-1.791 4-4 4v0h-20c-2.209 0-4-1.791-4-4v0-16c0-2.208 1.789-3.998 3.996-4h0c0-2.209 1.791-4 4-4v0h20c2.209 0 4 1.791 4 4v0 16c0 2.208-1.789 3.998-3.996 4h-0zM28 4h-20c-1.105 0-2 0.895-2 2v0h18.004c2.209 0 4 1.791 4 4v0 14c1.103-0.002 1.996-0.897 1.996-2 0 0 0 0 0 0v0-16c0-1.105-0.895-2-2-2v0zM4.004 8c-1.105 0-2 0.895-2 2v0 16l5.292-4.708c0.181-0.18 0.43-0.292 0.706-0.292 0.207 0 0.398 0.063 0.558 0.17l-0.004-0.002 5.32 3.546 7.42-7.42c0.181-0.181 0.431-0.293 0.707-0.293 0.163 0 0.316 0.039 0.452 0.108l-0.006-0.003 3.554 3.894v-11c0-1.105-0.895-2-2-2v0h-20z"></path>
</symbol>
<symbol id="icon-incognito" viewBox="0 0 32 32">
<path d="M9.472 3.936l-1.784 6.538-0.028 0.116c-3.434 0.546-5.66 1.422-5.66 2.41 0 1.656 6.268 3 14 3s14-1.344 14-3c0-0.988-2.226-1.864-5.66-2.41-0.011-0.053-0.021-0.092-0.031-0.131l0.003 0.015-1.784-6.54c-0.292-1.066-1.396-1.698-2.478-1.468-1.228 0.26-2.81 0.534-4.050 0.534s-2.822-0.272-4.050-0.534c-1.082-0.23-2.186 0.4-2.478 1.47zM9.502 11.67c0.026-0.254 0.239-0.451 0.498-0.451 0.018 0 0.035 0.001 0.053 0.003l-0.002-0c1.8 0.184 3.82 0.286 5.95 0.286 0.041 0 0.090 0 0.138 0 2.047 0 4.069-0.104 6.062-0.307l-0.25 0.021c0.015-0.002 0.032-0.002 0.050-0.002 0.276 0 0.5 0.224 0.5 0.501 0 0.259-0.196 0.472-0.448 0.498l-0.002 0c-1.836 0.186-3.888 0.29-6.050 0.29s-4.214-0.104-6.050-0.29c-0.254-0.026-0.451-0.239-0.451-0.498 0-0.018 0.001-0.035 0.003-0.053l-0 0.002zM7 20h4c0.552 0 1 0.448 1 1v0 2c0 1.657-1.343 3-3 3s-3-1.343-3-3v0-2c0-0.552 0.448-1 1-1v0zM4 21c0-0.35 0.060-0.688 0.17-1h-0.17c-0.552 0-1-0.448-1-1s0.448-1 1-1v0h7c1.524 0 2.783 1.137 2.974 2.609l0.002 0.015c0.606-0.19 1.302-0.299 2.024-0.299s1.418 0.109 2.074 0.312l-0.050-0.013c0.193-1.487 1.452-2.624 2.976-2.624h7c0.552 0 1 0.448 1 1s-0.448 1-1 1v0h-0.17c0.11 0.312 0.17 0.65 0.17 1v2c0 2.761-2.239 5-5 5s-5-2.239-5-5v0-0.28l-0.42-0.14c-0.471-0.162-1.015-0.256-1.58-0.256s-1.108 0.094-1.615 0.267l0.035-0.010-0.42 0.14v0.28c0 2.761-2.239 5-5 5s-5-2.239-5-5v0-2zM21 20h4c0.552 0 1 0.448 1 1v0 2c0 1.657-1.343 3-3 3s-3-1.343-3-3v0-2c0-0.552 0.448-1 1-1v0z"></path>
</symbol>
<symbol id="icon-journal-bookmark-fill" viewBox="0 0 32 32">
<path d="M12 2h12v14c0 0 0 0 0 0 0 0.552-0.448 1-1 1-0.19 0-0.367-0.053-0.518-0.145l0.004 0.003-4.486-2.692-4.486 2.694c-0.147 0.089-0.324 0.142-0.514 0.142-0.552 0-1-0.448-1-1 0-0.001 0-0.002 0-0.002v0z"></path>
<path d="M6 0h20c2.209 0 4 1.791 4 4v0 24c0 2.209-1.791 4-4 4v0h-20c-2.209 0-4-1.791-4-4v0-2h2v2c0 1.105 0.895 2 2 2v0h20c1.105 0 2-0.895 2-2v0-24c0-1.105-0.895-2-2-2v0h-20c-1.105 0-2 0.895-2 2v0 2h-2v-2c0-2.209 1.791-4 4-4v0z"></path>
<path d="M2 10v-1c0-0.552 0.448-1 1-1s1 0.448 1 1v0 1h1c0.552 0 1 0.448 1 1s-0.448 1-1 1v0h-4c-0.552 0-1-0.448-1-1s0.448-1 1-1v0zM2 16v-1c0-0.552 0.448-1 1-1s1 0.448 1 1v0 1h1c0.552 0 1 0.448 1 1s-0.448 1-1 1v0h-4c-0.552 0-1-0.448-1-1s0.448-1 1-1v0zM2 22v-1c0-0.552 0.448-1 1-1s1 0.448 1 1v0 1h1c0.552 0 1 0.448 1 1s-0.448 1-1 1v0h-4c-0.552 0-1-0.448-1-1s0.448-1 1-1v0z"></path>
</symbol>
<symbol id="icon-lightning-fill" viewBox="0 0 32 32">
<path d="M11.040 0.718c0.126-0.418 0.508-0.718 0.959-0.718 0 0 0 0 0.001 0h8c0.552 0 0.999 0.448 0.999 1 0 0.113-0.019 0.222-0.053 0.323l0.002-0.007-3.56 10.684h7.612c0 0 0 0 0.001 0 0.552 0 1 0.448 1 1 0 0.232-0.079 0.446-0.212 0.616l0.002-0.002-14 18c-0.185 0.237-0.47 0.388-0.791 0.388-0.552 0-1-0.448-1-1 0-0.106 0.016-0.207 0.047-0.303l-0.002 0.007 3.602-11.706h-6.646c-0 0-0 0-0.001 0-0.552 0-1-0.448-1-1 0-0.101 0.015-0.198 0.042-0.289l-0.002 0.007z"></path>
</symbol>
<symbol id="icon-lock-fill" viewBox="0 0 32 32">
<path d="M16 2c2.209 0 4 1.791 4 4v0 8h-8v-8c0-2.209 1.791-4 4-4v0zM22 14v-8c0-3.314-2.686-6-6-6s-6 2.686-6 6v0 8c-2.209 0-4 1.791-4 4v0 10c0 2.209 1.791 4 4 4v0h12c2.209 0 4-1.791 4-4v0-10c0-2.209-1.791-4-4-4v0z"></path>
</symbol>
<symbol id="icon-magic" viewBox="0 0 32 32">
<path d="M19 5.344c0 0.552 0.448 1 1 1s1-0.448 1-1v0-3.658c0-0.552-0.448-1-1-1s-1 0.448-1 1v0 3.658zM28 5.414c0.174-0.18 0.281-0.425 0.281-0.695 0-0.552-0.448-1-1-1-0.27 0-0.515 0.107-0.695 0.281l-2.586 2.586c-0.188 0.182-0.305 0.437-0.305 0.719 0 0.552 0.448 1 1 1 0.282 0 0.537-0.117 0.719-0.305l2.586-2.586zM14.586 8c0.182 0.188 0.437 0.305 0.719 0.305 0.552 0 1-0.448 1-1 0-0.282-0.117-0.537-0.305-0.719l-2.586-2.586c-0.18-0.174-0.425-0.281-0.695-0.281-0.552 0-1 0.448-1 1 0 0.27 0.107 0.515 0.281 0.695l2.586 2.586zM13.344 13c0.552 0 1-0.448 1-1s-0.448-1-1-1v0h-3.658c-0.552 0-1 0.448-1 1s0.448 1 1 1v0h3.658zM30.314 13c0.552 0 1-0.448 1-1s-0.448-1-1-1v0h-3.658c-0.552 0-1 0.448-1 1s0.448 1 1 1v0h3.658zM26.586 20c0.182 0.188 0.437 0.305 0.719 0.305 0.552 0 1-0.448 1-1 0-0.282-0.117-0.537-0.305-0.719l-2.586-2.586c-0.182-0.188-0.437-0.305-0.719-0.305-0.552 0-1 0.448-1 1 0 0.282 0.117 0.537 0.305 0.719l2.586 2.586zM19 22.314c0 0.552 0.448 1 1 1s1-0.448 1-1v0-3.658c0-0.552-0.448-1-1-1s-1 0.448-1 1v0 3.658zM22.708 12.12c0.18-0.181 0.292-0.43 0.292-0.706s-0.111-0.525-0.292-0.706l-1.416-1.416c-0.181-0.181-0.431-0.293-0.707-0.293s-0.526 0.112-0.707 0.293v0l-2.586 2.588c-0.181 0.181-0.293 0.431-0.293 0.707s0.112 0.526 0.293 0.707l1.416 1.416c0.181 0.181 0.431 0.293 0.707 0.293s0.526-0.112 0.707-0.293l2.586-2.586zM16.708 18.12c0.18-0.181 0.292-0.43 0.292-0.706s-0.111-0.525-0.292-0.706l-1.416-1.416c-0.181-0.181-0.431-0.293-0.707-0.293s-0.526 0.112-0.707 0.293l-12.586 12.588c-0.181 0.181-0.293 0.431-0.293 0.707s0.112 0.526 0.293 0.707l1.416 1.416c0.181 0.181 0.431 0.293 0.707 0.293s0.526-0.112 0.707-0.293l12.586-12.59z"></path>
</symbol>
<symbol id="icon-moon-fill" viewBox="0 0 32 32">
<path d="M12 0.556c0.217 0.264 0.349 0.605 0.349 0.977 0 0.271-0.070 0.526-0.193 0.747l0.004-0.008c-1.105 1.99-1.756 4.365-1.756 6.891 0 0.010 0 0.020 0 0.030v-0.002c0 8.042 6.556 14.554 14.636 14.554q1.584-0.002 3.066-0.32c0.099-0.022 0.213-0.035 0.331-0.035 0.53 0 1 0.261 1.286 0.662l0.003 0.005c0.172 0.236 0.275 0.533 0.275 0.853 0 0.356-0.127 0.682-0.339 0.935l0.002-0.002c-3.086 3.769-7.74 6.156-12.95 6.156-0.009 0-0.018 0-0.027-0h0.001c-9.22 0-16.688-7.428-16.688-16.58 0-6.888 4.228-12.796 10.248-15.3 0.173-0.076 0.375-0.119 0.587-0.119 0.469 0 0.888 0.215 1.163 0.553l0.002 0.003z"></path>
</symbol>
<symbol id="icon-moon-stars-fill" viewBox="0 0 32 32">
<path d="M12 0.556c0.218 0.263 0.35 0.604 0.35 0.976 0 0.271-0.070 0.526-0.194 0.748l0.004-0.008c-1.105 1.992-1.756 4.367-1.756 6.895 0 0.009 0 0.017 0 0.026v-0.001c0 8.042 6.556 14.554 14.636 14.554 1.054 0 2.080-0.11 3.066-0.32 0.1-0.023 0.215-0.036 0.333-0.036 0.53 0 0.998 0.262 1.284 0.663l0.003 0.005c0.171 0.237 0.273 0.533 0.273 0.853 0 0.356-0.127 0.682-0.337 0.936l0.002-0.002c-3.086 3.769-7.739 6.156-12.95 6.156-0.009 0-0.019 0-0.028-0h0.001c-9.22 0-16.688-7.428-16.688-16.58 0-6.888 4.228-12.796 10.248-15.3 0.173-0.075 0.374-0.119 0.585-0.119 0.469 0 0.889 0.215 1.164 0.552l0.002 0.003z"></path>
<path d="M21.588 6.296c0.059-0.174 0.221-0.298 0.412-0.298s0.353 0.123 0.411 0.295l0.001 0.003 0.774 2.324c0.346 1.036 1.158 1.848 2.194 2.194l2.324 0.774c0.174 0.059 0.298 0.221 0.298 0.412s-0.123 0.353-0.295 0.411l-0.003 0.001-2.324 0.774c-1.038 0.353-1.841 1.156-2.187 2.17l-0.007 0.024-0.774 2.324c-0.059 0.174-0.221 0.298-0.412 0.298s-0.353-0.123-0.411-0.295l-0.001-0.003-0.774-2.324c-0.353-1.038-1.156-1.841-2.17-2.187l-0.024-0.007-2.324-0.774c-0.174-0.059-0.298-0.221-0.298-0.412s0.123-0.353 0.295-0.411l0.003-0.001 2.324-0.774c1.038-0.353 1.841-1.156 2.187-2.17l0.007-0.024 0.774-2.324zM27.726 0.198c0.041-0.114 0.148-0.195 0.274-0.195s0.233 0.081 0.273 0.193l0.001 0.002 0.516 1.548c0.23 0.692 0.772 1.234 1.464 1.464l1.548 0.516c0.114 0.041 0.195 0.148 0.195 0.274s-0.081 0.233-0.193 0.273l-0.002 0.001-1.548 0.516c-0.693 0.235-1.229 0.771-1.459 1.448l-0.005 0.016-0.516 1.548c-0.041 0.114-0.148 0.195-0.274 0.195s-0.233-0.081-0.273-0.193l-0.001-0.002-0.516-1.548c-0.235-0.693-0.771-1.229-1.448-1.459l-0.016-0.005-1.548-0.516c-0.114-0.041-0.195-0.148-0.195-0.274s0.081-0.233 0.193-0.273l0.002-0.001 1.548-0.516c0.692-0.23 1.234-0.772 1.464-1.464l0.516-1.546z"></path>
</symbol>
<symbol id="icon-paint-bucket" viewBox="0 0 32 32">
<path d="M12.384 5.56c-0.916-1.354-1.854-2.496-2.7-3.286-0.409-0.401-0.876-0.744-1.388-1.014l-0.032-0.016c-0.434-0.208-1.12-0.41-1.764-0.040-0.734 0.426-0.854 1.26-0.86 1.792-0.006 0.608 0.128 1.328 0.346 2.088 0.392 1.374 1.112 3.056 2.070 4.804l-6.552 6.552c-0.554 0.554-0.538 1.312-0.436 1.836 0.11 0.566 0.374 1.186 0.72 1.806 0.696 1.254 1.84 2.722 3.252 4.136 1.414 1.414 2.882 2.556 4.136 3.252 0.62 0.346 1.24 0.61 1.806 0.72 0.524 0.1 1.28 0.118 1.836-0.436l11.23-11.23c0.236 0.514 0.184 1.024 0.1 1.878-0.060 0.584-0.136 1.33-0.146 2.352v0.246h0.006c0.089 1.030 0.947 1.833 1.993 1.833s1.904-0.803 1.992-1.825l0.001-0.007h0.006v-0.114c0-0.014 0.001-0.031 0.001-0.048 0-0.065-0.003-0.13-0.009-0.194l0.001 0.008c-0.11-2.5-1.4-5.476-3.72-6.988-0.147-0.35-0.288-0.635-0.444-0.911l0.022 0.043c-0.698-1.252-1.84-2.72-3.254-4.134s-2.882-2.558-4.136-3.254c-0.62-0.344-1.24-0.608-1.806-0.72-0.524-0.1-1.28-0.116-1.836 0.438l-0.434 0.432zM8.32 3.734c0.762 0.712 1.688 1.844 2.622 3.264l-1.408 1.41c-0.764-1.454-1.32-2.804-1.626-3.876-0.125-0.391-0.217-0.849-0.26-1.321l-0.002-0.025c0.182 0.122 0.408 0.3 0.674 0.548zM9.108 11.664c1.080 1.704 2.214 3.134 3.214 4.066 0.178 0.166 0.418 0.268 0.682 0.268 0.553 0 1-0.448 1-1 0-0.289-0.122-0.549-0.318-0.731l-0.001-0.001c-0.906-0.844-2.034-2.272-3.128-4.054l2.176-2.176c0.108 0.24 0.23 0.486 0.366 0.73 0.698 1.254 1.84 2.722 3.254 4.136 1.412 1.414 2.88 2.556 4.136 3.252 0.244 0.136 0.488 0.26 0.73 0.366l-9.722 9.724c-0.052-0.005-0.098-0.012-0.143-0.021l0.008 0.001c-0.274-0.054-0.684-0.208-1.216-0.504-1.048-0.584-2.372-1.6-3.692-2.92s-2.336-2.64-2.92-3.692c-0.294-0.53-0.45-0.94-0.502-1.214-0.008-0.038-0.015-0.084-0.020-0.132l-0-0.004 6.096-6.094zM14.848 7.794c-0.193-0.322-0.357-0.695-0.473-1.087l-0.009-0.035c0.27 0.066 0.648 0.22 1.124 0.482 1.048 0.584 2.372 1.6 3.692 2.92 0.9 0.9 1.66 1.802 2.236 2.62-0.143-0.010-0.31-0.016-0.478-0.016-0.587 0-1.157 0.072-1.702 0.209l0.048-0.010c-0.55-0.46-1.046-0.913-1.52-1.388l-0-0c-1.32-1.32-2.334-2.644-2.916-3.694z"></path>
</symbol>
<symbol id="icon-palette-fill" viewBox="0 0 32 32">
<path d="M24.866 20.14c3.4 1.030 7.134 2.16 7.134-4.14 0-8.837-7.163-16-16-16s-16 7.163-16 16c0 8.837 7.163 16 16 16v0c3.992 0 3.652-3.008 3.298-6.16-0.248-2.202-0.504-4.474 0.702-5.84 0.93-1.054 2.84-0.474 4.866 0.14zM16 10c-1.657 0-3-1.343-3-3s1.343-3 3-3v0c1.657 0 3 1.343 3 3s-1.343 3-3 3v0zM25 16c-1.657 0-3-1.343-3-3s1.343-3 3-3v0c1.657 0 3 1.343 3 3s-1.343 3-3 3v0zM10 13c0 1.657-1.343 3-3 3s-3-1.343-3-3v0c0-1.657 1.343-3 3-3s3 1.343 3 3v0zM11 26c-1.657 0-3-1.343-3-3s1.343-3 3-3v0c1.657 0 3 1.343 3 3s-1.343 3-3 3v0z"></path>
</symbol>
<symbol id="icon-people-fill" viewBox="0 0 32 32">
<path d="M14 28s-2 0-2-2 2-8 10-8 10 6 10 8-2 2-2 2zM22 16c3.314 0 6-2.686 6-6s-2.686-6-6-6v0c-3.314 0-6 2.686-6 6s2.686 6 6 6v0zM10.432 28c-0.273-0.562-0.433-1.223-0.433-1.921 0-0.028 0-0.056 0.001-0.083l-0 0.004c0-2.71 1.36-5.5 3.872-7.44-1.112-0.356-2.391-0.561-3.718-0.561-0.054 0-0.108 0-0.163 0.001l0.008-0c-8 0-10 6-10 8s2 2 2 2zM9 16c2.761 0 5-2.239 5-5s-2.239-5-5-5v0c-2.761 0-5 2.239-5 5s2.239 5 5 5v0z"></path>
</symbol>
<symbol id="icon-person-circle" viewBox="0 0 32 32">
<path d="M22 12c0 3.314-2.686 6-6 6s-6-2.686-6-6v0c0-3.314 2.686-6 6-6s6 2.686 6 6v0z"></path>
<path d="M0 16c0-8.837 7.163-16 16-16s16 7.163 16 16v0c0 8.837-7.163 16-16 16s-16-7.163-16-16v0zM16 2c-7.732 0-13.999 6.268-13.999 14 0 3.319 1.155 6.368 3.084 8.767l-0.021-0.027c1.42-2.288 4.546-4.74 10.936-4.74s9.514 2.45 10.936 4.74c1.909-2.372 3.063-5.421 3.063-8.74 0-7.732-6.268-14-13.999-14h-0z"></path>
</symbol>
<symbol id="icon-pip" viewBox="0 0 32 32">
<path d="M0 7c0-1.657 1.343-3 3-3v0h26c1.657 0 3 1.343 3 3v0 18c0 1.657-1.343 3-3 3v0h-26c-1.657 0-3-1.343-3-3v0-18zM3 6c-0.552 0-1 0.448-1 1v0 18c0 0.552 0.448 1 1 1v0h26c0.552 0 1-0.448 1-1v0-18c0-0.552-0.448-1-1-1v0h-26z"></path>
<path d="M16 17c0-0.552 0.448-1 1-1v0h10c0.552 0 1 0.448 1 1v0 6c0 0.552-0.448 1-1 1v0h-10c-0.552 0-1-0.448-1-1v0-6z"></path>
</symbol>
<symbol id="icon-play-fill" viewBox="0 0 32 32">
<path d="M23.192 17.394l-12.726 7.384c-1.080 0.626-2.466-0.132-2.466-1.394v-14.768c0-1.26 1.384-2.020 2.466-1.392l12.726 7.384c0.487 0.282 0.809 0.8 0.809 1.393s-0.322 1.111-0.801 1.389l-0.008 0.004z"></path>
</symbol>
<symbol id="icon-plus" viewBox="0 0 32 32">
<path d="M16 8c0.552 0 1 0.448 1 1v0 6h6c0.552 0 1 0.448 1 1s-0.448 1-1 1v0h-6v6c0 0.552-0.448 1-1 1s-1-0.448-1-1v0-6h-6c-0.552 0-1-0.448-1-1s0.448-1 1-1v0h6v-6c0-0.552 0.448-1 1-1v0z"></path>
</symbol>
<symbol id="icon-question-circle" viewBox="0 0 32 32">
<path d="M16 30c-7.732 0-14-6.268-14-14s6.268-14 14-14v0c7.732 0 14 6.268 14 14s-6.268 14-14 14v0zM16 32c8.837 0 16-7.163 16-16s-7.163-16-16-16v0c-8.837 0-16 7.163-16 16s7.163 16 16 16v0z"></path>
<path d="M10.51 11.572c-0 0.006-0 0.013-0 0.020 0 0.262 0.212 0.474 0.474 0.474 0.003 0 0.006-0 0.009-0h1.65c0.276 0 0.496-0.226 0.532-0.5 0.18-1.312 1.080-2.268 2.684-2.268 1.372 0 2.628 0.686 2.628 2.336 0 1.27-0.748 1.854-1.93 2.742-1.346 0.978-2.412 2.12-2.336 3.974l0.006 0.434c0.005 0.273 0.227 0.492 0.5 0.492 0 0 0 0 0 0h1.622c0.276 0 0.5-0.224 0.5-0.5v0-0.21c0-1.436 0.546-1.854 2.020-2.972 1.218-0.926 2.488-1.954 2.488-4.112 0-3.022-2.552-4.482-5.346-4.482-2.534 0-5.31 1.18-5.5 4.572zM13.624 23.098c0 1.066 0.85 1.854 2.020 1.854 1.218 0 2.056-0.788 2.056-1.854 0-1.104-0.84-1.88-2.058-1.88-1.168 0-2.018 0.776-2.018 1.88z"></path>
</symbol>
<symbol id="icon-rulers" viewBox="0 0 32 32">
<path d="M2 0c-1.105 0-2 0.895-2 2v0 28c0 1.105 0.895 2 2 2v0h10v-2h-8v-2h8v-2h-4v-2h4v-2h-8v-2h8v-2h-4v-2h4v-2h-8v-2h8v-8h2v8h2v-4h2v4h2v-8h2v8h2v-4h2v4h2v-8h2v8h2v-10c0-1.105-0.895-2-2-2v0h-28z"></path>
</symbol>
<symbol id="icon-scissors" viewBox="0 0 32 32">
<path d="M7 7c-1.228-1.768-0.148-3.924 1.716-5l7.284 12.452 7.284-12.452c1.864 1.076 2.944 3.232 1.716 5l-7.38 10.22 3.112 5.322c0.66-0.343 1.441-0.545 2.269-0.545 2.761 0 5 2.239 5 5s-2.239 5-5 5c-2.761 0-5-2.239-5-5 0-1.212 0.431-2.324 1.149-3.19l-0.007 0.008-3.144-4.356-3.144 4.354c0.711 0.857 1.143 1.969 1.143 3.181 0 2.761-2.239 5-5 5s-5-2.239-5-5c0-2.761 2.239-5 5-5 0.828 0 1.609 0.201 2.297 0.558l-0.028-0.013 3.112-5.32-7.38-10.22zM12 27c0-1.657-1.343-3-3-3s-3 1.343-3 3v0c0 1.657 1.343 3 3 3s3-1.343 3-3v0zM26 27c0-1.657-1.343-3-3-3s-3 1.343-3 3v0c0 1.657 1.343 3 3 3s3-1.343 3-3v0z"></path>
</symbol>
<symbol id="icon-share-fill" viewBox="0 0 32 32">
<path d="M22 5c0-0 0-0 0-0.001 0-2.761 2.239-5 5-5s5 2.239 5 5c0 2.761-2.239 5-5 5-1.514 0-2.872-0.673-3.789-1.737l-0.005-0.007-13.436 6.24c0.147 0.45 0.232 0.967 0.232 1.504s-0.085 1.054-0.241 1.539l0.010-0.035 13.436 6.24c0.922-1.068 2.278-1.74 3.791-1.74 2.761 0 5 2.239 5 5s-2.239 5-5 5c-2.761 0-5-2.239-5-5 0-0.539 0.085-1.057 0.243-1.543l-0.010 0.035-13.436-6.24c-0.922 1.070-2.28 1.744-3.795 1.744-2.761 0-5-2.239-5-5s2.239-5 5-5c1.515 0 2.872 0.674 3.789 1.738l0.005 0.007 13.436-6.24c-0.146-0.448-0.23-0.964-0.23-1.499 0-0.002 0-0.003 0-0.005v0z"></path>
</symbol>
<symbol id="icon-skull" viewBox="0 0 32 32">
<path d="M16 2c-7.2 0-13 5.8-13 12.8v5.7c0 1.9 1.5 3.4 3.4 3.4 0.6 0 1.6 0.3 1.6 1.1v3c0 0.4 0.3 0.8 0.7 1 2.4 0.8 4.9 1.2 7.3 1.2s4.9-0.4 7.3-1.2c0.4-0.1 0.7-0.5 0.7-1v-3c0-0.8 1-1.1 1.6-1.1 1.9 0 3.4-1.5 3.4-3.4v-5.7c0-7-5.8-12.8-13-12.8zM12.3 21.7l-1.2 0.2c-0.2 0-0.4 0.1-0.7 0.1-0.8 0-1.5-0.3-2.2-0.8-0.7-0.6-1.2-1.6-1.2-2.6v-0.2c0-1.9 1.5-3.4 3.4-3.4h1.2c1.1 0 2 0.5 2.7 1.3 0.6 0.8 0.9 1.9 0.6 2.9-0.3 1.3-1.4 2.2-2.6 2.5zM17.4 23.9c-0.1 0.1-0.2 0.1-0.4 0.1-0.4 0-0.7-0.2-0.9-0.6l-0.1-0.2-0.1 0.2c-0.2 0.5-0.8 0.7-1.3 0.4-0.5-0.2-0.7-0.8-0.4-1.3l1-2c0.3-0.7 1.4-0.7 1.8 0l1 2c0.1 0.5-0.1 1.1-0.6 1.4zM25 18.6c0 1-0.5 2-1.2 2.6-0.6 0.5-1.4 0.8-2.2 0.8-0.2 0-0.4 0-0.7-0.1l-1.2-0.2c-1.3-0.3-2.3-1.2-2.6-2.5-0.3-1 0-2.1 0.6-2.9s1.6-1.3 2.7-1.3h1.2c1.9 0 3.4 1.5 3.4 3.4v0.2z"></path>
</symbol>
<symbol id="icon-slash-lg" viewBox="0 0 32 32">
<path d="M27.708 4.292c0.181 0.181 0.294 0.431 0.294 0.708s-0.112 0.527-0.294 0.708l-22 22c-0.181 0.181-0.431 0.293-0.708 0.293-0.553 0-1.001-0.448-1.001-1.001 0-0.276 0.112-0.527 0.293-0.708v0l22-22c0.181-0.181 0.431-0.294 0.708-0.294s0.527 0.112 0.708 0.294l0 0z"></path>
</symbol>
<symbol id="icon-sliders" viewBox="0 0 32 32">
<path d="M23 4c-1.657 0-3 1.343-3 3s1.343 3 3 3v0c1.657 0 3-1.343 3-3s-1.343-3-3-3v0zM18.1 6c0.48-2.301 2.491-4.005 4.9-4.005s4.421 1.704 4.894 3.973l0.006 0.032h4.1v2h-4.1c-0.48 2.301-2.491 4.005-4.9 4.005s-4.421-1.704-4.894-3.973l-0.006-0.032h-18.1v-2h18.1zM9 14c-1.657 0-3 1.343-3 3s1.343 3 3 3v0c1.657 0 3-1.343 3-3s-1.343-3-3-3v0zM4.1 16c0.479-2.301 2.491-4.005 4.9-4.005s4.421 1.704 4.894 3.973l0.006 0.032h18.1v2h-18.1c-0.479 2.301-2.491 4.005-4.9 4.005s-4.42-1.704-4.894-3.973l-0.006-0.032h-4.1v-2h4.1zM23 24c-1.657 0-3 1.343-3 3s1.343 3 3 3v0c1.657 0 3-1.343 3-3s-1.343-3-3-3v0zM18.1 26c0.48-2.301 2.491-4.005 4.9-4.005s4.421 1.704 4.894 3.973l0.006 0.032h4.1v2h-4.1c-0.48 2.301-2.491 4.005-4.9 4.005s-4.421-1.704-4.894-3.973l-0.006-0.032h-18.1v-2h18.1z"></path>
</symbol>
<symbol id="icon-spiderweb" viewBox="0 0 32 32">
<path d="M27.112 16.947c-0.826-0.551-3.156-2.309-3.156-4.66 0-2.28 1.277-4.614 1.485-4.978l2.603-2.603-0.75-0.75-2.623 2.623c-0.247 0.176-2.137 1.465-4.428 1.465-2.873 0-5.132-3.264-5.737-4.23l-0.635-3.814-1.047 0.174 0.511 3.064c-1.961 7.142-8.431 10.321-9.146 10.652l-4.032-0.538-0.14 1.051 4.262 0.568c0.67 0.342 3.234 1.871 3.234 5.272 0 2.716-0.812 4.209-0.95 4.443l-3.138 3.138 0.75 0.75 3.14-3.14c0.235-0.143 1.655-0.948 3.911-0.948 3.328 0 5.655 2.886 6.276 3.749l0.628 3.765 1.047-0.174-0.515-3.087c1.531-8.415 8.703-10.514 9.132-10.631l4.050 0.54 0.14-1.051-4.871-0.649zM25.078 16.675l-2.064-0.275c-1.431-1.683-1.665-4.224-1.702-4.962l2.089-2.089c-0.283 0.883-0.506 1.906-0.506 2.939 0 1.876 1.127 3.384 2.183 4.388zM21.578 16.209l-2.062-0.275c-0.235-0.734-0.314-1.795-0.33-2.37l1.149-1.149c0.131 1.006 0.456 2.483 1.242 3.795zM20.243 9.104c0.807 0 1.563-0.138 2.235-0.333l-1.918 1.918c-0.814-0.015-1.589-0.114-2.305-0.3l-0.268 1.027c0.501 0.13 1.027 0.22 1.571 0.275l-1.122 1.122c-0.609-0.017-1.759-0.106-2.492-0.375l-0.343-2.055c0.342 0.222 0.752 0.452 1.258 0.659l0.402-0.981c-1.112-0.456-1.72-1.028-1.921-1.24l-0.45-2.701c1.205 1.396 3.073 2.984 5.353 2.984zM13.56 19.19c0.644 0.036 1.917 0.235 2.582 0.887l0.306 1.835c-1.472-0.714-3.33-0.98-4.531-1.079l1.643-1.643zM11.152 20.098c-0.22-1.903-0.909-3.443-1.453-4.403l1.796 0.24c0.19 0.141 1.223 0.978 1.313 2.508l-1.655 1.655zM14.866 16.384l-1.132 1.132c-0.141-0.545-0.368-1-0.613-1.365l1.746 0.232zM13.569 15.141c0.474-0.332 1-0.79 1.517-1.405l0.274 1.644-1.79-0.239zM15.646 17.104l0.26 1.562c-0.47-0.216-0.966-0.347-1.397-0.425l1.136-1.136zM16.354 14.896l-0.216-1.294c0.434 0.104 0.893 0.169 1.3 0.21l-1.084 1.084zM17.134 15.616l1.055-1.055c0.038 0.382 0.097 0.81 0.19 1.221l-1.244-0.166zM17.937 16.794c-0.446 0.319-0.812 0.68-1.097 1.015l-0.198-1.188 1.295 0.173zM14.843 12.282c-1.179 1.805-2.596 2.451-3.060 2.62l-1.878-0.25c1.201-0.924 3.156-2.694 4.458-5.247l0.479 2.877zM13.702 5.441l0.337 2.019c-1.441 4.16-5.163 6.658-5.678 6.987l-2.364-0.315c2.055-1.218 5.757-3.952 7.706-8.691zM6.469 15.264l1.866 0.249c0.475 0.69 1.758 2.813 1.823 5.579l-1.86 1.86c0.159-0.734 0.276-1.634 0.276-2.709 0-2.385-1.067-3.983-2.105-4.979zM11.226 23.426c-0.807 0-1.519 0.094-2.13 0.228l1.814-1.814c0.851 0.026 4.050 0.207 5.764 1.435l0.486 2.919c-1.251-1.268-3.287-2.768-5.935-2.768zM18.234 26.18l-0.618-3.709c0.51-0.886 1.12-1.687 1.824-2.38l-0.744-0.756c-0.489 0.481-0.934 1.014-1.339 1.582l-0.273-1.637c0.264-0.446 1.198-1.841 2.751-2.233l1.771 0.236c-0.492 0.235-1.032 0.539-1.591 0.937l0.616 0.864c1.589-1.134 3.028-1.434 3.331-1.487l1.722 0.23c-2.199 1.085-5.78 3.519-7.452 8.353z"></path>
</symbol>
<symbol id="icon-square" viewBox="0 0 32 32">
<path d="M28 2c1.105 0 2 0.895 2 2v0 24c0 1.105-0.895 2-2 2v0h-24c-1.105 0-2-0.895-2-2v0-24c0-1.105 0.895-2 2-2v0h24zM4 0c-2.209 0-4 1.791-4 4v0 24c0 2.209 1.791 4 4 4v0h24c2.209 0 4-1.791 4-4v0-24c0-2.209-1.791-4-4-4v0h-24z"></path>
</symbol>
<symbol id="icon-star" viewBox="0 0 32 32">
<path d="M5.732 29.7c-0.156 0.888 0.72 1.582 1.492 1.186l8.78-4.512 8.778 4.512c0.772 0.396 1.648-0.298 1.492-1.184l-1.66-9.46 7.044-6.712c0.66-0.628 0.32-1.776-0.564-1.9l-9.796-1.392-4.368-8.654c-0.169-0.349-0.52-0.586-0.927-0.586s-0.758 0.237-0.924 0.58l-0.003 0.006-4.368 8.656-9.796 1.392c-0.882 0.124-1.224 1.272-0.566 1.9l7.046 6.712-1.66 9.46zM15.542 24.166l-7.372 3.788 1.388-7.914c0.011-0.060 0.018-0.128 0.018-0.199 0-0.318-0.132-0.606-0.343-0.811l-0-0-5.812-5.54 8.104-1.152c0.347-0.054 0.634-0.271 0.783-0.57l0.003-0.006 3.69-7.316 3.694 7.316c0.152 0.305 0.439 0.522 0.78 0.575l0.006 0.001 8.104 1.15-5.812 5.54c-0.212 0.206-0.344 0.493-0.344 0.812 0 0.071 0.006 0.14 0.019 0.207l-0.001-0.007 1.388 7.914-7.372-3.788c-0.134-0.070-0.293-0.112-0.461-0.112s-0.327 0.041-0.467 0.114l0.006-0.003z"></path>
</symbol>
<symbol id="icon-star-half" viewBox="0 0 32 32">
<path d="M10.708 10.238l4.368-8.654c0.17-0.347 0.519-0.582 0.924-0.584h0c0.366 0 0.732 0.194 0.93 0.584l4.368 8.654 9.796 1.392c0.5 0.081 0.881 0.497 0.906 1.008l0 0.002c0.002 0.028 0.004 0.060 0.004 0.093 0 0.314-0.132 0.597-0.343 0.797l-0.001 0.001-7.046 6.712 1.66 9.46c0.156 0.886-0.72 1.58-1.492 1.184l-8.782-4.512-8.778 4.512c-0.084 0.045-0.182 0.080-0.286 0.099l-0.006 0.001c-0.684 0.12-1.336-0.508-1.2-1.284l1.66-9.46-7.044-6.712c-0.212-0.201-0.344-0.485-0.344-0.799 0-0.002 0-0.005 0-0.007v0c0-0.223 0.063-0.432 0.173-0.609l-0.003 0.005c0.158-0.262 0.424-0.445 0.735-0.489l0.005-0.001 9.796-1.392zM16 24.054c0.001 0 0.003 0 0.004 0 0.168 0 0.326 0.041 0.465 0.115l-0.005-0.003 7.372 3.788-1.388-7.914c-0.011-0.060-0.018-0.129-0.018-0.2 0-0.317 0.131-0.604 0.342-0.81l0-0 5.814-5.54-8.104-1.152c-0.347-0.054-0.634-0.271-0.783-0.57l-0.003-0.006-3.694-7.316-0.002 0.006v19.6z"></path>
</symbol>
<symbol id="icon-stars" viewBox="0 0 32 32">
<path d="M15.314 12.494c0.22-0.66 1.152-0.66 1.372 0l1.29 3.874c0.589 1.73 1.927 3.068 3.617 3.644l0.041 0.012 3.872 1.29c0.66 0.22 0.66 1.152 0 1.372l-3.874 1.29c-1.73 0.589-3.068 1.927-3.644 3.617l-0.012 0.041-1.29 3.872c-0.098 0.291-0.368 0.497-0.686 0.497s-0.588-0.206-0.684-0.492l-0.002-0.005-1.29-3.874c-0.589-1.73-1.926-3.067-3.615-3.644l-0.041-0.012-3.874-1.29c-0.291-0.098-0.497-0.368-0.497-0.686s0.206-0.588 0.492-0.684l0.005-0.002 3.874-1.29c1.73-0.589 3.067-1.926 3.644-3.615l0.012-0.041 1.29-3.874zM7.588 2.296c0.059-0.174 0.221-0.298 0.412-0.298s0.353 0.123 0.411 0.295l0.001 0.003 0.774 2.324c0.346 1.036 1.158 1.848 2.194 2.194l2.324 0.774c0.174 0.059 0.298 0.221 0.298 0.412s-0.123 0.353-0.295 0.411l-0.003 0.001-2.324 0.774c-1.038 0.353-1.841 1.156-2.187 2.17l-0.007 0.024-0.774 2.324c-0.059 0.174-0.221 0.298-0.412 0.298s-0.353-0.123-0.411-0.295l-0.001-0.003-0.774-2.324c-0.353-1.038-1.156-1.841-2.17-2.187l-0.024-0.007-2.324-0.774c-0.174-0.059-0.298-0.221-0.298-0.412s0.123-0.353 0.295-0.411l0.003-0.001 2.324-0.774c1.038-0.353 1.841-1.156 2.187-2.17l0.007-0.024 0.774-2.324zM21.726 0.198c0.041-0.114 0.148-0.195 0.274-0.195s0.233 0.081 0.273 0.193l0.001 0.002 0.516 1.548c0.23 0.692 0.772 1.234 1.464 1.464l1.548 0.516c0.114 0.041 0.195 0.148 0.195 0.274s-0.081 0.233-0.193 0.273l-0.002 0.001-1.548 0.516c-0.693 0.235-1.229 0.771-1.459 1.448l-0.005 0.016-0.516 1.548c-0.041 0.114-0.148 0.195-0.274 0.195s-0.233-0.081-0.273-0.193l-0.001-0.002-0.516-1.548c-0.235-0.693-0.771-1.229-1.448-1.459l-0.016-0.005-1.546-0.516c-0.114-0.041-0.195-0.148-0.195-0.274s0.081-0.233 0.193-0.273l0.002-0.001 1.548-0.516c0.692-0.23 1.234-0.772 1.464-1.464l0.514-1.546z"></path>
</symbol>
<symbol id="icon-sun-fill" viewBox="0 0 32 32">
<path d="M16 24c4.418 0 8-3.582 8-8s-3.582-8-8-8v0c-4.418 0-8 3.582-8 8s3.582 8 8 8v0zM16 0c0.552 0 1 0.448 1 1v0 4c0 0.552-0.448 1-1 1s-1-0.448-1-1v0-4c0-0.552 0.448-1 1-1v0zM16 26c0.552 0 1 0.448 1 1v0 4c0 0.552-0.448 1-1 1s-1-0.448-1-1v0-4c0-0.552 0.448-1 1-1v0zM32 16c0 0.552-0.448 1-1 1v0h-4c-0.552 0-1-0.448-1-1s0.448-1 1-1v0h4c0.552 0 1 0.448 1 1v0zM6 16c0 0.552-0.448 1-1 1v0h-4c-0.552 0-1-0.448-1-1s0.448-1 1-1v0h4c0.552 0 1 0.448 1 1v0zM27.314 4.686c0.181 0.181 0.293 0.431 0.293 0.707s-0.112 0.526-0.293 0.707l-2.828 2.83c-0.181 0.181-0.431 0.293-0.707 0.293-0.553 0-1.001-0.448-1.001-1.001 0-0.277 0.112-0.527 0.294-0.708v0l2.828-2.828c0.181-0.181 0.431-0.293 0.707-0.293s0.526 0.112 0.707 0.293v0zM8.928 23.072c0.181 0.181 0.293 0.431 0.293 0.707s-0.112 0.526-0.293 0.707l-2.828 2.828c-0.18 0.174-0.425 0.281-0.695 0.281-0.552 0-1-0.448-1-1 0-0.27 0.107-0.515 0.281-0.695l2.828-2.828c0.181-0.181 0.431-0.293 0.707-0.293s0.526 0.112 0.707 0.293v0zM27.314 27.314c-0.181 0.181-0.431 0.293-0.707 0.293s-0.526-0.112-0.707-0.293l-2.828-2.828c-0.174-0.18-0.281-0.425-0.281-0.695 0-0.552 0.448-1 1-1 0.27 0 0.515 0.107 0.695 0.281l2.828 2.828c0.181 0.181 0.293 0.431 0.293 0.707s-0.112 0.526-0.293 0.707v0zM8.928 8.93c-0.181 0.181-0.431 0.293-0.707 0.293s-0.526-0.112-0.707-0.293v0l-2.828-2.83c-0.188-0.182-0.305-0.437-0.305-0.719 0-0.552 0.448-1 1-1 0.282 0 0.537 0.117 0.719 0.305l2.828 2.828c0.181 0.181 0.294 0.431 0.294 0.708s-0.112 0.527-0.294 0.708l-0 0z"></path>
</symbol>
<symbol id="icon-trash3-fill" viewBox="0 0 32 32">
<path d="M22 3v2h7c0.552 0 1 0.448 1 1s-0.448 1-1 1v0h-1.076l-1.706 21.32c-0.171 2.067-1.891 3.68-3.987 3.68-0 0-0.001 0-0.001 0h-12.46c-0 0-0.001 0-0.001 0-2.096 0-3.816-1.613-3.986-3.666l-0.001-0.014-1.706-21.32h-1.076c-0.552 0-1-0.448-1-1s0.448-1 1-1v0h7v-2c0-1.657 1.343-3 3-3v0h6c1.657 0 3 1.343 3 3v0zM12 3v2h8v-2c0-0.552-0.448-1-1-1v0h-6c-0.552 0-1 0.448-1 1v0zM9 10.058l1 17c0.022 0.535 0.461 0.96 0.999 0.96 0.552 0 1-0.448 1-1 0-0.028-0.001-0.056-0.003-0.083l0 0.004-1-17c-0.022-0.535-0.461-0.96-0.999-0.96-0.552 0-1 0.448-1 1 0 0.028 0.001 0.056 0.003 0.083l-0-0.004zM22.060 9.002c-0.017-0.001-0.037-0.002-0.058-0.002-0.532 0-0.967 0.415-0.998 0.939l-0 0.003-1 17c-0 0.010-0.001 0.021-0.001 0.033 0 0.552 0.448 1 1 1 0.523 0 0.952-0.402 0.996-0.913l0-0.004 1-17c0.001-0.017 0.002-0.037 0.002-0.058 0-0.532-0.415-0.967-0.939-0.998l-0.003-0zM16 9c-0.552 0-1 0.448-1 1v0 17c0 0.552 0.448 1 1 1s1-0.448 1-1v0-17c0-0.552-0.448-1-1-1v0z"></path>
</symbol>
<symbol id="icon-triangle" viewBox="0 0 32 32">
<path d="M15.876 4.032c0.036-0.020 0.079-0.032 0.125-0.032 0.001 0 0.002 0 0.003 0h-0c0 0 0.001 0 0.001 0 0.046 0 0.089 0.012 0.126 0.033l-0.001-0.001c0.046 0.028 0.082 0.066 0.107 0.112l0.001 0.002 13.714 23.334c0.072 0.12 0.070 0.248 0.004 0.366-0.026 0.049-0.063 0.089-0.107 0.119l-0.001 0.001c-0.035 0.021-0.076 0.034-0.121 0.034-0.004 0-0.008-0-0.011-0l0.001 0h-27.424c-0.003 0-0.007 0-0.011 0-0.045 0-0.086-0.013-0.122-0.035l0.001 0.001c-0.045-0.031-0.082-0.071-0.107-0.118l-0.001-0.002c-0.031-0.051-0.049-0.113-0.049-0.18 0-0.069 0.020-0.133 0.054-0.188l-0.001 0.001 13.712-23.334c0.026-0.048 0.062-0.086 0.107-0.113l0.001-0.001zM17.964 3.132c-0.397-0.683-1.126-1.135-1.96-1.135s-1.563 0.452-1.954 1.124l-0.006 0.011-13.714 23.334c-0.914 1.556 0.182 3.534 1.96 3.534h27.426c1.778 0 2.876-1.98 1.96-3.534l-13.712-23.334z"></path>
</symbol>
<symbol id="icon-wifi-off" viewBox="0 0 32 32">
<path d="M21.412 6.588c-1.623-0.374-3.486-0.588-5.4-0.588-0.004 0-0.008 0-0.013 0h0.001c-5.482 0-10.554 1.764-14.674 4.758-0.237 0.179-0.389 0.46-0.389 0.777 0 0.272 0.112 0.519 0.293 0.695l0 0c0.187 0.184 0.444 0.298 0.727 0.298 0.229 0 0.44-0.074 0.612-0.2l-0.003 0.002c3.713-2.706 8.367-4.33 13.399-4.33 0.012 0 0.025 0 0.037 0h-0.002c1.26 0 2.498 0.1 3.704 0.296l1.708-1.708zM16 12c-3.81 0-7.36 1.12-10.332 3.052-0.257 0.175-0.423 0.466-0.423 0.796 0 0.273 0.114 0.519 0.297 0.694l0 0c0.189 0.185 0.448 0.299 0.733 0.299 0.212 0 0.41-0.063 0.575-0.171l-0.004 0.002c2.001-1.3 4.379-2.202 6.936-2.531l0.084-0.009 2.134-2.132zM21.192 14.808l1.57-1.57c1.26 0.48 2.454 1.090 3.57 1.814 0.255 0.176 0.421 0.467 0.421 0.796 0 0.272-0.113 0.518-0.294 0.693l-0 0c-0.189 0.185-0.448 0.299-0.733 0.299-0.212 0-0.41-0.063-0.575-0.171l0.004 0.002c-1.139-0.741-2.45-1.373-3.84-1.83l-0.12-0.034zM16 20l1.866-1.866c1.503 0.22 2.859 0.666 4.098 1.308l-0.072-0.034c0.57 0.29 0.652 1.048 0.2 1.5l-0.030 0.030c-0.191 0.184-0.451 0.297-0.737 0.297-0.177 0-0.344-0.043-0.491-0.12l0.006 0.003c-1.407-0.705-3.066-1.118-4.822-1.118-0.006 0-0.013 0-0.019 0h0.001zM25.81 10.19l1.494-1.494c1.18 0.6 2.306 1.29 3.37 2.060 0.237 0.179 0.389 0.46 0.389 0.777 0 0.273-0.113 0.52-0.295 0.697l-0 0c-0.187 0.184-0.444 0.298-0.727 0.298-0.229 0-0.44-0.074-0.612-0.2l0.003 0.002c-1.046-0.765-2.234-1.477-3.484-2.080l-0.138-0.060zM18.040 23.56c0.476 0.28 0.472 0.928 0.080 1.32l-1.414 1.412c-0.181 0.181-0.431 0.293-0.707 0.293s-0.526-0.112-0.707-0.293l-1.414-1.414c-0.39-0.39-0.394-1.036 0.080-1.32 0.581-0.351 1.282-0.558 2.032-0.558 0.003 0 0.007 0 0.010 0h-0.001c0.748 0 1.446 0.204 2.042 0.56zM26.75 3.75c0.192-0.192 0.457-0.311 0.75-0.311 0.586 0 1.061 0.475 1.061 1.061 0 0.293-0.119 0.558-0.311 0.75l-21.5 21.5c-0.192 0.192-0.457 0.311-0.75 0.311-0.586 0-1.061-0.475-1.061-1.061 0-0.293 0.119-0.558 0.311-0.75l21.5-21.5z"></path>
</symbol>
<symbol id="icon-wrench-adjustable-circle" viewBox="0 0 32 32">
<path d="M24.992 16c0 0.003 0 0.007 0 0.010 0 2.846-1.323 5.382-3.388 7.028l-0.018 0.014-2.592-6.052 5.918-2.22c0.054 0.4 0.080 0.806 0.080 1.22z"></path>
<path d="M32 16c0 8.837-7.163 16-16 16s-16-7.163-16-16v0c0-8.837 7.163-16 16-16s16 7.163 16 16v0zM30 16c-0.004-7.729-6.27-13.994-14-13.994-7.732 0-14 6.268-14 14 0 2.373 0.591 4.609 1.633 6.567l-0.037-0.076 3.976-3.314c-0.37-0.947-0.585-2.044-0.585-3.191 0-4.971 4.029-9 9-9 2.635 0 5.006 1.133 6.652 2.938l0.006 0.007-7.652 3.062 2 5 2.666 6.22c-1.12 0.502-2.36 0.78-3.666 0.78-0.003 0-0.006 0-0.009 0-1.141 0-2.232-0.213-3.236-0.601l0.061 0.021-3.316 3.98c1.887 1.010 4.127 1.604 6.506 1.604 7.732 0 14-6.268 14-14 0-0.001 0-0.003 0-0.004v0zM13.41 16.278c0.053-0.078 0.085-0.175 0.085-0.279 0-0.276-0.224-0.5-0.5-0.5-0.058 0-0.113 0.010-0.164 0.028l0.004-0.001-3 1 0.318 0.948 1.616-0.54-1.19 1.788c-0.053 0.078-0.084 0.174-0.084 0.278 0 0.276 0.224 0.5 0.5 0.5 0.057 0 0.111-0.009 0.162-0.027l-0.004 0.001 1.616-0.54-1.19 1.788c-0.053 0.078-0.084 0.174-0.084 0.278 0 0.276 0.224 0.5 0.5 0.5 0.057 0 0.111-0.009 0.162-0.027l-0.004 0.001 3-1-0.318-0.948-1.616 0.54 1.192-1.788c0.053-0.078 0.085-0.175 0.085-0.279 0-0.276-0.224-0.5-0.5-0.5-0.058 0-0.113 0.010-0.164 0.028l0.004-0.001-1.616 0.54 1.192-1.788z"></path>
</symbol>
<symbol id="icon-x" viewBox="0 0 32 32">
<path d="M9.292 9.292c0.181-0.181 0.431-0.294 0.708-0.294s0.527 0.112 0.708 0.294l5.292 5.294 5.292-5.294c0.181-0.181 0.431-0.293 0.708-0.293 0.553 0 1.001 0.448 1.001 1.001 0 0.277-0.112 0.527-0.293 0.708v0l-5.294 5.292 5.294 5.292c0.181 0.181 0.293 0.431 0.293 0.708 0 0.553-0.448 1.001-1.001 1.001-0.276 0-0.527-0.112-0.708-0.293v0l-5.292-5.294-5.292 5.294c-0.181 0.181-0.431 0.293-0.708 0.293-0.553 0-1.001-0.448-1.001-1.001 0-0.276 0.112-0.527 0.293-0.708v0l5.294-5.292-5.294-5.292c-0.181-0.181-0.294-0.431-0.294-0.708s0.112-0.527 0.294-0.708l0-0z"></path>
</symbol>
<symbol id="icon-x-circle-fill" viewBox="0 0 32 32">
<path d="M32 16c0 8.837-7.163 16-16 16s-16-7.163-16-16v0c0-8.837 7.163-16 16-16s16 7.163 16 16v0zM10.708 9.292c-0.181-0.181-0.431-0.293-0.708-0.293-0.553 0-1.001 0.448-1.001 1.001 0 0.277 0.112 0.527 0.293 0.708v0l5.294 5.292-5.294 5.292c-0.181 0.181-0.293 0.431-0.293 0.708 0 0.553 0.448 1.001 1.001 1.001 0.277 0 0.527-0.112 0.708-0.293v0l5.292-5.294 5.292 5.294c0.181 0.181 0.431 0.293 0.708 0.293 0.553 0 1.001-0.448 1.001-1.001 0-0.276-0.112-0.527-0.293-0.708v0l-5.294-5.292 5.294-5.292c0.181-0.181 0.293-0.431 0.293-0.708 0-0.553-0.448-1.001-1.001-1.001-0.276 0-0.527 0.112-0.708 0.293v0l-5.292 5.294-5.292-5.294z"></path>
</symbol>
<symbol id="icon-zoom-in" viewBox="0 0 32 32">
<path d="M13 24c6.075 0 11-4.925 11-11s-4.925-11-11-11v0c-6.075 0-11 4.925-11 11s4.925 11 11 11v0zM26 13c0 7.18-5.82 13-13 13s-13-5.82-13-13v0c0-7.18 5.82-13 13-13s13 5.82 13 13v0z"></path>
<path d="M20.688 23.484c0.060 0.080 0.124 0.156 0.196 0.23l7.7 7.7c0.362 0.362 0.862 0.586 1.415 0.586 1.105 0 2-0.896 2-2 0-0.552-0.224-1.052-0.585-1.414l-7.7-7.7c-0.070-0.071-0.145-0.136-0.225-0.196l-0.005-0.004c-0.796 1.078-1.719 2.002-2.761 2.775l-0.035 0.025z"></path>
<path d="M13 6c0.552 0 1 0.448 1 1v0 5h5c0.552 0 1 0.448 1 1s-0.448 1-1 1v0h-5v5c0 0.552-0.448 1-1 1s-1-0.448-1-1v0-5h-5c-0.552 0-1-0.448-1-1s0.448-1 1-1v0h5v-5c0-0.552 0.448-1 1-1v0z"></path>
</symbol>
<symbol id="icon-zoom-out" viewBox="0 0 32 32">
<path d="M13 24c6.075 0 11-4.925 11-11s-4.925-11-11-11v0c-6.075 0-11 4.925-11 11s4.925 11 11 11v0zM26 13c0 7.18-5.82 13-13 13s-13-5.82-13-13v0c0-7.18 5.82-13 13-13s13 5.82 13 13v0z"></path>
<path d="M20.688 23.484c0.060 0.080 0.124 0.156 0.196 0.23l7.7 7.7c0.362 0.362 0.862 0.586 1.415 0.586 1.105 0 2-0.896 2-2 0-0.552-0.224-1.052-0.585-1.414l-7.7-7.7c-0.070-0.071-0.145-0.136-0.225-0.196l-0.005-0.004c-0.796 1.078-1.719 2.002-2.761 2.775l-0.035 0.025z"></path>
<path d="M6 13c0-0.552 0.448-1 1-1v0h12c0.552 0 1 0.448 1 1s-0.448 1-1 1v0h-12c-0.552 0-1-0.448-1-1v0z"></path>
</symbol>
</defs>
</svg>
