<svg aria-hidden="true" style="position: absolute; width: 0; height: 0; overflow: hidden;" version="1.1" xmlns="http://www.w3.org/2000/svg" xmlns:xlink="http://www.w3.org/1999/xlink">
<defs>
<symbol id="icon-square" viewBox="0 0 32 32">
<path d="M28 2c1.105 0 2 0.895 2 2v0 24c0 1.105-0.895 2-2 2v0h-24c-1.105 0-2-0.895-2-2v0-24c0-1.105 0.895-2 2-2v0h24zM4 0c-2.209 0-4 1.791-4 4v0 24c0 2.209 1.791 4 4 4v0h24c2.209 0 4-1.791 4-4v0-24c0-2.209-1.791-4-4-4v0h-24z"></path>
</symbol>
<symbol id="icon-chevron-double-left" viewBox="0 0 32 32">
<path d="M16.708 3.292c0.181 0.181 0.294 0.431 0.294 0.708s-0.112 0.527-0.294 0.708l-11.294 11.292 11.294 11.292c0.181 0.181 0.293 0.431 0.293 0.708 0 0.553-0.448 1.001-1.001 1.001-0.277 0-0.527-0.112-0.708-0.293v0l-12-12c-0.181-0.181-0.294-0.431-0.294-0.708s0.112-0.527 0.294-0.708l12-12c0.181-0.181 0.431-0.294 0.708-0.294s0.527 0.112 0.708 0.294l0 0z"></path>
<path d="M24.708 3.292c0.181 0.181 0.294 0.431 0.294 0.708s-0.112 0.527-0.294 0.708l-11.294 11.292 11.294 11.292c0.181 0.181 0.293 0.431 0.293 0.708 0 0.553-0.448 1.001-1.001 1.001-0.276 0-0.527-0.112-0.708-0.293v0l-12-12c-0.181-0.181-0.294-0.431-0.294-0.708s0.112-0.527 0.294-0.708l12-12c0.181-0.181 0.431-0.294 0.708-0.294s0.527 0.112 0.708 0.294l0 0z"></path>
</symbol>
<symbol id="icon-chevron-double-right" viewBox="0 0 32 32">
<path d="M7.292 3.292c0.181-0.181 0.431-0.294 0.708-0.294s0.527 0.112 0.708 0.294l12 12c0.181 0.181 0.294 0.431 0.294 0.708s-0.112 0.527-0.294 0.708l-12 12c-0.181 0.181-0.431 0.293-0.708 0.293-0.553 0-1.001-0.448-1.001-1.001 0-0.276 0.112-0.527 0.293-0.708v0l11.294-11.292-11.294-11.292c-0.181-0.181-0.294-0.431-0.294-0.708s0.112-0.527 0.294-0.708l0-0z"></path>
<path d="M15.292 3.292c0.181-0.181 0.431-0.294 0.708-0.294s0.527 0.112 0.708 0.294l12 12c0.181 0.181 0.294 0.431 0.294 0.708s-0.112 0.527-0.294 0.708l-12 12c-0.181 0.181-0.431 0.293-0.708 0.293-0.553 0-1.001-0.448-1.001-1.001 0-0.276 0.112-0.527 0.293-0.708v0l11.294-11.292-11.294-11.292c-0.181-0.181-0.294-0.431-0.294-0.708s0.112-0.527 0.294-0.708l0-0z"></path>
</symbol>
<symbol id="icon-circle" viewBox="0 0 32 32">
<path d="M16 30c-7.732 0-14-6.268-14-14s6.268-14 14-14v0c7.732 0 14 6.268 14 14s-6.268 14-14 14v0zM16 32c8.837 0 16-7.163 16-16s-7.163-16-16-16v0c-8.837 0-16 7.163-16 16s7.163 16 16 16v0z"></path>
</symbol>
<symbol id="icon-crop" viewBox="0 0 32 32">
<path d="M7 1c0.552 0 1 0.448 1 1v0 26h26c0.552 0 1 0.448 1 1s-0.448 1-1 1v0h-4v4c0 0.552-0.448 1-1 1s-1-0.448-1-1v0-4h-21c-0.552 0-1-0.448-1-1v0-21h-4c-0.552 0-1-0.448-1-1s0.448-1 1-1v0h4v-4c0-0.552 0.448-1 1-1v0zM12 7c0-0.552 0.448-1 1-1v0h16c0.552 0 1 0.448 1 1v0 16c0 0.552-0.448 1-1 1s-1-0.448-1-1v0-15h-15c-0.552 0-1-0.448-1-1v0z"></path>
</symbol>
<symbol id="icon-cursor" viewBox="0 0 32 32">
<path d="M28.164 4.364c0.181 0.181 0.293 0.431 0.293 0.707 0 0.147-0.032 0.287-0.089 0.413l0.003-0.006-11.314 25.456c-0.16 0.353-0.509 0.594-0.914 0.594-0.411 0-0.764-0.248-0.918-0.602l-0.002-0.006-4.082-9.532-9.534-4.084c-0.359-0.157-0.605-0.509-0.605-0.919 0-0.405 0.241-0.754 0.587-0.911l0.006-0.003 25.456-11.314c0.119-0.054 0.259-0.086 0.406-0.086 0.276 0 0.525 0.112 0.706 0.292l-0-0zM4.5 16.368l7.794 3.34c0.236 0.104 0.421 0.289 0.521 0.52l0.002 0.006 3.34 7.794 9.328-20.988-20.986 9.328z"></path>
</symbol>
<symbol id="icon-hourglass-split" viewBox="0 0 32 32">
<path d="M5 30c-0.552 0-1-0.448-1-1s0.448-1 1-1v0h2v-2c0-0.001 0-0.001 0-0.002 0-3.558 2.064-6.633 5.061-8.094l0.053-0.023c0.58-0.278 0.886-0.754 0.886-1.18v-1.4c0-0.426-0.308-0.902-0.886-1.18-3.050-1.484-5.114-4.56-5.114-8.118 0-0.001 0-0.002 0-0.002v0-2h-2c-0.552 0-1-0.448-1-1s0.448-1 1-1v0h22c0.552 0 1 0.448 1 1s-0.448 1-1 1v0h-2v2c0 0.001 0 0.001 0 0.002 0 3.558-2.064 6.633-5.061 8.094l-0.053 0.023c-0.58 0.278-0.886 0.754-0.886 1.18v1.4c0 0.426 0.308 0.902 0.886 1.18 3.050 1.484 5.114 4.56 5.114 8.118 0 0.001 0 0.002 0 0.002v-0 2h2c0.552 0 1 0.448 1 1s-0.448 1-1 1v0h-22zM9 4v2c0 1.074 0.24 2.090 0.674 3h12.652c0.432-0.91 0.674-1.926 0.674-3v-2h-14zM15 16.7c0 1.402-0.956 2.472-2.022 2.984-2.372 1.154-3.978 3.547-3.978 6.314 0 0.001 0 0.001 0 0.002v-0s1.732-2.598 6-2.96v-6.34zM17 16.7v6.34c4.268 0.362 6 2.96 6 2.96s0-0.001 0-0.002c0-2.767-1.606-5.16-3.937-6.296l-0.041-0.018c-1.066-0.512-2.022-1.58-2.022-2.982z"></path>
</symbol>
<symbol id="icon-images" viewBox="0 0 32 32">
<path d="M9.004 18c1.657 0 3-1.343 3-3s-1.343-3-3-3v0c-1.657 0-3 1.343-3 3s1.343 3 3 3v0z"></path>
<path d="M28.004 26c0 2.209-1.791 4-4 4v0h-20c-2.209 0-4-1.791-4-4v0-16c0-2.208 1.789-3.998 3.996-4h0c0-2.209 1.791-4 4-4v0h20c2.209 0 4 1.791 4 4v0 16c0 2.208-1.789 3.998-3.996 4h-0zM28 4h-20c-1.105 0-2 0.895-2 2v0h18.004c2.209 0 4 1.791 4 4v0 14c1.103-0.002 1.996-0.897 1.996-2 0 0 0 0 0 0v0-16c0-1.105-0.895-2-2-2v0zM4.004 8c-1.105 0-2 0.895-2 2v0 16l5.292-4.708c0.181-0.18 0.43-0.292 0.706-0.292 0.207 0 0.398 0.063 0.558 0.17l-0.004-0.002 5.32 3.546 7.42-7.42c0.181-0.181 0.431-0.293 0.707-0.293 0.163 0 0.316 0.039 0.452 0.108l-0.006-0.003 3.554 3.894v-11c0-1.105-0.895-2-2-2v0h-20z"></path>
</symbol>
<symbol id="icon-pause-fill" viewBox="0 0 32 32">
<path d="M11 7c1.657 0 3 1.343 3 3v0 12c0 1.657-1.343 3-3 3s-3-1.343-3-3v0-12c0-1.657 1.343-3 3-3v0zM21 7c1.657 0 3 1.343 3 3v0 12c0 1.657-1.343 3-3 3s-3-1.343-3-3v0-12c0-1.657 1.343-3 3-3v0z"></path>
</symbol>
<symbol id="icon-person-circle" viewBox="0 0 32 32">
<path d="M22 12c0 3.314-2.686 6-6 6s-6-2.686-6-6v0c0-3.314 2.686-6 6-6s6 2.686 6 6v0z"></path>
<path d="M0 16c0-8.837 7.163-16 16-16s16 7.163 16 16v0c0 8.837-7.163 16-16 16s-16-7.163-16-16v0zM16 2c-7.732 0-13.999 6.268-13.999 14 0 3.319 1.155 6.368 3.084 8.767l-0.021-0.027c1.42-2.288 4.546-4.74 10.936-4.74s9.514 2.45 10.936 4.74c1.909-2.372 3.063-5.421 3.063-8.74 0-7.732-6.268-14-13.999-14h-0z"></path>
</symbol>
<symbol id="icon-pip" viewBox="0 0 32 32">
<path d="M0 7c0-1.657 1.343-3 3-3v0h26c1.657 0 3 1.343 3 3v0 18c0 1.657-1.343 3-3 3v0h-26c-1.657 0-3-1.343-3-3v0-18zM3 6c-0.552 0-1 0.448-1 1v0 18c0 0.552 0.448 1 1 1v0h26c0.552 0 1-0.448 1-1v0-18c0-0.552-0.448-1-1-1v0h-26z"></path>
<path d="M16 17c0-0.552 0.448-1 1-1v0h10c0.552 0 1 0.448 1 1v0 6c0 0.552-0.448 1-1 1v0h-10c-0.552 0-1-0.448-1-1v0-6z"></path>
</symbol>
<symbol id="icon-play-fill" viewBox="0 0 32 32">
<path d="M23.192 17.394l-12.726 7.384c-1.080 0.626-2.466-0.132-2.466-1.394v-14.768c0-1.26 1.384-2.020 2.466-1.392l12.726 7.384c0.487 0.282 0.809 0.8 0.809 1.393s-0.322 1.111-0.801 1.389l-0.008 0.004z"></path>
</symbol>
<symbol id="icon-plus-circle" viewBox="0 0 32 32">
<path d="M16 30c-7.732 0-14-6.268-14-14s6.268-14 14-14v0c7.732 0 14 6.268 14 14s-6.268 14-14 14v0zM16 32c8.837 0 16-7.163 16-16s-7.163-16-16-16v0c-8.837 0-16 7.163-16 16s7.163 16 16 16v0z"></path>
<path d="M16 8c0.552 0 1 0.448 1 1v0 6h6c0.552 0 1 0.448 1 1s-0.448 1-1 1v0h-6v6c0 0.552-0.448 1-1 1s-1-0.448-1-1v0-6h-6c-0.552 0-1-0.448-1-1s0.448-1 1-1v0h6v-6c0-0.552 0.448-1 1-1v0z"></path>
</symbol>
<symbol id="icon-question-diamond" viewBox="0 0 32 32">
<path d="M13.9 0.87c1.16-1.16 3.040-1.16 4.2 0l13.030 13.032c1.16 1.16 1.16 3.038 0 4.196l-13.030 13.032c-1.16 1.16-3.038 1.16-4.196 0l-13.034-13.030c-0.538-0.537-0.87-1.278-0.87-2.098s0.333-1.561 0.87-2.098l13.030-13.034zM16.7 2.27c-0.179-0.179-0.427-0.29-0.7-0.29s-0.521 0.111-0.7 0.29l-13.032 13.030c-0.179 0.179-0.29 0.427-0.29 0.7s0.111 0.521 0.29 0.7l13.032 13.032c0.179 0.179 0.427 0.29 0.7 0.29s0.521-0.111 0.7-0.29l13.032-13.032c0.179-0.179 0.29-0.427 0.29-0.7s-0.111-0.521-0.29-0.7l-13.032-13.032z"></path>
<path d="M10.51 11.572c-0 0.006-0 0.013-0 0.020 0 0.262 0.212 0.474 0.474 0.474 0.003 0 0.006-0 0.009-0h1.65c0.276 0 0.496-0.226 0.532-0.5 0.18-1.312 1.080-2.268 2.684-2.268 1.372 0 2.628 0.686 2.628 2.336 0 1.27-0.748 1.854-1.93 2.742-1.346 0.978-2.412 2.12-2.336 3.974l0.006 0.434c0.005 0.273 0.227 0.492 0.5 0.492 0 0 0 0 0 0h1.622c0.276 0 0.5-0.224 0.5-0.5v0-0.21c0-1.436 0.546-1.854 2.020-2.972 1.218-0.926 2.488-1.954 2.488-4.112 0-3.022-2.552-4.482-5.346-4.482-2.534 0-5.31 1.18-5.5 4.572zM13.624 23.098c0 1.066 0.85 1.854 2.020 1.854 1.218 0 2.056-0.788 2.056-1.854 0-1.104-0.84-1.88-2.058-1.88-1.168 0-2.018 0.776-2.018 1.88z"></path>
</symbol>
<symbol id="icon-rulers" viewBox="0 0 32 32">
<path d="M2 0c-1.105 0-2 0.895-2 2v0 28c0 1.105 0.895 2 2 2v0h10v-2h-8v-2h8v-2h-4v-2h4v-2h-8v-2h8v-2h-4v-2h4v-2h-8v-2h8v-8h2v8h2v-4h2v4h2v-8h2v8h2v-4h2v4h2v-8h2v8h2v-10c0-1.105-0.895-2-2-2v0h-28z"></path>
</symbol>
<symbol id="icon-slash-lg" viewBox="0 0 32 32">
<path d="M27.708 4.292c0.181 0.181 0.294 0.431 0.294 0.708s-0.112 0.527-0.294 0.708l-22 22c-0.181 0.181-0.431 0.293-0.708 0.293-0.553 0-1.001-0.448-1.001-1.001 0-0.276 0.112-0.527 0.293-0.708v0l22-22c0.181-0.181 0.431-0.294 0.708-0.294s0.527 0.112 0.708 0.294l0 0z"></path>
</symbol>
<symbol id="icon-suit-heart-fill" viewBox="0 0 32 32">
<path d="M8 2c4.42 0 8 3.51 8 7.84 0-4.33 3.58-7.84 8-7.84s8 3.51 8 7.84c0 6.526-6.468 8.828-15.216 19.216-0.189 0.223-0.47 0.364-0.784 0.364s-0.595-0.141-0.783-0.363l-0.001-0.001c-8.748-10.388-15.216-12.69-15.216-19.216 0-4.33 3.58-7.84 8-7.84z"></path>
</symbol>
<symbol id="icon-trash" viewBox="0 0 32 32">
<path d="M11 11c0.552 0 1 0.448 1 1v0 12c0 0.552-0.448 1-1 1s-1-0.448-1-1v0-12c0-0.552 0.448-1 1-1v0zM16 11c0.552 0 1 0.448 1 1v0 12c0 0.552-0.448 1-1 1s-1-0.448-1-1v0-12c0-0.552 0.448-1 1-1v0zM22 12c0-0.552-0.448-1-1-1s-1 0.448-1 1v0 12c0 0.552 0.448 1 1 1s1-0.448 1-1v0-12z"></path>
<path d="M29 6c0 1.105-0.895 2-2 2v0h-1v18c0 2.209-1.791 4-4 4v0h-12c-2.209 0-4-1.791-4-4v0-18h-1c-1.105 0-2-0.895-2-2v0-2c0-1.105 0.895-2 2-2v0h7c0-1.105 0.895-2 2-2v0h4c1.105 0 2 0.895 2 2v0h7c1.105 0 2 0.895 2 2v0 2zM8.236 8l-0.236 0.118v17.882c0 1.105 0.895 2 2 2v0h12c1.105 0 2-0.895 2-2v0-17.882l-0.236-0.118h-15.528zM5 6v-2h22v2h-22z"></path>
</symbol>
<symbol id="icon-triangle" viewBox="0 0 32 32">
<path d="M15.876 4.032c0.036-0.020 0.079-0.032 0.125-0.032 0.001 0 0.002 0 0.003 0h-0c0 0 0.001 0 0.001 0 0.046 0 0.089 0.012 0.126 0.033l-0.001-0.001c0.046 0.028 0.082 0.066 0.107 0.112l0.001 0.002 13.714 23.334c0.072 0.12 0.070 0.248 0.004 0.366-0.026 0.049-0.063 0.089-0.107 0.119l-0.001 0.001c-0.035 0.021-0.076 0.034-0.121 0.034-0.004 0-0.008-0-0.011-0l0.001 0h-27.424c-0.003 0-0.007 0-0.011 0-0.045 0-0.086-0.013-0.122-0.035l0.001 0.001c-0.045-0.031-0.082-0.071-0.107-0.118l-0.001-0.002c-0.031-0.051-0.049-0.113-0.049-0.18 0-0.069 0.020-0.133 0.054-0.188l-0.001 0.001 13.712-23.334c0.026-0.048 0.062-0.086 0.107-0.113l0.001-0.001zM17.964 3.132c-0.397-0.683-1.126-1.135-1.96-1.135s-1.563 0.452-1.954 1.124l-0.006 0.011-13.714 23.334c-0.914 1.556 0.182 3.534 1.96 3.534h27.426c1.778 0 2.876-1.98 1.96-3.534l-13.712-23.334z"></path>
</symbol>
</defs>
</svg>
