<?xml version="1.0" standalone="no"?>
<!DOCTYPE svg PUBLIC "-//W3C//DTD SVG 20010904//EN"
 "http://www.w3.org/TR/2001/REC-SVG-20010904/DTD/svg10.dtd">
<svg version="1.0" xmlns="http://www.w3.org/2000/svg"
 width="512.000000pt" height="512.000000pt" viewBox="0 0 512.000000 512.000000"
 preserveAspectRatio="xMidYMid meet">
<metadata>
Created by potrace 1.14, written by Peter Selinger 2001-2017
</metadata>
<g transform="translate(0.000000,512.000000) scale(0.100000,-0.100000)"
fill="#000000" stroke="none">
<path d="M2556 4913 c-1 -1 -259 -3 -574 -3 -369 -1 -572 -5 -572 -11 0 -6 -5
-7 -11 -4 -6 4 -17 -1 -25 -11 -9 -11 -13 -13 -9 -6 7 14 -11 17 -20 2 -8 -13
-25 -3 -25 13 0 8 3 8 9 -1 7 -11 9 -11 14 1 8 22 -23 15 -35 -7 -8 -13 -7
-21 3 -27 12 -7 11 -9 -1 -10 -8 -1 -19 -3 -25 -3 -5 -1 -16 -5 -22 -9 -8 -5
-13 -3 -13 6 0 8 -6 17 -13 20 -8 3 -13 -3 -13 -17 0 -15 7 -21 23 -22 13 -1
23 3 23 10 0 6 4 4 10 -4 5 -8 6 -17 2 -20 -9 -7 -32 -48 -32 -57 0 -4 5 -2
12 5 24 24 27 11 3 -14 -14 -16 -31 -24 -42 -21 -14 4 -13 5 5 6 14 1 22 6 19
14 -2 6 -10 11 -17 9 -6 -1 -10 2 -8 8 2 7 7 11 12 10 11 -2 26 22 20 32 -3 4
-11 8 -17 8 -8 0 -8 -3 1 -9 11 -7 10 -10 -3 -15 -21 -8 -37 2 -29 17 3 7 -4
1 -15 -13 -24 -29 -25 -36 -10 -45 6 -5 4 -12 -8 -20 -15 -12 -19 -11 -25 3
-6 16 -7 15 -7 0 -1 -20 -21 -25 -21 -6 0 6 -3 9 -6 5 -3 -3 1 -16 10 -29 15
-21 16 -21 17 -3 0 15 2 16 6 5 3 -8 11 -19 17 -23 7 -6 4 -7 -6 -3 -10 3 -18
1 -18 -5 0 -6 -4 -8 -9 -4 -5 3 -13 0 -17 -6 -4 -7 -3 -9 3 -6 6 4 13 -2 16
-12 3 -12 -1 -22 -10 -25 -20 -8 -23 -8 -23 5 0 5 5 7 12 3 7 -4 8 -3 4 5 -4
6 -12 9 -17 6 -16 -10 -10 -25 14 -35 21 -8 20 -9 -5 -7 -16 1 -28 7 -28 14 0
7 -5 12 -12 10 -7 -1 -12 7 -12 18 0 11 6 19 13 17 7 -1 10 2 6 8 -5 8 -11 8
-21 -1 -7 -6 -11 -15 -8 -20 3 -5 -2 -12 -10 -15 -9 -3 -16 -11 -16 -16 0 -6
6 -6 14 1 12 10 17 8 27 -11 11 -21 11 -22 -4 -9 -13 10 -17 10 -17 1 0 -7 -7
-10 -16 -6 -14 5 -15 4 -4 -9 10 -13 9 -15 -7 -15 -10 0 -28 -6 -38 -14 -17
-12 -17 -16 -6 -30 12 -14 11 -16 -5 -9 -17 6 -18 5 -4 -13 11 -15 11 -16 0
-6 -8 6 -21 12 -30 12 -12 0 -12 -2 -2 -9 10 -6 7 -10 -12 -15 -14 -3 -26 -11
-26 -17 0 -6 5 -7 12 -3 7 4 8 3 4 -4 -4 -7 -14 -12 -22 -12 -8 0 -12 -5 -9
-10 4 -7 14 -6 28 1 21 10 21 10 3 -5 -18 -14 -21 -14 -38 1 -10 9 -21 13 -25
10 -3 -4 0 -7 8 -7 11 0 11 -2 -1 -10 -18 -12 -33 -13 -26 -2 7 12 -38 10 -46
-2 -4 -6 -5 -21 -1 -33 3 -15 1 -23 -8 -23 -7 0 -10 -3 -6 -6 7 -7 43 12 40
22 -1 4 -7 10 -15 15 -11 7 -10 10 1 21 9 8 11 9 7 1 -3 -6 -2 -14 4 -18 6 -4
8 -11 5 -16 -4 -5 -1 -9 6 -9 6 0 9 8 6 19 -3 15 0 17 17 13 11 -3 15 -7 8
-10 -7 -2 -10 -8 -6 -13 3 -5 0 -9 -6 -9 -6 0 -9 -4 -5 -9 3 -6 15 -8 26 -6
16 3 18 1 10 -9 -7 -8 -25 -12 -42 -10 -28 4 -30 2 -18 -13 12 -14 12 -15 0
-9 -10 6 -12 4 -7 -11 3 -10 0 -27 -7 -37 -12 -16 -13 -16 -11 10 1 16 4 36 5
44 3 9 -5 16 -21 18 -24 3 -25 3 -5 -12 19 -15 19 -16 -9 -6 -16 6 -31 8 -34
5 -3 -3 -1 -5 5 -5 6 0 13 -11 15 -24 4 -17 1 -23 -9 -19 -7 3 -10 10 -6 16 3
6 1 7 -6 3 -9 -6 -9 -11 0 -22 10 -12 9 -13 -5 -8 -9 3 -16 14 -16 23 0 13 -2
14 -9 1 -6 -8 -7 -18 -4 -23 3 -5 -4 -4 -16 2 -11 7 -21 17 -21 24 -1 17 -24
-25 -25 -43 0 -8 -9 -15 -20 -15 -11 -1 -25 -4 -32 -8 -6 -4 -19 -4 -30 -1
-14 5 -15 4 -4 -4 11 -8 10 -11 -5 -15 -10 -2 -5 -4 13 -3 18 0 29 5 25 11 -3
6 1 4 10 -2 8 -7 19 -9 23 -5 5 4 5 1 1 -6 -4 -7 -12 -10 -17 -7 -5 4 -9 2 -9
-3 0 -5 -13 -8 -30 -7 -16 1 -27 -2 -25 -6 3 -4 2 -9 -2 -12 -5 -2 -2 -2 5 -1
6 2 12 -2 12 -7 0 -7 -11 -9 -25 -7 -14 3 -25 1 -25 -4 0 -5 -5 -6 -10 -3 -6
3 -10 1 -10 -4 0 -6 5 -11 10 -11 6 0 10 -4 10 -10 0 -15 -19 -12 -36 5 -11
11 -12 15 -3 15 7 0 10 3 6 6 -3 3 -11 3 -17 -1 -8 -5 -8 -10 0 -20 8 -9 8
-15 0 -20 -12 -7 -24 19 -17 38 3 7 -5 13 -20 13 -21 2 -22 0 -8 -10 9 -6 17
-21 18 -33 0 -12 5 -19 9 -17 4 3 8 0 8 -7 0 -7 -8 -9 -21 -6 -16 4 -18 3 -9
-8 14 -17 40 -8 40 14 0 14 2 14 10 1 6 -10 10 -11 10 -2 0 18 27 15 34 -4 5
-14 4 -15 -9 -4 -10 8 -15 9 -15 1 0 -6 -7 -11 -16 -11 -8 0 -13 -4 -9 -9 3
-5 0 -13 -6 -17 -8 -4 -9 -3 -5 4 4 7 2 12 -3 12 -6 0 -11 -6 -11 -12 0 -9 -3
-10 -8 -2 -4 6 -14 11 -22 12 -8 0 -30 3 -47 6 -19 2 -33 0 -33 -5 0 -6 9 -8
19 -4 11 3 22 1 26 -4 4 -7 -1 -8 -11 -4 -12 4 -15 3 -10 -6 4 -6 4 -11 -1
-10 -4 1 -21 -3 -36 -9 -35 -15 -47 -15 -47 -2 0 6 3 9 8 9 28 -5 39 17 18 38
-4 4 -7 4 -6 -2 6 -27 0 -37 -14 -25 -8 6 -12 19 -9 28 8 22 -1 13 -16 -15
-10 -20 -9 -22 6 -16 15 6 16 4 5 -9 -9 -11 -9 -17 -2 -20 13 -4 21 -70 10
-88 -11 -18 -21 17 -15 51 4 19 1 26 -11 26 -12 0 -15 -8 -12 -29 3 -16 1 -31
-4 -34 -4 -3 -8 -11 -8 -17 0 -7 4 -6 10 3 8 13 10 13 10 -2 0 -9 -5 -20 -10
-23 -8 -5 -7 -11 1 -21 8 -9 8 -14 1 -14 -8 0 -11 -360 -12 -1237 0 -681 -2
-1247 -4 -1258 -2 -11 -11 -21 -22 -22 -14 -2 -15 -1 -4 5 8 4 16 20 17 35 2
24 0 27 -12 17 -13 -10 -15 -8 -15 12 0 14 -3 28 -7 31 -11 11 -32 -14 -26
-31 4 -13 3 -14 -5 -3 -8 11 -10 11 -15 0 -4 -10 -6 -9 -6 4 -1 9 4 17 10 17
8 0 7 6 -2 17 -12 14 -12 16 0 8 11 -6 13 -4 8 8 -3 10 -2 17 3 17 6 0 10 -7
10 -16 0 -8 5 -12 11 -9 6 4 8 13 5 21 -3 8 -2 14 3 14 4 0 8 7 8 15 0 8 -4
15 -9 15 -4 0 -8 -7 -8 -16 0 -9 -6 -14 -14 -11 -18 7 -47 -29 -40 -50 5 -17
5 -17 -6 0 -6 9 -17 15 -23 11 -7 -3 -3 2 7 10 11 9 16 16 11 16 -5 0 0 7 11
16 10 8 13 13 7 9 -8 -4 -13 0 -13 10 0 9 -4 14 -10 10 -5 -3 -6 -13 -3 -22 5
-13 2 -15 -15 -11 -25 7 -32 -1 -39 -43 -3 -22 -1 -28 10 -23 8 3 18 0 22 -6
3 -6 3 -10 -2 -9 -4 1 -15 1 -23 0 -13 -1 -13 -2 0 -11 12 -8 12 -10 1 -10
-11 0 -11 -3 0 -17 10 -12 10 -15 1 -9 -10 6 -12 -44 -9 -261 4 -262 10 -338
28 -349 5 -3 9 -11 9 -19 0 -14 78 -182 102 -220 50 -78 76 -110 147 -182 44
-45 104 -100 133 -122 102 -76 314 -168 448 -194 84 -16 3233 -22 3325 -6 264
45 481 159 652 343 75 81 116 141 179 264 46 90 55 115 80 216 21 84 19 680
-1 672 -9 -3 -12 0 -8 10 3 7 9 14 13 14 4 0 7 20 6 44 0 36 -3 41 -13 30 -7
-7 -12 -17 -11 -21 3 -8 -5 -13 -18 -13 -3 0 5 17 17 37 13 20 17 33 11 29 -7
-4 -12 -2 -12 6 0 10 -2 10 -9 -1 -6 -9 -11 -10 -15 -2 -4 6 -4 11 0 11 4 0
-1 7 -12 15 -10 8 -15 15 -10 15 5 0 3 7 -4 15 -10 12 -10 15 1 16 8 0 5 4 -6
9 -28 12 -37 12 -29 -2 4 -6 3 -8 -4 -4 -15 9 -27 -13 -13 -27 6 -6 11 -16 11
-21 0 -6 -5 -4 -10 4 -9 13 -12 13 -25 -4 -13 -18 -14 -18 -12 2 0 11 5 18 9
16 10 -6 10 8 2 30 -5 13 -9 14 -20 5 -9 -7 -14 -8 -14 -1 0 6 6 13 13 15 9 4
8 8 -3 17 -13 10 -12 11 5 6 l20 -6 -20 16 -20 16 20 -4 c11 -2 25 -9 30 -16
9 -11 14 -8 23 13 9 19 16 24 25 17 15 -11 48 -12 41 0 -3 4 0 8 7 8 7 0 9 3
6 6 -4 4 -14 1 -23 -6 -10 -9 -18 -10 -22 -4 -9 13 -50 15 -57 3 -4 -5 -15 -9
-25 -9 -19 0 -19 24 -20 1043 -2 1147 -4 1290 -25 1388 -31 149 -125 320 -241
435 -112 112 -250 191 -414 236 l-85 23 -803 0 c-442 0 -805 -1 -806 -2z
m-1179 -59 c-3 -3 -12 -4 -19 -1 -8 3 -5 6 6 6 11 1 17 -2 13 -5z m-32 -24
c-3 -5 -11 -10 -16 -10 -6 0 -7 5 -4 10 3 6 11 10 16 10 6 0 7 -4 4 -10z
m-135 -70 c0 -21 -15 -27 -25 -10 -7 12 2 30 16 30 5 0 9 -9 9 -20z m-22 -65
c-3 -3 -9 2 -12 12 -6 14 -5 15 5 6 7 -7 10 -15 7 -18z m2849 -27 c-16 -37
-38 -122 -51 -188 -7 -42 -24 -97 -36 -123 -26 -54 -149 -175 -160 -156 -6 8
-9 8 -15 -1 -4 -6 -13 -9 -21 -6 -9 3 -11 0 -7 -12 6 -15 4 -15 -14 1 -14 12
-23 15 -28 7 -13 -20 -23 1 -19 38 8 68 16 94 52 166 40 80 141 188 232 249
58 39 75 45 67 25z m-1642 -203 c176 -46 295 -183 312 -360 4 -48 2 -63 -11
-74 -9 -8 -16 -9 -16 -3 0 6 5 12 12 14 7 3 6 7 -5 11 -10 4 -17 1 -18 -6 -1
-7 -5 -1 -9 13 l-8 25 -1 -25 c-1 -19 -3 -22 -10 -11 -5 8 -17 16 -26 17 -13
2 -14 0 -4 -12 6 -8 7 -14 2 -14 -5 0 -43 33 -85 73 -50 47 -87 94 -109 137
-39 74 -135 182 -179 200 -16 7 -27 16 -24 21 8 14 114 10 179 -6z m2012 -57
c50 -47 17 -132 -51 -132 -54 0 -91 40 -82 88 12 63 86 88 133 44z m-3410 -98
c27 -18 50 -56 58 -103 10 -51 -17 -102 -67 -128 -59 -30 -103 -24 -156 24
-21 20 -49 91 -43 112 2 6 4 17 5 25 4 26 19 55 33 63 7 5 11 12 8 16 -8 14
139 5 162 -9z m933 -5 c58 -30 67 -90 21 -136 -33 -32 -67 -37 -110 -14 -65
33 -53 132 19 158 25 9 40 8 70 -8z m1254 -105 c18 -148 -91 -344 -257 -461
-77 -54 -190 -115 -272 -144 -27 -10 -54 -22 -60 -26 -9 -7 -175 -58 -470
-145 -212 -63 -327 -105 -460 -168 -313 -150 -587 -416 -725 -706 -46 -98 -43
-66 7 65 112 296 364 560 688 722 108 54 307 130 455 173 531 155 724 243 885
404 90 90 149 202 167 319 11 70 13 74 24 49 6 -15 14 -52 18 -82z m-2541 54
c-4 -12 -8 -13 -14 -3 -9 15 -2 32 11 24 5 -3 6 -13 3 -21z m43 -21 c-4 -4
-29 -10 -49 -12 -5 -1 -6 -5 -2 -10 3 -5 1 -12 -4 -15 -18 -11 -5 24 14 38 17
12 54 11 41 -1z m-131 -62 c3 -5 2 -12 -3 -15 -5 -3 -9 1 -9 9 0 17 3 19 12 6z
m2748 -91 c53 -135 56 -350 6 -467 -19 -45 -35 -59 -24 -20 4 12 -15 -21 -42
-74 -55 -108 -146 -225 -230 -296 -32 -26 -66 -56 -77 -65 -38 -34 -234 -148
-342 -199 -373 -175 -491 -240 -649 -359 -364 -274 -543 -614 -547 -1041 -1
-71 -5 -124 -10 -117 -6 10 -8 10 -8 -1 0 -8 -2 -12 -5 -9 -3 3 -1 18 5 34 9
27 9 28 -5 10 -14 -19 -15 -17 -16 25 -1 24 -3 87 -4 139 -4 113 29 328 55
365 18 26 28 76 20 109 -6 26 -4 38 6 47 8 7 12 14 9 17 -2 3 -11 -1 -19 -7
-11 -9 -16 -9 -22 0 -5 8 -3 9 6 4 9 -6 11 -4 5 5 -5 8 -4 11 2 7 12 -7 36 16
27 26 -11 10 -53 -35 -47 -51 4 -10 2 -13 -5 -8 -13 8 -35 -27 -24 -39 4 -5 1
-5 -6 -1 -11 6 -10 12 2 32 9 13 16 29 16 36 -1 33 -57 -106 -94 -232 -26 -91
-36 -168 -36 -277 0 -91 23 -300 35 -311 2 -2 -2 -11 -10 -19 -8 -8 -15 -20
-15 -26 0 -7 5 -4 11 6 6 9 14 15 20 12 15 -10 10 -25 -8 -25 -15 0 -16 -2 -3
-10 9 -6 10 -10 3 -10 -6 0 -15 5 -18 10 -4 6 -11 8 -16 4 -6 -3 -8 5 -5 20 4
23 3 24 -14 13 -12 -7 -15 -14 -9 -18 6 -3 2 -8 -9 -11 -15 -4 -18 -1 -14 17
2 13 -1 26 -7 29 -7 5 -9 1 -4 -11 4 -12 3 -15 -4 -8 -20 19 -64 169 -78 267
-8 54 -15 150 -15 213 0 74 -4 115 -11 115 -5 0 -7 -5 -3 -12 4 -6 3 -8 -4 -4
-6 3 -9 15 -7 26 2 12 0 18 -6 15 -5 -4 -9 1 -9 10 0 10 5 13 13 9 9 -6 9 -5
0 8 -7 8 -10 18 -6 21 3 4 1 7 -5 7 -7 0 -12 -8 -12 -17 0 -10 -3 -64 -7 -120
-6 -110 9 -290 33 -386 8 -33 11 -63 8 -68 -3 -6 -1 -16 5 -23 8 -9 7 -13 -4
-13 -7 0 -14 3 -13 6 3 27 -4 30 -22 10 -16 -20 -19 -21 -20 -7 0 9 4 19 9 23
6 3 9 14 8 25 -1 10 -5 17 -9 14 -4 -3 -5 -12 -2 -22 4 -11 -1 -9 -14 7 -36
44 -82 290 -82 438 0 104 24 287 50 380 79 285 269 555 515 733 201 144 420
234 900 370 137 38 326 110 425 161 170 88 317 228 382 365 28 60 58 187 58
247 0 41 12 27 43 -53z m-988 -11 c45 -23 129 -98 120 -108 -3 -2 -15 1 -28 8
-18 10 -28 9 -52 -3 -18 -10 -56 -16 -94 -16 -60 0 -72 4 -153 50 -48 28 -96
50 -105 50 -27 1 30 30 80 40 69 15 181 5 232 -21z m1956 -15 c30 -9 75 -27
101 -40 60 -30 174 -136 198 -184 l19 -37 -42 15 c-30 11 -88 16 -207 17 -93
1 -191 8 -225 15 -66 15 -260 19 -313 8 l-33 -8 18 31 c26 45 79 105 115 131
90 63 252 86 369 52z m-3891 -49 c0 -5 -5 -3 -10 5 -5 8 -10 20 -10 25 0 6 5
3 10 -5 5 -8 10 -19 10 -25z m-35 15 c-3 -5 -14 -10 -23 -9 -14 0 -13 2 3 9
27 11 27 11 20 0z m-40 -19 c3 -5 0 -13 -6 -17 -7 -4 -9 -3 -5 4 3 5 0 13 -6
15 -9 4 -10 6 -1 6 6 1 14 -3 18 -8z m-37 -13 c-2 -3 6 -16 17 -29 11 -13 13
-18 4 -11 -9 6 -20 8 -24 4 -5 -4 -5 -1 -1 6 4 7 2 12 -6 13 -10 0 -10 2 1 6
11 5 11 7 0 15 -11 8 -11 9 -1 6 8 -2 12 -6 10 -10z m59 -10 c-3 -8 -6 -5 -6
6 -1 11 2 17 5 13 3 -3 4 -12 1 -19z m1396 -45 c4 -4 -50 -25 -120 -48 -71
-23 -174 -61 -231 -84 -56 -22 -107 -41 -112 -41 -50 0 123 107 236 146 74 25
213 42 227 27z m-1468 -55 c4 -3 2 -9 -3 -12 -5 -3 -15 1 -21 8 -10 11 -9 14
3 12 9 -1 18 -5 21 -8z m3338 -186 c115 -173 196 -386 244 -637 25 -132 25
-513 0 -645 -27 -143 -79 -360 -86 -360 -3 0 -7 -16 -9 -35 -1 -20 -9 -46 -17
-58 -13 -21 -15 -26 -15 -46 0 -5 -7 -12 -16 -15 -14 -5 -15 -4 -5 8 9 11 8
15 -4 19 -9 4 -12 13 -8 22 4 13 8 14 14 4 4 -8 11 -10 15 -6 4 4 2 13 -4 19
-15 15 -16 42 -2 33 6 -4 8 -10 6 -14 -3 -4 0 -8 7 -8 7 0 13 8 13 18 0 10 -3
16 -7 13 -10 -6 -22 33 -14 46 3 5 3 10 -2 10 -4 0 -17 -27 -27 -61 -11 -33
-24 -63 -30 -66 -5 -4 -7 1 -3 11 4 10 3 15 -4 11 -5 -4 -7 -15 -4 -25 7 -21
-7 -51 -39 -90 -25 -30 -49 -33 -54 -6 -3 11 0 16 7 12 6 -4 11 -2 11 3 0 13
-10 14 -30 1 -8 -5 -10 -10 -5 -10 6 0 1 -7 -9 -15 -11 -8 -17 -15 -13 -15 11
0 -120 -157 -172 -207 -24 -23 -48 -40 -53 -37 -5 3 -8 2 -7 -3 3 -20 -2 -27
-11 -13 -8 13 -10 13 -10 -1 0 -20 -38 -65 -46 -56 -4 4 -1 13 6 22 7 8 8 15
2 15 -16 0 -34 -28 -27 -42 4 -7 0 -5 -9 6 -8 10 -22 16 -30 13 -9 -4 -18 -2
-21 4 -4 5 -3 8 2 7 4 -1 18 3 31 10 17 10 22 10 22 1 0 -7 2 -10 4 -8 2 2 4
7 3 10 -1 3 5 14 13 24 14 18 14 18 -12 1 -20 -13 -27 -14 -31 -4 -4 8 -6 7
-6 -4 -1 -13 -10 -18 -33 -19 -18 0 -27 -3 -20 -6 20 -8 14 -18 -13 -20 -53
-5 -55 -6 -49 -27 6 -19 5 -20 -7 -4 -13 17 -19 14 -76 -30 -34 -26 -92 -67
-128 -92 -36 -25 -80 -57 -98 -73 -17 -15 -37 -27 -43 -27 -7 0 -14 -4 -16 -9
-1 -5 -10 -11 -18 -13 -8 -2 -18 -7 -22 -13 -4 -6 -8 -2 -8 8 0 9 4 17 10 17
5 0 40 29 77 65 37 36 83 79 101 96 23 23 30 35 22 44 -5 6 -7 14 -5 17 5 4
-21 4 -47 -1 -4 0 -27 -18 -51 -38 -24 -21 -59 -50 -78 -66 -19 -15 -73 -66
-121 -114 -48 -48 -91 -83 -95 -79 -5 4 -1 13 7 19 8 7 16 18 18 26 5 23 39
61 47 53 5 -4 5 -1 1 6 -8 14 28 65 39 54 3 -4 5 -2 3 5 -9 31 151 197 292
302 41 31 84 64 95 74 11 10 49 38 85 63 194 133 271 195 395 320 104 105 130
134 119 134 -3 0 2 12 11 28 l18 27 -21 -19 c-12 -11 -22 -25 -22 -32 0 -7 -4
-14 -10 -16 -5 -1 -40 -33 -77 -69 -78 -76 -189 -162 -353 -274 -63 -43 -142
-97 -175 -120 -129 -88 -420 -336 -409 -348 3 -2 -1 -7 -9 -10 -11 -4 -11 1
-3 28 6 19 14 33 19 32 5 -1 13 8 18 21 5 13 5 22 -1 22 -6 0 -10 -6 -10 -12
-1 -14 -50 -54 -50 -41 0 5 50 61 111 126 118 125 231 216 481 387 186 127
293 212 376 299 145 153 221 291 268 486 8 33 17 71 21 85 4 14 7 95 7 180 -1
119 -5 178 -22 255 -29 137 -83 314 -131 424 -22 50 -36 89 -31 86 5 -3 29
-36 53 -73z m-1333 19 c-8 -5 -51 -19 -95 -31 -225 -62 -520 -180 -679 -271
-345 -196 -601 -511 -700 -859 -59 -209 -72 -516 -29 -688 4 -19 3 -23 -7 -17
-10 6 -12 4 -7 -8 4 -11 1 -17 -9 -17 -9 0 -12 -5 -8 -12 4 -7 3 -8 -5 -4 -9
6 -9 11 1 24 11 13 11 14 -2 10 -8 -3 -23 1 -32 10 -12 10 -18 11 -18 4 0 -7
5 -12 10 -12 6 0 10 -5 10 -12 0 -6 -3 -8 -7 -5 -3 4 -11 3 -17 -3 -8 -6 -12
-1 -14 18 -1 15 -6 41 -11 57 -21 66 -32 281 -21 411 16 206 59 363 146 537
107 214 200 331 387 488 230 194 545 326 853 359 60 6 141 15 179 19 39 5 75
9 80 9 6 1 3 -2 -5 -7z m1822 -68 c62 -24 104 -58 143 -116 35 -53 65 -141 52
-153 -4 -4 -22 6 -40 23 -17 18 -75 54 -127 81 -62 31 -94 54 -92 63 2 8 0 11
-4 6 -11 -10 -44 22 -38 38 3 7 -11 23 -32 36 -33 20 -35 23 -18 30 34 13 112
9 156 -8z m-564 -78 c53 -152 80 -436 53 -558 -5 -23 -15 -69 -21 -102 -19
-99 -75 -245 -93 -245 -6 0 -8 -3 -4 -6 8 -8 -72 -129 -86 -129 -7 -1 -11 -7
-9 -14 1 -7 -1 -10 -6 -7 -5 3 -40 -27 -78 -65 -83 -85 -196 -175 -330 -263
-151 -100 -193 -130 -188 -138 3 -4 -1 -5 -8 -3 -14 6 -187 -120 -195 -142 -3
-7 -10 -13 -17 -13 -14 0 -92 -78 -88 -88 1 -4 -4 -7 -10 -7 -7 -1 -12 -7 -10
-14 1 -7 -2 -10 -7 -7 -8 6 -66 -54 -127 -130 -60 -76 -114 -163 -160 -258
-26 -53 -51 -96 -56 -96 -12 0 -10 6 13 58 71 157 106 219 179 315 146 191
297 318 685 573 161 107 293 213 364 294 31 35 59 59 67 56 7 -3 16 -1 19 5 4
5 1 8 -7 7 -19 -4 -12 16 27 75 53 81 102 229 111 339 3 35 7 75 9 90 6 46
-13 41 -20 -4 -18 -114 -75 -255 -146 -359 -99 -147 -310 -314 -621 -494 -190
-109 -374 -258 -515 -417 -42 -47 -164 -239 -192 -302 -31 -68 -74 -191 -85
-243 -9 -39 -29 -56 -22 -19 3 15 -3 33 -15 47 -21 24 -29 22 -32 -9 0 -11 -5
-19 -9 -16 -4 3 -4 12 -1 22 6 15 5 16 -13 2 -18 -14 -18 -14 -5 3 9 12 10 17
2 17 -7 0 -10 4 -7 8 2 4 1 14 -5 22 -7 12 -9 11 -10 -5 -1 -11 -1 -23 -1 -26
1 -3 -9 -5 -21 -5 -20 1 -22 -4 -25 -61 -2 -35 -7 -63 -13 -63 -6 0 -5 -9 2
-22 11 -21 11 -22 -6 -8 -36 30 -1 454 45 540 5 10 11 30 12 44 1 15 6 26 10
26 4 0 8 9 8 20 0 11 -5 20 -11 20 -5 0 -7 -5 -3 -12 4 -7 3 -8 -4 -4 -9 5 -9
13 -2 27 12 21 4 43 -11 34 -14 -9 -11 -27 4 -19 6 4 2 -3 -10 -15 -38 -37
-96 -258 -109 -422 -6 -68 -9 -79 -19 -65 -11 15 -13 15 -19 1 -3 -9 -2 -13 4
-10 6 3 10 1 10 -5 0 -7 -6 -10 -12 -7 -7 2 -12 11 -12 20 1 8 -4 13 -11 11
-43 -17 -20 245 37 421 28 86 111 274 126 285 4 3 20 25 36 50 149 231 395
421 768 591 189 86 288 138 388 204 266 174 427 407 462 665 13 97 14 97 46 5z
m-2604 -48 c-54 -56 -125 -136 -156 -178 -60 -78 -198 -303 -198 -320 0 -6 -4
-7 -10 -4 -45 28 64 262 184 398 74 83 225 196 275 206 2 1 -40 -45 -95 -102z
m3193 -274 c55 -42 150 -175 198 -276 44 -92 92 -244 81 -254 -3 -4 -6 1 -6
11 0 13 -4 15 -18 7 -15 -8 -21 0 -46 62 -41 101 -139 287 -202 383 -70 104
-71 116 -7 67z m-171 -343 c71 -184 102 -320 109 -468 2 -50 7 -97 10 -102 3
-6 2 -10 -3 -10 -5 0 -9 -7 -9 -15 0 -8 4 -15 9 -15 4 0 8 -8 8 -17 -1 -17 -1
-17 -11 0 -6 9 -14 15 -18 13 -11 -7 -10 27 2 42 5 6 6 12 1 12 -20 0 -34 -18
-36 -43 -2 -21 -5 -24 -17 -14 -12 10 -14 9 -8 -5 4 -13 2 -15 -11 -11 -15 6
-16 5 -2 -13 14 -18 14 -18 -2 -5 -10 7 -15 17 -12 22 3 5 1 9 -4 9 -15 0 -22
-40 -11 -69 8 -23 8 -24 -4 -9 -8 10 -16 16 -18 13 -3 -2 -3 12 -1 33 3 20 10
40 16 44 8 6 8 8 -1 8 -9 0 -9 8 -2 29 21 60 1 531 -28 650 -11 48 6 16 43
-79z m243 -445 c67 -201 96 -457 70 -616 -7 -46 -12 -88 -11 -92 1 -4 -5 -18
-14 -30 -16 -22 -16 -22 -12 11 5 36 -4 49 -19 29 -5 -6 -22 -55 -37 -107 -64
-222 -172 -431 -305 -590 -221 -265 -522 -461 -861 -560 -52 -16 -109 -34
-126 -40 -18 -6 -56 -10 -85 -8 l-54 3 60 17 c425 124 676 255 898 467 234
224 392 520 458 861 30 153 37 474 14 629 -9 62 -19 121 -22 130 -4 14 -3 14
6 1 6 -8 24 -55 40 -105z m-859 -9 c0 -2 -8 -10 -17 -17 -16 -13 -17 -12 -4 4
13 16 21 21 21 13z m1279 -150 c56 -30 66 -100 21 -147 -26 -28 -32 -30 -47
-18 -15 12 -16 12 -8 -1 8 -13 7 -13 -9 -1 -15 13 -19 13 -27 0 -7 -11 -9 -11
-9 4 0 10 -4 16 -9 12 -5 -3 -12 -1 -16 5 -4 6 -11 8 -16 5 -14 -9 -31 45 -24
75 3 15 16 36 28 47 39 36 73 41 116 19z m-636 -86 c-3 -12 -8 -19 -11 -16 -5
6 5 36 12 36 2 0 2 -9 -1 -20z m-918 0 c-3 -5 -12 -10 -18 -10 -7 0 -6 4 3 10
19 12 23 12 15 0z m876 -27 c13 -16 12 -17 -3 -4 -17 13 -22 21 -14 21 2 0 10
-8 17 -17z m590 -442 c-17 -94 -30 -141 -40 -141 -21 0 -20 41 6 158 26 121
28 124 37 87 6 -25 5 -61 -3 -104z m-850 102 c13 -16 12 -17 -3 -4 -17 13 -22
21 -14 21 2 0 10 -8 17 -17z m-115 -59 c1 -30 -5 -46 -28 -77 -11 -15 -13 -12
-16 29 -3 43 -1 46 18 41 21 -5 28 7 10 18 -14 9 -12 27 3 22 6 -2 12 -17 13
-33z m1448 1 c-4 -8 -11 -12 -16 -9 -6 4 -5 10 3 15 19 12 19 11 13 -6z m-791
-40 c-3 -9 -8 -14 -10 -11 -3 3 -2 9 2 15 9 16 15 13 8 -4z m-710 -42 c-9 -23
-20 -14 -15 13 3 17 7 22 12 13 5 -7 6 -18 3 -26z m1532 -21 c-3 -3 -11 0 -18
7 -9 10 -8 11 6 5 10 -3 15 -9 12 -12z m-1525 -6 c0 -2 -9 -6 -20 -9 -11 -3
-18 -1 -14 4 5 9 34 13 34 5z m1532 -41 c-8 -16 -9 -16 -15 -1 -4 10 -3 15 3
11 6 -3 10 -1 10 6 0 7 3 10 6 6 3 -3 2 -13 -4 -22z m-19 -40 c9 -18 9 -19 -6
-6 -10 7 -17 23 -16 35 0 14 2 16 6 6 3 -8 10 -24 16 -35z m44 13 c-3 -8 -6
-5 -6 6 -1 11 2 17 5 13 3 -3 4 -12 1 -19z m-107 -22 c0 -3 -4 -8 -10 -11 -5
-3 -10 -1 -10 4 0 6 5 11 10 11 6 0 10 -2 10 -4z m-1873 -108 c-3 -8 -6 -5 -6
6 -1 11 2 17 5 13 3 -3 4 -12 1 -19z m-3042 -9 c-4 -5 -12 -9 -18 -8 -9 0 -8
2 1 6 6 2 9 10 6 15 -4 7 -2 8 5 4 6 -4 9 -12 6 -17z m3083 10 c-10 -6 -18
-16 -18 -24 0 -8 -4 -17 -10 -20 -7 -4 -7 2 -1 18 6 14 8 27 6 29 -2 2 6 5 18
5 19 2 20 1 5 -8z m46 3 c3 -5 -1 -9 -9 -9 -8 0 -12 4 -9 9 3 4 7 8 9 8 2 0 6
-4 9 -8z m-4 -32 c-8 -5 -19 -10 -25 -10 -5 0 -3 5 5 10 8 5 20 10 25 10 6 0
3 -5 -5 -10z m-135 -17 c-2 -10 -4 -19 -4 -21 -1 -2 -6 0 -11 3 -8 5 -7 11 1
21 15 18 18 18 14 -3z m2055 7 c0 -5 -5 -10 -11 -10 -5 0 -7 5 -4 10 3 6 8 10
11 10 2 0 4 -4 4 -10z m-2261 -17 c-6 -7 -15 -10 -20 -7 -13 8 -3 21 15 21 12
0 13 -4 5 -14z m244 -13 c3 -11 2 -18 -3 -15 -4 3 -10 14 -13 25 -3 11 -2 18
3 15 4 -3 10 -14 13 -25z m-2926 -2 c-3 -8 -6 -5 -6 6 -1 11 2 17 5 13 3 -3 4
-12 1 -19z m-64 6 c-7 -3 -9 -12 -6 -20 3 -7 10 -11 17 -7 6 3 7 2 3 -2 -16
-18 -33 -13 -31 9 3 28 2 26 17 25 9 0 9 -2 0 -5z m1333 -32 c0 -10 -5 -19
-11 -19 -6 0 -12 9 -12 19 -1 10 4 18 10 18 7 0 13 -8 13 -18z m1639 9 c3 -5
2 -12 -3 -15 -5 -3 -9 1 -9 9 0 17 3 19 12 6z m-621 -16 c-4 -8 -11 -15 -16
-15 -6 0 -5 6 2 15 7 8 14 15 16 15 2 0 1 -7 -2 -15z m-1764 -111 c39 -78 64
-123 87 -153 6 -9 39 -52 71 -96 53 -70 168 -194 216 -233 14 -12 15 -15 2
-28 -9 -8 -12 -22 -9 -31 4 -11 3 -14 -6 -9 -7 5 -10 13 -8 20 3 7 -4 13 -14
13 -10 1 -19 -3 -19 -8 0 -6 5 -7 12 -3 7 4 8 3 4 -5 -6 -9 -11 -9 -22 0 -8 6
-14 8 -14 5 0 -4 -21 10 -47 31 -26 21 -56 45 -66 53 -10 8 -40 42 -67 75 -81
102 -142 243 -155 360 -4 33 -9 68 -11 79 -5 29 3 16 46 -70z m2330 70 c0 -8
-19 -13 -24 -6 -3 5 1 9 9 9 8 0 15 -2 15 -3z m-2800 -29 c0 -8 -2 -15 -4 -15
-2 0 -6 7 -10 15 -3 8 -1 15 4 15 6 0 10 -7 10 -15z m1517 -10 c0 -8 -4 -15
-9 -15 -10 0 -11 14 -1 23 9 10 10 9 10 -8z m129 -8 c14 17 14 16 4 -5 -13
-27 -31 -20 -29 11 2 21 2 21 6 -1 4 -23 5 -23 19 -5z m2640 -100 c-33 -147
-110 -282 -218 -383 -79 -74 -109 -95 -129 -89 -15 5 -18 3 -12 -12 3 -10 3
-15 -1 -12 -4 4 -9 16 -11 29 -2 12 -9 28 -15 35 -8 9 12 36 81 106 99 102
208 250 273 369 33 60 42 70 44 52 2 -13 -4 -56 -12 -95z m-3174 81 c-9 -9
-15 -9 -24 1 -11 10 -10 11 5 6 10 -5 17 -2 17 6 0 7 3 9 7 6 4 -4 1 -13 -5
-19z m626 -3 c-3 -3 -9 2 -12 12 -6 14 -5 15 5 6 7 -7 10 -15 7 -18z m-225 -8
c3 -8 -1 -14 -8 -14 -7 0 -11 6 -8 14 3 7 6 13 8 13 2 0 5 -6 8 -13z"/>
<path d="M3189 3588 c-7 -13 -17 -28 -23 -34 -6 -6 -27 -31 -48 -55 -20 -24
-44 -53 -55 -65 -32 -35 -196 -164 -245 -192 -26 -14 -44 -31 -41 -36 4 -5 -1
-7 -10 -3 -16 6 -16 4 0 -21 9 -15 13 -24 8 -20 -4 4 -15 2 -24 -4 -13 -10
-14 -10 -3 2 17 20 15 35 -3 20 -13 -11 -15 -10 -10 6 3 10 -4 -2 -16 -28 -12
-27 -26 -48 -30 -48 -5 0 -2 11 7 25 15 23 15 25 1 19 -9 -3 -15 -11 -14 -17
1 -7 -6 -11 -15 -11 -10 1 -15 -5 -13 -15 2 -10 -5 -23 -16 -29 -10 -7 -19 -8
-19 -3 0 13 -28 7 -43 -9 -7 -8 -8 -10 -1 -7 7 4 15 -4 19 -20 3 -15 9 -22 13
-16 4 6 17 13 30 17 12 4 22 12 22 17 0 6 5 7 12 3 7 -5 8 -3 2 7 -16 27 -13
45 4 22 16 -21 19 -22 46 -8 88 46 106 59 94 68 -9 6 -7 7 5 3 36 -12 288 198
271 226 -4 6 -3 8 3 5 10 -6 24 12 79 98 14 22 15 27 3 20 -8 -5 -6 -2 6 9 13
12 20 32 21 57 1 45 -1 47 -17 17z m8 -26 c0 -10 -6 -19 -13 -19 -9 0 -9 5 -1
19 7 10 13 18 14 18 1 0 1 -8 0 -18z m-56 -93 c-5 -13 -10 -19 -10 -12 -1 15
10 45 15 40 3 -2 0 -15 -5 -28z m-381 -353 c0 -2 -7 -7 -16 -10 -8 -3 -12 -2
-9 4 6 10 25 14 25 6z m-122 -61 c1 -1 -6 -5 -17 -8 -13 -3 -21 1 -24 14 -4
16 -2 17 16 7 12 -6 23 -12 25 -13z"/>
<path d="M2555 3030 c-3 -5 -1 -10 4 -10 6 0 11 5 11 10 0 6 -2 10 -4 10 -3 0
-8 -4 -11 -10z"/>
<path d="M1452 2148 c-7 -7 -12 -21 -12 -32 0 -17 3 -16 15 8 17 32 15 42 -3
24z"/>
<path d="M3716 2035 c-3 -8 -1 -15 4 -15 6 0 10 7 10 15 0 8 -2 15 -4 15 -2 0
-6 -7 -10 -15z"/>
<path d="M3560 1889 c0 -5 -4 -8 -9 -4 -5 3 -12 1 -15 -4 -4 -5 2 -8 11 -7 15
3 33 26 19 26 -3 0 -6 -5 -6 -11z"/>
<path d="M3586 1883 c-6 -14 -5 -15 5 -6 7 7 10 15 7 18 -3 3 -9 -2 -12 -12z"/>
<path d="M3584 1848 l-19 -23 23 19 c12 11 22 21 22 23 0 8 -8 2 -26 -19z"/>
<path d="M3490 1835 c-6 -8 -9 -18 -6 -23 8 -13 -18 -34 -29 -24 -5 4 -5 1 -1
-6 6 -11 12 -10 27 4 10 9 16 21 13 26 -3 5 0 15 6 23 7 8 10 15 7 15 -2 0
-10 -7 -17 -15z"/>
<path d="M3433 1805 c0 -8 4 -12 9 -9 5 3 6 10 3 15 -9 13 -12 11 -12 -6z"/>
<path d="M3305 2753 c-38 -42 -104 -103 -145 -136 -41 -32 -81 -66 -88 -75 -7
-10 -16 -16 -20 -15 -4 0 -18 -6 -32 -14 -16 -9 -18 -12 -6 -8 19 6 19 5 3
-13 -9 -10 -14 -22 -10 -27 5 -4 1 -6 -8 -3 -9 4 -16 1 -16 -7 0 -9 6 -11 16
-6 9 5 23 6 31 4 9 -3 7 1 -5 11 l-20 17 20 -3 c11 -1 26 1 33 5 6 5 12 5 12
1 0 -4 9 1 20 11 11 10 17 22 14 26 -3 5 1 6 9 4 16 -7 131 105 191 185 38 51
81 121 74 120 -2 -1 -34 -35 -73 -77z m-232 -236 c7 3 3 -3 -7 -15 -11 -12
-22 -19 -25 -16 -3 4 -1 9 6 11 7 2 11 10 9 16 -1 7 -1 9 1 4 3 -4 10 -4 16 0z"/>
<path d="M3373 2555 c-3 -9 -3 -18 -1 -21 3 -3 8 4 11 16 6 23 -1 27 -10 5z"/>
<path d="M1815 1349 c-11 -16 -1 -19 13 -3 7 8 8 14 3 14 -5 0 -13 -5 -16 -11z"/>
<path d="M1887 1353 c-10 -10 -8 -33 2 -33 6 0 9 9 8 20 -1 23 -1 22 -10 13z"/>
<path d="M1955 1331 c-3 -5 -1 -12 5 -16 5 -3 10 1 10 9 0 18 -6 21 -15 7z"/>
<path d="M3967 2383 c-7 -12 16 -39 32 -38 16 0 25 35 9 35 -6 0 -8 -7 -5 -14
4 -10 1 -13 -8 -9 -8 3 -13 9 -10 13 3 5 1 11 -4 14 -5 4 -12 3 -14 -1z"/>
<path d="M3970 2321 c0 -7 -6 -11 -14 -8 -10 4 -13 1 -9 -9 6 -17 23 -19 23
-1 0 8 4 7 10 -3 5 -8 10 -10 10 -5 0 6 -5 17 -10 25 -7 12 -10 12 -10 1z"/>
<path d="M3514 1744 c-2 -29 2 -30 15 -5 8 14 7 20 -2 24 -7 3 -13 -5 -13 -19z"/>
<path d="M4114 772 c3 -5 0 -12 -6 -14 -8 -3 -3 -10 12 -18 22 -12 24 -11 13
2 -7 8 -10 17 -7 20 3 3 0 9 -7 14 -7 4 -10 3 -5 -4z"/>
<path d="M1280 4890 c0 -5 5 -10 11 -10 5 0 7 5 4 10 -3 6 -8 10 -11 10 -2 0
-4 -4 -4 -10z"/>
<path d="M1256 4881 c-3 -5 1 -11 9 -14 9 -4 12 -1 8 9 -6 16 -10 17 -17 5z"/>
<path d="M1160 4790 c-9 -6 -10 -10 -3 -10 6 0 15 5 18 10 8 12 4 12 -15 0z"/>
<path d="M1074 4713 c4 -7 9 -23 11 -34 3 -12 7 -24 10 -28 4 -3 4 7 1 23 -3
16 -11 34 -17 40 -9 8 -10 8 -5 -1z"/>
<path d="M997 4613 c-4 -3 -7 -11 -7 -17 0 -6 5 -5 12 2 6 6 9 14 7 17 -3 3
-9 2 -12 -2z"/>
<path d="M970 4591 c0 -8 -6 -11 -16 -7 -8 3 -13 2 -11 -2 4 -7 -29 -43 -38
-41 -16 2 -21 -9 -14 -31 l7 -25 1 28 c1 16 5 26 11 22 6 -4 8 -11 5 -16 -4
-5 3 -9 14 -9 12 0 21 6 21 14 0 8 9 21 21 30 17 11 19 18 10 33 -6 11 -11 13
-11 4z m-8 -31 c-12 -12 -22 -25 -22 -31 0 -6 -5 -7 -11 -3 -8 4 -7 9 2 15 8
5 10 9 4 9 -5 0 1 7 15 15 35 20 37 18 12 -5z"/>
<path d="M858 4513 c7 -3 16 -2 19 1 4 3 -2 6 -13 5 -11 0 -14 -3 -6 -6z"/>
<path d="M871 4464 c0 -11 3 -14 6 -6 3 7 2 16 -1 19 -3 4 -6 -2 -5 -13z"/>
<path d="M703 4408 c-1 -11 1 -16 5 -12 4 5 11 12 15 15 5 3 2 9 -5 12 -9 3
-14 -3 -15 -15z"/>
<path d="M699 4373 c23 -17 60 -29 46 -15 -4 4 -10 7 -13 7 -4 1 -18 6 -32 13
l-25 13 24 -18z"/>
<path d="M728 4383 c7 -3 16 -2 19 1 4 3 -2 6 -13 5 -11 0 -14 -3 -6 -6z"/>
<path d="M805 4350 c3 -5 8 -10 11 -10 2 0 4 5 4 10 0 6 -5 10 -11 10 -5 0 -7
-4 -4 -10z"/>
<path d="M599 4323 c0 -10 -3 -29 -5 -43 -4 -23 -4 -23 9 -6 8 10 12 29 9 42
-5 28 -12 31 -13 7z"/>
<path d="M544 4271 c16 -18 36 -20 36 -5 0 3 -4 2 -10 -1 -5 -3 -10 -2 -10 3
0 6 -8 13 -17 16 -15 6 -15 5 1 -13z"/>
<path d="M4953 1869 c-2 -23 3 -25 10 -4 4 8 3 16 -1 19 -4 3 -9 -4 -9 -15z"/>
<path d="M4946 1832 c-2 -4 0 -14 6 -22 8 -12 9 -12 5 2 -3 9 -1 19 6 22 9 3
9 5 0 5 -6 1 -14 -3 -17 -7z"/>
<path d="M4997 1749 c-11 -15 -16 -17 -20 -7 -2 7 -8 9 -13 4 -5 -5 -4 -11 4
-13 6 -3 9 -10 5 -16 -4 -7 1 -6 11 2 17 15 41 51 32 51 -3 0 -11 -9 -19 -21z"/>
<path d="M5033 1748 c-2 -18 0 -20 7 -8 12 18 13 30 2 30 -4 0 -9 -10 -9 -22z"/>
<path d="M5060 1762 c0 -4 10 -9 22 -9 18 -2 20 0 8 7 -18 12 -30 13 -30 2z"/>
<path d="M5064 1728 c-4 -5 -3 -12 0 -15 3 -3 1 -14 -5 -24 -8 -15 -6 -17 7
-12 12 4 15 3 10 -5 -5 -8 1 -12 18 -12 14 0 26 4 26 10 0 5 -7 7 -15 4 -11
-5 -13 -2 -8 12 4 11 3 15 -4 11 -12 -7 -12 11 -1 29 4 6 0 11 -8 11 -8 0 -17
-4 -20 -9z"/>
<path d="M27 1563 c10 -3 9 -10 -2 -27 -13 -19 -13 -23 -1 -23 8 0 12 6 9 14
-3 8 -2 13 3 12 21 -4 26 2 14 16 -7 8 -18 15 -24 14 -7 0 -7 -2 1 -6z"/>
<path d="M126 1562 c-3 -5 1 -9 9 -9 8 0 12 4 9 9 -3 4 -7 8 -9 8 -2 0 -6 -4
-9 -8z"/>
<path d="M86 1531 c-4 -5 3 -7 14 -4 23 6 26 13 6 13 -8 0 -17 -4 -20 -9z"/>
<path d="M168 1447 c-3 -19 -2 -25 4 -19 6 6 8 18 6 28 -3 14 -5 12 -10 -9z"/>
</g>
</svg>
