<svg aria-hidden="true" style="position: absolute; width: 0; height: 0; overflow: hidden;" version="1.1" xmlns="http://www.w3.org/2000/svg" xmlns:xlink="http://www.w3.org/1999/xlink">
<defs>
<symbol id="icon-arrow-through-heart-fill" viewBox="0 0 32 32">
<path d="M5.708 31.708c-0.181 0.181-0.431 0.294-0.708 0.294-0.552 0-1-0.448-1-1 0-0.001 0-0.001 0-0.002v0-3h-3c-0.001 0-0.001 0-0.002 0-0.552 0-1-0.448-1-1 0-0.277 0.112-0.527 0.294-0.708l3-3c0.181-0.18 0.43-0.292 0.706-0.292 0.001 0 0.001 0 0.002 0h3.586l6.206-6.208c0.181-0.181 0.431-0.293 0.708-0.293 0.553 0 1.001 0.448 1.001 1.001 0 0.276-0.112 0.527-0.293 0.708v0l-6.208 6.206v3.586c0 0.001 0 0.001 0 0.002 0 0.276-0.112 0.525-0.292 0.706l-3 3zM32 7c0 0.001 0 0.001 0 0.002 0 0.552-0.448 1-1 1-0.277 0-0.527-0.112-0.708-0.294l-2.292-2.294-2.012 2.012c0.472 0.496 0.88 1.062 1.2 1.69 1.124 2.192 1.17 5.034-0.426 8.184-1.586 3.126-4.79 6.576-10.21 10.16l-0.552 0.364-0.552-0.364c-1.475-0.973-2.729-1.899-3.934-2.882l0.086 0.068 5.020-5.026c0.543-0.543 0.879-1.293 0.879-2.122 0-1.657-1.344-3.001-3.001-3.001-0.829 0-1.579 0.336-2.122 0.879l-5.062 5.064c-0.764-0.917-1.454-1.946-2.032-3.043l-0.046-0.097c-1.596-3.152-1.55-5.994-0.426-8.186 2.042-3.984 7.55-5.496 11.19-2.648 2.5-1.96 5.888-1.856 8.424-0.304l2.16-2.162-2.29-2.292c-0.181-0.181-0.294-0.431-0.294-0.708 0-0.552 0.448-1 1-1h6c0.552 0 1 0.448 1 1v0 6z"></path>
</symbol>
<symbol id="icon-arrow-up-circle-fill" viewBox="0 0 32 32">
<path d="M32 16c0-8.837-7.163-16-16-16s-16 7.163-16 16v0c0 8.837 7.163 16 16 16s16-7.163 16-16v0zM17 23c0 0.552-0.448 1-1 1s-1-0.448-1-1v0-11.586l-4.292 4.294c-0.181 0.181-0.431 0.293-0.708 0.293-0.553 0-1.001-0.448-1.001-1.001 0-0.277 0.112-0.527 0.293-0.708v0l6-6c0.181-0.181 0.431-0.294 0.708-0.294s0.527 0.112 0.708 0.294l6 6c0.181 0.181 0.293 0.431 0.293 0.708 0 0.553-0.448 1.001-1.001 1.001-0.276 0-0.527-0.112-0.708-0.293v0l-4.292-4.294v11.586z"></path>
</symbol>
<symbol id="icon-black-cat" viewBox="0 0 29 32">
<path d="M3.398 11.327s-1.133-1.133 0-3.398c0 0 1.699 0.566 1.699 2.265h3.398c0.566-1.699 2.265-2.265 2.265-2.265 1.133 2.265-0.566 3.398-0.566 3.398l1.133 0.566 0.566-1.133 1.133-1.699v1.133s0.566-2.265 2.832-2.265v0.566s0.566-1.133 2.265-1.133l-0.566 0.566 2.265-0.566-0.566 0.566h1.699l-0.566 0.566 1.699 0.566h-0.566l1.133 2.265h-0.566l0.566 1.699h-0.566l0.566 1.133s1.133-0.566 0.566-1.699v-1.699l0.566 0.566-0.566-1.133v-1.133l0.566 0.566v-2.265l0.566 0.566v-2.832l0.566 0.566 0.566-2.265v0.566l1.133-2.265v0.566l1.699-2.265 0.566 1.699s0.566 1.699-0.566 2.832l0.566-0.566-0.566 2.266 0.566-0.566s0 1.699-1.133 2.832l1.133-0.566s0 1.699-1.133 2.832l0.566-0.566-1.699 2.832 1.133-0.566-1.699 2.265h0.566l-2.265 2.265h0.566l-1.133 0.566s0 1.699-2.832 3.965v1.133s1.133 0.566 0 1.699l-3.398 4.531-0.566 2.832h-2.265l1.133-1.133 0.566-2.832 1.699-2.265v-1.133h-0.566l-0.566-1.699-0.566 0.566 0.566-1.699-0.566 0.566v-1.133h-0.566l0.566-1.133c0-0.566 1.133-2.265 0-2.832s-2.265 1.133-2.832 2.832l-1.133 4.531v7.363h-2.265l0.566-1.699 0.566-2.265c0-1.699 0-2.832-1.133-3.965s-1.699-3.965-1.699-6.23l-1.699 0.566-2.265-1.133h-2.265l1.699-0.566h-2.832l1.699-0.566-2.832-0.566h2.832l-0.566-1.699 1.133-2.265z"></path>
</symbol>
<symbol id="icon-chevron-double-left" viewBox="0 0 32 32">
<path d="M16.708 3.292c0.181 0.181 0.294 0.431 0.294 0.708s-0.112 0.527-0.294 0.708l-11.294 11.292 11.294 11.292c0.181 0.181 0.293 0.431 0.293 0.708 0 0.553-0.448 1.001-1.001 1.001-0.277 0-0.527-0.112-0.708-0.293v0l-12-12c-0.181-0.181-0.294-0.431-0.294-0.708s0.112-0.527 0.294-0.708l12-12c0.181-0.181 0.431-0.294 0.708-0.294s0.527 0.112 0.708 0.294l0 0z"></path>
<path d="M24.708 3.292c0.181 0.181 0.294 0.431 0.294 0.708s-0.112 0.527-0.294 0.708l-11.294 11.292 11.294 11.292c0.181 0.181 0.293 0.431 0.293 0.708 0 0.553-0.448 1.001-1.001 1.001-0.276 0-0.527-0.112-0.708-0.293v0l-12-12c-0.181-0.181-0.294-0.431-0.294-0.708s0.112-0.527 0.294-0.708l12-12c0.181-0.181 0.431-0.294 0.708-0.294s0.527 0.112 0.708 0.294l0 0z"></path>
</symbol>
<symbol id="icon-chevron-double-right" viewBox="0 0 32 32">
<path d="M7.292 3.292c0.181-0.181 0.431-0.294 0.708-0.294s0.527 0.112 0.708 0.294l12 12c0.181 0.181 0.294 0.431 0.294 0.708s-0.112 0.527-0.294 0.708l-12 12c-0.181 0.181-0.431 0.293-0.708 0.293-0.553 0-1.001-0.448-1.001-1.001 0-0.276 0.112-0.527 0.293-0.708v0l11.294-11.292-11.294-11.292c-0.181-0.181-0.294-0.431-0.294-0.708s0.112-0.527 0.294-0.708l0-0z"></path>
<path d="M15.292 3.292c0.181-0.181 0.431-0.294 0.708-0.294s0.527 0.112 0.708 0.294l12 12c0.181 0.181 0.294 0.431 0.294 0.708s-0.112 0.527-0.294 0.708l-12 12c-0.181 0.181-0.431 0.293-0.708 0.293-0.553 0-1.001-0.448-1.001-1.001 0-0.276 0.112-0.527 0.293-0.708v0l11.294-11.292-11.294-11.292c-0.181-0.181-0.294-0.431-0.294-0.708s0.112-0.527 0.294-0.708l0-0z"></path>
</symbol>
<symbol id="icon-circle" viewBox="0 0 32 32">
<path d="M16 30c-7.732 0-14-6.268-14-14s6.268-14 14-14v0c7.732 0 14 6.268 14 14s-6.268 14-14 14v0zM16 32c8.837 0 16-7.163 16-16s-7.163-16-16-16v0c-8.837 0-16 7.163-16 16s7.163 16 16 16v0z"></path>
</symbol>
<symbol id="icon-cloud-upload-fill" viewBox="0 0 32 32">
<path d="M16 0c-2.755 0.009-5.271 1.024-7.202 2.696l0.014-0.012c-1.532 1.32-2.642 3.040-2.928 4.766-3.352 0.74-5.884 3.66-5.884 7.186 0 4.096 3.416 7.364 7.562 7.364h7.438v-10.586l-4.292 4.294c-0.181 0.181-0.431 0.293-0.708 0.293-0.553 0-1.001-0.448-1.001-1.001 0-0.277 0.112-0.527 0.293-0.708v0l6-6c0.181-0.181 0.431-0.294 0.708-0.294s0.527 0.112 0.708 0.294l6 6c0.181 0.181 0.293 0.431 0.293 0.708 0 0.553-0.448 1.001-1.001 1.001-0.276 0-0.527-0.112-0.708-0.293v0l-4.292-4.294v10.586h8.376c3.628 0 6.624-2.86 6.624-6.454 0-3.272-2.484-5.938-5.668-6.388-0.486-5.16-4.952-9.158-10.332-9.158zM15 29v-7h2v7c0 0.552-0.448 1-1 1s-1-0.448-1-1v0z"></path>
</symbol>
<symbol id="icon-crop" viewBox="0 0 32 32">
<path d="M7 1c0.552 0 1 0.448 1 1v0 26h26c0.552 0 1 0.448 1 1s-0.448 1-1 1v0h-4v4c0 0.552-0.448 1-1 1s-1-0.448-1-1v0-4h-21c-0.552 0-1-0.448-1-1v0-21h-4c-0.552 0-1-0.448-1-1s0.448-1 1-1v0h4v-4c0-0.552 0.448-1 1-1v0zM12 7c0-0.552 0.448-1 1-1v0h16c0.552 0 1 0.448 1 1v0 16c0 0.552-0.448 1-1 1s-1-0.448-1-1v0-15h-15c-0.552 0-1-0.448-1-1v0z"></path>
</symbol>
<symbol id="icon-cursor" viewBox="0 0 32 32">
<path d="M28.164 4.364c0.181 0.181 0.293 0.431 0.293 0.707 0 0.147-0.032 0.287-0.089 0.413l0.003-0.006-11.314 25.456c-0.16 0.353-0.509 0.594-0.914 0.594-0.411 0-0.764-0.248-0.918-0.602l-0.002-0.006-4.082-9.532-9.534-4.084c-0.359-0.157-0.605-0.509-0.605-0.919 0-0.405 0.241-0.754 0.587-0.911l0.006-0.003 25.456-11.314c0.119-0.054 0.259-0.086 0.406-0.086 0.276 0 0.525 0.112 0.706 0.292l-0-0zM4.5 16.368l7.794 3.34c0.236 0.104 0.421 0.289 0.521 0.52l0.002 0.006 3.34 7.794 9.328-20.988-20.986 9.328z"></path>
</symbol>
<symbol id="icon-dizzy" viewBox="0 0 32 32">
<path d="M16 0c-8.838 0-16 7.162-16 16s7.162 16 16 16 16-7.163 16-16-7.163-16-16-16zM9.944 13.412l-1.738 1.794c-0.923 0.93-2.361-0.469-1.407-1.406l1.789-1.8-1.787-1.794c-0.939-0.938 0.477-2.344 1.408-1.406l1.794 1.789 1.794-1.789c0.939-0.938 2.354 0.477 1.415 1.406l-1.797 1.794 1.794 1.797c0.946 0.945-0.492 2.336-1.415 1.406l-1.848-1.791zM16 26c-2.21 0-4.003-1.797-4.003-4s1.79-4 4.003-4 4.003 1.797 4.003 4-1.79 4-4.003 4zM23.794 15.206l-1.794-1.789-1.794 1.789c-0.923 0.93-2.361-0.469-1.415-1.406l1.796-1.8-1.794-1.797c-0.939-0.938 0.484-2.344 1.415-1.406l1.794 1.789 1.794-1.789c0.939-0.938 2.346 0.477 1.407 1.406l-1.791 1.797 1.794 1.797c0.95 0.947-0.494 2.334-1.413 1.409z"></path>
</symbol>
<symbol id="icon-eraser-fill" viewBox="0 0 32 32">
<path d="M16.172 4.414c0.724-0.724 1.724-1.171 2.828-1.171s2.104 0.448 2.828 1.171l7.758 7.758c0.724 0.724 1.171 1.724 1.171 2.828s-0.448 2.104-1.171 2.828l-11 11c-0.724 0.724-1.724 1.172-2.828 1.172h-5.518c-1.104-0-2.104-0.448-2.828-1.172l-5-5c-0.724-0.724-1.171-1.724-1.171-2.828s0.448-2.104 1.171-2.828l13.758-13.758zM17.492 27.094l-10.586-10.586-3.078 3.078c-0.362 0.362-0.586 0.862-0.586 1.414s0.224 1.052 0.586 1.414l5 5c0.362 0.362 0.862 0.586 1.414 0.586h5.518c0.552-0 1.052-0.224 1.414-0.586l0.32-0.32z"></path>
</symbol>
<symbol id="icon-eye-fill" viewBox="0 0 32 32">
<path d="M21 16c0 2.761-2.239 5-5 5s-5-2.239-5-5v0c0-2.761 2.239-5 5-5s5 2.239 5 5v0z"></path>
<path d="M0 16s6-11 16-11 16 11 16 11-6 11-16 11-16-11-16-11zM16 23c3.866 0 7-3.134 7-7s-3.134-7-7-7v0c-3.866 0-7 3.134-7 7s3.134 7 7 7v0z"></path>
</symbol>
<symbol id="icon-eye-slash-fill" viewBox="0 0 32 32">
<path d="M21.58 25.824l-3.228-3.23c-0.701 0.259-1.512 0.409-2.357 0.409-3.866 0-7-3.134-7-7 0-0.845 0.15-1.655 0.424-2.405l-0.016 0.049-4.12-4.12c-3.408 3.030-5.284 6.474-5.284 6.474s6 11 16 11c2.020-0.007 3.937-0.439 5.669-1.212l-0.089 0.036zM10.42 6.176c1.643-0.737 3.56-1.169 5.577-1.176h0.003c10 0 16 11 16 11s-1.878 3.442-5.282 6.476l-4.124-4.124c0.259-0.701 0.409-1.512 0.409-2.357 0-3.866-3.134-7-7-7-0.845 0-1.655 0.15-2.405 0.424l0.049-0.016-3.226-3.226z"></path>
<path d="M11.050 15.292c-0.032 0.213-0.050 0.459-0.050 0.708 0 2.761 2.239 5 5 5 0.25 0 0.496-0.018 0.736-0.054l-0.027 0.003-5.66-5.658zM20.95 16.708l-5.658-5.66c0.213-0.032 0.459-0.050 0.708-0.050 2.761 0 5 2.239 5 5 0 0.25-0.018 0.496-0.054 0.736l0.003-0.027zM27.292 28.708l-24-24 1.416-1.416 24 24-1.416 1.416z"></path>
</symbol>
<symbol id="icon-falling" viewBox="0 0 32 32">
<path d="M14 7v2.75l-3.328 1.633c-1.594 0.781-2.766 2.211-3.188 3.859l-1.32 4.446c-0.112 0.469-0.166 0.994-0.166 1.406 0 1.305 0.426 2.583 1.236 3.641l1.909 2.484c0.387 0.512 0.981 0.781 1.581 0.781 1.069 0 2.001-0.854 2.001-2.001 0-0.425-0.135-0.854-0.414-1.217l-1.899-2.477c-0.28-0.37-0.424-0.813-0.424-1.221 0-0.126 0.014-0.249 0.041-0.365l0.266-0.914 5.469 2.344c0.503 0.22 1.034 0.32 1.559 0.32 1.381 0 2.72-0.718 3.456-1.969l3.133-5.313 5.484 1.719c0.198 0.062 0.399 0.091 0.597 0.091 0.853 0 1.644-0.547 1.911-1.404 0.063-0.193 0.094-0.399 0.094-0.593 0-0.851-0.547-1.641-1.406-1.906l-6.313-1.984c-0.267-0.076-0.539-0.112-0.808-0.112-1.036 0-2.032 0.541-2.59 1.472l-2.258 3.821-4.899-1.953 2.594-1.266c1.017-0.502 1.679-1.565 1.679-2.64v-3.431c0-1.101-0.899-2-2-2-1.106 0-2 0.9-2 2zM6 14c0-1.656-1.344-3-3-3s-3 1.344-3 3 1.344 3 3 3 3-1.344 3-3zM19.844 23.887l2.156 0.931v4.181c0 1.101 0.899 2 2 2s2-0.899 2-2v-4.844c0-1.203-0.719-2.281-1.82-2.75l-1.281-0.555-0.391 0.672c-0.639 1.077-1.583 1.877-2.664 2.364z"></path>
</symbol>
<symbol id="icon-fist" viewBox="0 0 28 32">
<path d="M23.569 4.253c-0.794-1.087-2.087-1.753-3.494-1.753h-0.846c-0.22 0-0.44 0.017-0.658 0.051-0.771-0.593-1.721-0.926-2.727-0.926h-0.844c-0.249 0-0.494 0.023-0.734 0.068-0.722-1.023-1.916-1.693-3.266-1.693h-1c-2.206 0-4 1.791-4 4v3.107l-2.060 1.849c-1.234 1.044-1.94 2.581-1.94 4.225v4.936c0 2.006 1.069 3.853 2.791 4.82l2.209 1.244v6.319c0 0.831 0.669 1.5 1.444 1.5s1.556-0.669 1.556-1.5v-8.119c-0.082-0.041-0.173-0.058-0.254-0.102l-3.486-1.959c-0.777-0.433-1.26-1.283-1.26-2.201v-4.938c0-0.769 0.33-1.486 0.906-1.962l1.094-0.982v2.763c0 0.55 0.45 1 1 1s1-0.447 1-1v-9c0-0.552 0.449-1 1-1h1c0.55 0 1 0.448 1 1v1c0 0.599 0.496 1.002 1.009 1.002 0.402 0 0.769-0.251 0.921-0.636 0.026-0.064 0.339-0.742 1.070-0.742h0.846c1.311 0 1.12 1.224 2.142 1.224 0.511 0 0.619-0.349 1.242-0.349h0.846c1.596 0 1.142 1.764 2.416 1.764 0.010 0 0.020-0 0.029-0l0.941-0.014c0.794 0 1.538 0.731 1.538 1.625v8.125c0 2.259-1.221 4.207-3 5.231v8.269c0 0.832 0.669 1.501 1.444 1.501s1.556-0.669 1.556-1.5v-6.756c1.881-1.694 3-4.144 3-6.744v-8.125c0-2.494-1.95-4.535-4.431-4.622z"></path>
</symbol>
<symbol id="icon-flag-fill" viewBox="0 0 32 32">
<path d="M29.556 0.17c0.269 0.182 0.444 0.485 0.444 0.83v15c-0 0.418-0.257 0.776-0.621 0.926l-0.007 0.002-0.006 0.002-0.012 0.006-0.046 0.018c-0.094 0.046-0.357 0.148-0.621 0.245l-0.173 0.055c-0.528 0.19-1.262 0.446-2.094 0.7-1.632 0.504-3.758 1.046-5.42 1.046-1.694 0-3.096-0.56-4.316-1.050l-0.056-0.020c-1.268-0.51-2.348-0.93-3.628-0.93-1.4 0-3.276 0.46-4.874 0.954-0.993 0.305-1.698 0.553-2.395 0.821l0.269-0.091v12.316c0 0.552-0.448 1-1 1s-1-0.448-1-1v0-30c0-0.552 0.448-1 1-1s1 0.448 1 1v0 0.564c0.452-0.158 0.992-0.34 1.58-0.52 1.632-0.5 3.76-1.044 5.42-1.044 1.68 0 3.048 0.554 4.242 1.038l0.086 0.036c1.244 0.502 2.328 0.926 3.672 0.926 1.4 0 3.276-0.46 4.874-0.954 1.187-0.368 2.082-0.691 2.961-1.046l-0.263 0.094 0.038-0.014 0.008-0.004h0.002z"></path>
</symbol>
<symbol id="icon-fonts" viewBox="0 0 32 32">
<path d="M24.516 6h-17.020l-0.166 4.92h0.958c0.52-3.088 1.516-3.566 5.386-3.69l0.848-0.026v15.654c0 1.326-0.288 1.64-2.6 1.846v1.040h8.164v-1.040c-2.324-0.206-2.612-0.52-2.612-1.846v-15.654l0.862 0.026c3.868 0.124 4.868 0.602 5.386 3.692h0.958l-0.164-4.922z"></path>
</symbol>
<symbol id="icon-hourglass-split" viewBox="0 0 32 32">
<path d="M5 30c-0.552 0-1-0.448-1-1s0.448-1 1-1v0h2v-2c0-0.001 0-0.001 0-0.002 0-3.558 2.064-6.633 5.061-8.094l0.053-0.023c0.58-0.278 0.886-0.754 0.886-1.18v-1.4c0-0.426-0.308-0.902-0.886-1.18-3.050-1.484-5.114-4.56-5.114-8.118 0-0.001 0-0.002 0-0.002v0-2h-2c-0.552 0-1-0.448-1-1s0.448-1 1-1v0h22c0.552 0 1 0.448 1 1s-0.448 1-1 1v0h-2v2c0 0.001 0 0.001 0 0.002 0 3.558-2.064 6.633-5.061 8.094l-0.053 0.023c-0.58 0.278-0.886 0.754-0.886 1.18v1.4c0 0.426 0.308 0.902 0.886 1.18 3.050 1.484 5.114 4.56 5.114 8.118 0 0.001 0 0.002 0 0.002v-0 2h2c0.552 0 1 0.448 1 1s-0.448 1-1 1v0h-22zM9 4v2c0 1.074 0.24 2.090 0.674 3h12.652c0.432-0.91 0.674-1.926 0.674-3v-2h-14zM15 16.7c0 1.402-0.956 2.472-2.022 2.984-2.372 1.154-3.978 3.547-3.978 6.314 0 0.001 0 0.001 0 0.002v-0s1.732-2.598 6-2.96v-6.34zM17 16.7v6.34c4.268 0.362 6 2.96 6 2.96s0-0.001 0-0.002c0-2.767-1.606-5.16-3.937-6.296l-0.041-0.018c-1.066-0.512-2.022-1.58-2.022-2.982z"></path>
</symbol>
<symbol id="icon-images" viewBox="0 0 32 32">
<path d="M9.004 18c1.657 0 3-1.343 3-3s-1.343-3-3-3v0c-1.657 0-3 1.343-3 3s1.343 3 3 3v0z"></path>
<path d="M28.004 26c0 2.209-1.791 4-4 4v0h-20c-2.209 0-4-1.791-4-4v0-16c0-2.208 1.789-3.998 3.996-4h0c0-2.209 1.791-4 4-4v0h20c2.209 0 4 1.791 4 4v0 16c0 2.208-1.789 3.998-3.996 4h-0zM28 4h-20c-1.105 0-2 0.895-2 2v0h18.004c2.209 0 4 1.791 4 4v0 14c1.103-0.002 1.996-0.897 1.996-2 0 0 0 0 0 0v0-16c0-1.105-0.895-2-2-2v0zM4.004 8c-1.105 0-2 0.895-2 2v0 16l5.292-4.708c0.181-0.18 0.43-0.292 0.706-0.292 0.207 0 0.398 0.063 0.558 0.17l-0.004-0.002 5.32 3.546 7.42-7.42c0.181-0.181 0.431-0.293 0.707-0.293 0.163 0 0.316 0.039 0.452 0.108l-0.006-0.003 3.554 3.894v-11c0-1.105-0.895-2-2-2v0h-20z"></path>
</symbol>
<symbol id="icon-incognito" viewBox="0 0 32 32">
<path d="M9.472 3.936l-1.784 6.538-0.028 0.116c-3.434 0.546-5.66 1.422-5.66 2.41 0 1.656 6.268 3 14 3s14-1.344 14-3c0-0.988-2.226-1.864-5.66-2.41-0.011-0.053-0.021-0.092-0.031-0.131l0.003 0.015-1.784-6.54c-0.292-1.066-1.396-1.698-2.478-1.468-1.228 0.26-2.81 0.534-4.050 0.534s-2.822-0.272-4.050-0.534c-1.082-0.23-2.186 0.4-2.478 1.47zM9.502 11.67c0.026-0.254 0.239-0.451 0.498-0.451 0.018 0 0.035 0.001 0.053 0.003l-0.002-0c1.8 0.184 3.82 0.286 5.95 0.286 0.041 0 0.090 0 0.138 0 2.047 0 4.069-0.104 6.062-0.307l-0.25 0.021c0.015-0.002 0.032-0.002 0.050-0.002 0.276 0 0.5 0.224 0.5 0.501 0 0.259-0.196 0.472-0.448 0.498l-0.002 0c-1.836 0.186-3.888 0.29-6.050 0.29s-4.214-0.104-6.050-0.29c-0.254-0.026-0.451-0.239-0.451-0.498 0-0.018 0.001-0.035 0.003-0.053l-0 0.002zM7 20h4c0.552 0 1 0.448 1 1v0 2c0 1.657-1.343 3-3 3s-3-1.343-3-3v0-2c0-0.552 0.448-1 1-1v0zM4 21c0-0.35 0.060-0.688 0.17-1h-0.17c-0.552 0-1-0.448-1-1s0.448-1 1-1v0h7c1.524 0 2.783 1.137 2.974 2.609l0.002 0.015c0.606-0.19 1.302-0.299 2.024-0.299s1.418 0.109 2.074 0.312l-0.050-0.013c0.193-1.487 1.452-2.624 2.976-2.624h7c0.552 0 1 0.448 1 1s-0.448 1-1 1v0h-0.17c0.11 0.312 0.17 0.65 0.17 1v2c0 2.761-2.239 5-5 5s-5-2.239-5-5v0-0.28l-0.42-0.14c-0.471-0.162-1.015-0.256-1.58-0.256s-1.108 0.094-1.615 0.267l0.035-0.010-0.42 0.14v0.28c0 2.761-2.239 5-5 5s-5-2.239-5-5v0-2zM21 20h4c0.552 0 1 0.448 1 1v0 2c0 1.657-1.343 3-3 3s-3-1.343-3-3v0-2c0-0.552 0.448-1 1-1v0z"></path>
</symbol>
<symbol id="icon-magic" viewBox="0 0 32 32">
<path d="M19 5.344c0 0.552 0.448 1 1 1s1-0.448 1-1v0-3.658c0-0.552-0.448-1-1-1s-1 0.448-1 1v0 3.658zM28 5.414c0.174-0.18 0.281-0.425 0.281-0.695 0-0.552-0.448-1-1-1-0.27 0-0.515 0.107-0.695 0.281l-2.586 2.586c-0.188 0.182-0.305 0.437-0.305 0.719 0 0.552 0.448 1 1 1 0.282 0 0.537-0.117 0.719-0.305l2.586-2.586zM14.586 8c0.182 0.188 0.437 0.305 0.719 0.305 0.552 0 1-0.448 1-1 0-0.282-0.117-0.537-0.305-0.719l-2.586-2.586c-0.18-0.174-0.425-0.281-0.695-0.281-0.552 0-1 0.448-1 1 0 0.27 0.107 0.515 0.281 0.695l2.586 2.586zM13.344 13c0.552 0 1-0.448 1-1s-0.448-1-1-1v0h-3.658c-0.552 0-1 0.448-1 1s0.448 1 1 1v0h3.658zM30.314 13c0.552 0 1-0.448 1-1s-0.448-1-1-1v0h-3.658c-0.552 0-1 0.448-1 1s0.448 1 1 1v0h3.658zM26.586 20c0.182 0.188 0.437 0.305 0.719 0.305 0.552 0 1-0.448 1-1 0-0.282-0.117-0.537-0.305-0.719l-2.586-2.586c-0.182-0.188-0.437-0.305-0.719-0.305-0.552 0-1 0.448-1 1 0 0.282 0.117 0.537 0.305 0.719l2.586 2.586zM19 22.314c0 0.552 0.448 1 1 1s1-0.448 1-1v0-3.658c0-0.552-0.448-1-1-1s-1 0.448-1 1v0 3.658zM22.708 12.12c0.18-0.181 0.292-0.43 0.292-0.706s-0.111-0.525-0.292-0.706l-1.416-1.416c-0.181-0.181-0.431-0.293-0.707-0.293s-0.526 0.112-0.707 0.293v0l-2.586 2.588c-0.181 0.181-0.293 0.431-0.293 0.707s0.112 0.526 0.293 0.707l1.416 1.416c0.181 0.181 0.431 0.293 0.707 0.293s0.526-0.112 0.707-0.293l2.586-2.586zM16.708 18.12c0.18-0.181 0.292-0.43 0.292-0.706s-0.111-0.525-0.292-0.706l-1.416-1.416c-0.181-0.181-0.431-0.293-0.707-0.293s-0.526 0.112-0.707 0.293l-12.586 12.588c-0.181 0.181-0.293 0.431-0.293 0.707s0.112 0.526 0.293 0.707l1.416 1.416c0.181 0.181 0.431 0.293 0.707 0.293s0.526-0.112 0.707-0.293l12.586-12.59z"></path>
</symbol>
<symbol id="icon-moon-stars-fill" viewBox="0 0 32 32">
<path d="M12 0.556c0.218 0.263 0.35 0.604 0.35 0.976 0 0.271-0.070 0.526-0.194 0.748l0.004-0.008c-1.105 1.992-1.756 4.367-1.756 6.895 0 0.009 0 0.017 0 0.026v-0.001c0 8.042 6.556 14.554 14.636 14.554 1.054 0 2.080-0.11 3.066-0.32 0.1-0.023 0.215-0.036 0.333-0.036 0.53 0 0.998 0.262 1.284 0.663l0.003 0.005c0.171 0.237 0.273 0.533 0.273 0.853 0 0.356-0.127 0.682-0.337 0.936l0.002-0.002c-3.086 3.769-7.739 6.156-12.95 6.156-0.009 0-0.019 0-0.028-0h0.001c-9.22 0-16.688-7.428-16.688-16.58 0-6.888 4.228-12.796 10.248-15.3 0.173-0.075 0.374-0.119 0.585-0.119 0.469 0 0.889 0.215 1.164 0.552l0.002 0.003z"></path>
<path d="M21.588 6.296c0.059-0.174 0.221-0.298 0.412-0.298s0.353 0.123 0.411 0.295l0.001 0.003 0.774 2.324c0.346 1.036 1.158 1.848 2.194 2.194l2.324 0.774c0.174 0.059 0.298 0.221 0.298 0.412s-0.123 0.353-0.295 0.411l-0.003 0.001-2.324 0.774c-1.038 0.353-1.841 1.156-2.187 2.17l-0.007 0.024-0.774 2.324c-0.059 0.174-0.221 0.298-0.412 0.298s-0.353-0.123-0.411-0.295l-0.001-0.003-0.774-2.324c-0.353-1.038-1.156-1.841-2.17-2.187l-0.024-0.007-2.324-0.774c-0.174-0.059-0.298-0.221-0.298-0.412s0.123-0.353 0.295-0.411l0.003-0.001 2.324-0.774c1.038-0.353 1.841-1.156 2.187-2.17l0.007-0.024 0.774-2.324zM27.726 0.198c0.041-0.114 0.148-0.195 0.274-0.195s0.233 0.081 0.273 0.193l0.001 0.002 0.516 1.548c0.23 0.692 0.772 1.234 1.464 1.464l1.548 0.516c0.114 0.041 0.195 0.148 0.195 0.274s-0.081 0.233-0.193 0.273l-0.002 0.001-1.548 0.516c-0.693 0.235-1.229 0.771-1.459 1.448l-0.005 0.016-0.516 1.548c-0.041 0.114-0.148 0.195-0.274 0.195s-0.233-0.081-0.273-0.193l-0.001-0.002-0.516-1.548c-0.235-0.693-0.771-1.229-1.448-1.459l-0.016-0.005-1.548-0.516c-0.114-0.041-0.195-0.148-0.195-0.274s0.081-0.233 0.193-0.273l0.002-0.001 1.548-0.516c0.692-0.23 1.234-0.772 1.464-1.464l0.516-1.546z"></path>
</symbol>
<symbol id="icon-pause-fill" viewBox="0 0 32 32">
<path d="M11 7c1.657 0 3 1.343 3 3v0 12c0 1.657-1.343 3-3 3s-3-1.343-3-3v0-12c0-1.657 1.343-3 3-3v0zM21 7c1.657 0 3 1.343 3 3v0 12c0 1.657-1.343 3-3 3s-3-1.343-3-3v0-12c0-1.657 1.343-3 3-3v0z"></path>
</symbol>
<symbol id="icon-people-fill" viewBox="0 0 32 32">
<path d="M14 28s-2 0-2-2 2-8 10-8 10 6 10 8-2 2-2 2h-16zM22 16c3.314 0 6-2.686 6-6s-2.686-6-6-6v0c-3.314 0-6 2.686-6 6s2.686 6 6 6v0z"></path>
<path d="M10.432 28c-0.273-0.562-0.433-1.222-0.433-1.92 0-0.028 0-0.056 0.001-0.084l-0 0.004c0-2.71 1.36-5.5 3.872-7.44-1.114-0.356-2.396-0.561-3.725-0.561-0.052 0-0.103 0-0.155 0.001l0.008-0c-8 0-10 6-10 8s2 2 2 2h8.432z"></path>
<path d="M9 16c2.761 0 5-2.239 5-5s-2.239-5-5-5v0c-2.761 0-5 2.239-5 5s2.239 5 5 5v0z"></path>
</symbol>
<symbol id="icon-person-circle" viewBox="0 0 32 32">
<path d="M22 12c0 3.314-2.686 6-6 6s-6-2.686-6-6v0c0-3.314 2.686-6 6-6s6 2.686 6 6v0z"></path>
<path d="M0 16c0-8.837 7.163-16 16-16s16 7.163 16 16v0c0 8.837-7.163 16-16 16s-16-7.163-16-16v0zM16 2c-7.732 0-13.999 6.268-13.999 14 0 3.319 1.155 6.368 3.084 8.767l-0.021-0.027c1.42-2.288 4.546-4.74 10.936-4.74s9.514 2.45 10.936 4.74c1.909-2.372 3.063-5.421 3.063-8.74 0-7.732-6.268-14-13.999-14h-0z"></path>
</symbol>
<symbol id="icon-pip" viewBox="0 0 32 32">
<path d="M0 7c0-1.657 1.343-3 3-3v0h26c1.657 0 3 1.343 3 3v0 18c0 1.657-1.343 3-3 3v0h-26c-1.657 0-3-1.343-3-3v0-18zM3 6c-0.552 0-1 0.448-1 1v0 18c0 0.552 0.448 1 1 1v0h26c0.552 0 1-0.448 1-1v0-18c0-0.552-0.448-1-1-1v0h-26z"></path>
<path d="M16 17c0-0.552 0.448-1 1-1v0h10c0.552 0 1 0.448 1 1v0 6c0 0.552-0.448 1-1 1v0h-10c-0.552 0-1-0.448-1-1v0-6z"></path>
</symbol>
<symbol id="icon-play-fill" viewBox="0 0 32 32">
<path d="M23.192 17.394l-12.726 7.384c-1.080 0.626-2.466-0.132-2.466-1.394v-14.768c0-1.26 1.384-2.020 2.466-1.392l12.726 7.384c0.487 0.282 0.809 0.8 0.809 1.393s-0.322 1.111-0.801 1.389l-0.008 0.004z"></path>
</symbol>
<symbol id="icon-plus-circle" viewBox="0 0 32 32">
<path d="M16 30c-7.732 0-14-6.268-14-14s6.268-14 14-14v0c7.732 0 14 6.268 14 14s-6.268 14-14 14v0zM16 32c8.837 0 16-7.163 16-16s-7.163-16-16-16v0c-8.837 0-16 7.163-16 16s7.163 16 16 16v0z"></path>
<path d="M16 8c0.552 0 1 0.448 1 1v0 6h6c0.552 0 1 0.448 1 1s-0.448 1-1 1v0h-6v6c0 0.552-0.448 1-1 1s-1-0.448-1-1v0-6h-6c-0.552 0-1-0.448-1-1s0.448-1 1-1v0h6v-6c0-0.552 0.448-1 1-1v0z"></path>
</symbol>
<symbol id="icon-question-diamond" viewBox="0 0 32 32">
<path d="M13.9 0.87c1.16-1.16 3.040-1.16 4.2 0l13.030 13.032c1.16 1.16 1.16 3.038 0 4.196l-13.030 13.032c-1.16 1.16-3.038 1.16-4.196 0l-13.034-13.030c-0.538-0.537-0.87-1.278-0.87-2.098s0.333-1.561 0.87-2.098l13.030-13.034zM16.7 2.27c-0.179-0.179-0.427-0.29-0.7-0.29s-0.521 0.111-0.7 0.29l-13.032 13.030c-0.179 0.179-0.29 0.427-0.29 0.7s0.111 0.521 0.29 0.7l13.032 13.032c0.179 0.179 0.427 0.29 0.7 0.29s0.521-0.111 0.7-0.29l13.032-13.032c0.179-0.179 0.29-0.427 0.29-0.7s-0.111-0.521-0.29-0.7l-13.032-13.032z"></path>
<path d="M10.51 11.572c-0 0.006-0 0.013-0 0.020 0 0.262 0.212 0.474 0.474 0.474 0.003 0 0.006-0 0.009-0h1.65c0.276 0 0.496-0.226 0.532-0.5 0.18-1.312 1.080-2.268 2.684-2.268 1.372 0 2.628 0.686 2.628 2.336 0 1.27-0.748 1.854-1.93 2.742-1.346 0.978-2.412 2.12-2.336 3.974l0.006 0.434c0.005 0.273 0.227 0.492 0.5 0.492 0 0 0 0 0 0h1.622c0.276 0 0.5-0.224 0.5-0.5v0-0.21c0-1.436 0.546-1.854 2.020-2.972 1.218-0.926 2.488-1.954 2.488-4.112 0-3.022-2.552-4.482-5.346-4.482-2.534 0-5.31 1.18-5.5 4.572zM13.624 23.098c0 1.066 0.85 1.854 2.020 1.854 1.218 0 2.056-0.788 2.056-1.854 0-1.104-0.84-1.88-2.058-1.88-1.168 0-2.018 0.776-2.018 1.88z"></path>
</symbol>
<symbol id="icon-rulers" viewBox="0 0 32 32">
<path d="M2 0c-1.105 0-2 0.895-2 2v0 28c0 1.105 0.895 2 2 2v0h10v-2h-8v-2h8v-2h-4v-2h4v-2h-8v-2h8v-2h-4v-2h4v-2h-8v-2h8v-8h2v8h2v-4h2v4h2v-8h2v8h2v-4h2v4h2v-8h2v8h2v-10c0-1.105-0.895-2-2-2v0h-28z"></path>
</symbol>
<symbol id="icon-skull" viewBox="0 0 32 32">
<path d="M16 2c-7.2 0-13 5.8-13 12.8v5.7c0 1.9 1.5 3.4 3.4 3.4 0.6 0 1.6 0.3 1.6 1.1v3c0 0.4 0.3 0.8 0.7 1 2.4 0.8 4.9 1.2 7.3 1.2s4.9-0.4 7.3-1.2c0.4-0.1 0.7-0.5 0.7-1v-3c0-0.8 1-1.1 1.6-1.1 1.9 0 3.4-1.5 3.4-3.4v-5.7c0-7-5.8-12.8-13-12.8zM12.3 21.7l-1.2 0.2c-0.2 0-0.4 0.1-0.7 0.1-0.8 0-1.5-0.3-2.2-0.8-0.7-0.6-1.2-1.6-1.2-2.6v-0.2c0-1.9 1.5-3.4 3.4-3.4h1.2c1.1 0 2 0.5 2.7 1.3 0.6 0.8 0.9 1.9 0.6 2.9-0.3 1.3-1.4 2.2-2.6 2.5zM17.4 23.9c-0.1 0.1-0.2 0.1-0.4 0.1-0.4 0-0.7-0.2-0.9-0.6l-0.1-0.2-0.1 0.2c-0.2 0.5-0.8 0.7-1.3 0.4-0.5-0.2-0.7-0.8-0.4-1.3l1-2c0.3-0.7 1.4-0.7 1.8 0l1 2c0.1 0.5-0.1 1.1-0.6 1.4zM25 18.6c0 1-0.5 2-1.2 2.6-0.6 0.5-1.4 0.8-2.2 0.8-0.2 0-0.4 0-0.7-0.1l-1.2-0.2c-1.3-0.3-2.3-1.2-2.6-2.5-0.3-1 0-2.1 0.6-2.9s1.6-1.3 2.7-1.3h1.2c1.9 0 3.4 1.5 3.4 3.4v0.2z"></path>
</symbol>
<symbol id="icon-slash-lg" viewBox="0 0 32 32">
<path d="M27.708 4.292c0.181 0.181 0.294 0.431 0.294 0.708s-0.112 0.527-0.294 0.708l-22 22c-0.181 0.181-0.431 0.293-0.708 0.293-0.553 0-1.001-0.448-1.001-1.001 0-0.276 0.112-0.527 0.293-0.708v0l22-22c0.181-0.181 0.431-0.294 0.708-0.294s0.527 0.112 0.708 0.294l0 0z"></path>
</symbol>
<symbol id="icon-sliders" viewBox="0 0 32 32">
<path d="M23 4c-1.657 0-3 1.343-3 3s1.343 3 3 3v0c1.657 0 3-1.343 3-3s-1.343-3-3-3v0zM18.1 6c0.48-2.301 2.491-4.005 4.9-4.005s4.421 1.704 4.894 3.973l0.006 0.032h4.1v2h-4.1c-0.48 2.301-2.491 4.005-4.9 4.005s-4.421-1.704-4.894-3.973l-0.006-0.032h-18.1v-2h18.1zM9 14c-1.657 0-3 1.343-3 3s1.343 3 3 3v0c1.657 0 3-1.343 3-3s-1.343-3-3-3v0zM4.1 16c0.479-2.301 2.491-4.005 4.9-4.005s4.421 1.704 4.894 3.973l0.006 0.032h18.1v2h-18.1c-0.479 2.301-2.491 4.005-4.9 4.005s-4.42-1.704-4.894-3.973l-0.006-0.032h-4.1v-2h4.1zM23 24c-1.657 0-3 1.343-3 3s1.343 3 3 3v0c1.657 0 3-1.343 3-3s-1.343-3-3-3v0zM18.1 26c0.48-2.301 2.491-4.005 4.9-4.005s4.421 1.704 4.894 3.973l0.006 0.032h4.1v2h-4.1c-0.48 2.301-2.491 4.005-4.9 4.005s-4.421-1.704-4.894-3.973l-0.006-0.032h-18.1v-2h18.1z"></path>
</symbol>
<symbol id="icon-square" viewBox="0 0 32 32">
<path d="M28 2c1.105 0 2 0.895 2 2v0 24c0 1.105-0.895 2-2 2v0h-24c-1.105 0-2-0.895-2-2v0-24c0-1.105 0.895-2 2-2v0h24zM4 0c-2.209 0-4 1.791-4 4v0 24c0 2.209 1.791 4 4 4v0h24c2.209 0 4-1.791 4-4v0-24c0-2.209-1.791-4-4-4v0h-24z"></path>
</symbol>
<symbol id="icon-star" viewBox="0 0 32 32">
<path d="M5.732 29.7c-0.156 0.888 0.72 1.582 1.492 1.186l8.78-4.512 8.778 4.512c0.772 0.396 1.648-0.298 1.492-1.184l-1.66-9.46 7.044-6.712c0.66-0.628 0.32-1.776-0.564-1.9l-9.796-1.392-4.368-8.654c-0.169-0.349-0.52-0.586-0.927-0.586s-0.758 0.237-0.924 0.58l-0.003 0.006-4.368 8.656-9.796 1.392c-0.882 0.124-1.224 1.272-0.566 1.9l7.046 6.712-1.66 9.46zM15.542 24.166l-7.372 3.788 1.388-7.914c0.011-0.060 0.018-0.128 0.018-0.199 0-0.318-0.132-0.606-0.343-0.811l-0-0-5.812-5.54 8.104-1.152c0.347-0.054 0.634-0.271 0.783-0.57l0.003-0.006 3.69-7.316 3.694 7.316c0.152 0.305 0.439 0.522 0.78 0.575l0.006 0.001 8.104 1.15-5.812 5.54c-0.212 0.206-0.344 0.493-0.344 0.812 0 0.071 0.006 0.14 0.019 0.207l-0.001-0.007 1.388 7.914-7.372-3.788c-0.134-0.070-0.293-0.112-0.461-0.112s-0.327 0.041-0.467 0.114l0.006-0.003z"></path>
</symbol>
<symbol id="icon-star-half" viewBox="0 0 32 32">
<path d="M10.708 10.238l4.368-8.654c0.17-0.347 0.519-0.582 0.924-0.584h0c0.366 0 0.732 0.194 0.93 0.584l4.368 8.654 9.796 1.392c0.5 0.081 0.881 0.497 0.906 1.008l0 0.002c0.002 0.028 0.004 0.060 0.004 0.093 0 0.314-0.132 0.597-0.343 0.797l-0.001 0.001-7.046 6.712 1.66 9.46c0.156 0.886-0.72 1.58-1.492 1.184l-8.782-4.512-8.778 4.512c-0.084 0.045-0.182 0.080-0.286 0.099l-0.006 0.001c-0.684 0.12-1.336-0.508-1.2-1.284l1.66-9.46-7.044-6.712c-0.212-0.201-0.344-0.485-0.344-0.799 0-0.002 0-0.005 0-0.007v0c0-0.223 0.063-0.432 0.173-0.609l-0.003 0.005c0.158-0.262 0.424-0.445 0.735-0.489l0.005-0.001 9.796-1.392zM16 24.054c0.001 0 0.003 0 0.004 0 0.168 0 0.326 0.041 0.465 0.115l-0.005-0.003 7.372 3.788-1.388-7.914c-0.011-0.060-0.018-0.129-0.018-0.2 0-0.317 0.131-0.604 0.342-0.81l0-0 5.814-5.54-8.104-1.152c-0.347-0.054-0.634-0.271-0.783-0.57l-0.003-0.006-3.694-7.316-0.002 0.006v19.6z"></path>
</symbol>
<symbol id="icon-suit-heart-fill" viewBox="0 0 32 32">
<path d="M8 2c4.42 0 8 3.51 8 7.84 0-4.33 3.58-7.84 8-7.84s8 3.51 8 7.84c0 6.526-6.468 8.828-15.216 19.216-0.189 0.223-0.47 0.364-0.784 0.364s-0.595-0.141-0.783-0.363l-0.001-0.001c-8.748-10.388-15.216-12.69-15.216-19.216 0-4.33 3.58-7.84 8-7.84z"></path>
</symbol>
<symbol id="icon-trash" viewBox="0 0 32 32">
<path d="M11 11c0.552 0 1 0.448 1 1v0 12c0 0.552-0.448 1-1 1s-1-0.448-1-1v0-12c0-0.552 0.448-1 1-1v0zM16 11c0.552 0 1 0.448 1 1v0 12c0 0.552-0.448 1-1 1s-1-0.448-1-1v0-12c0-0.552 0.448-1 1-1v0zM22 12c0-0.552-0.448-1-1-1s-1 0.448-1 1v0 12c0 0.552 0.448 1 1 1s1-0.448 1-1v0-12z"></path>
<path d="M29 6c0 1.105-0.895 2-2 2v0h-1v18c0 2.209-1.791 4-4 4v0h-12c-2.209 0-4-1.791-4-4v0-18h-1c-1.105 0-2-0.895-2-2v0-2c0-1.105 0.895-2 2-2v0h7c0-1.105 0.895-2 2-2v0h4c1.105 0 2 0.895 2 2v0h7c1.105 0 2 0.895 2 2v0 2zM8.236 8l-0.236 0.118v17.882c0 1.105 0.895 2 2 2v0h12c1.105 0 2-0.895 2-2v0-17.882l-0.236-0.118h-15.528zM5 6h22v-2h-22v2z"></path>
</symbol>
<symbol id="icon-triangle" viewBox="0 0 32 32">
<path d="M15.876 4.032c0.036-0.020 0.079-0.032 0.125-0.032 0.001 0 0.002 0 0.003 0h-0c0 0 0.001 0 0.001 0 0.046 0 0.089 0.012 0.126 0.033l-0.001-0.001c0.046 0.028 0.082 0.066 0.107 0.112l0.001 0.002 13.714 23.334c0.072 0.12 0.070 0.248 0.004 0.366-0.026 0.049-0.063 0.089-0.107 0.119l-0.001 0.001c-0.035 0.021-0.076 0.034-0.121 0.034-0.004 0-0.008-0-0.011-0l0.001 0h-27.424c-0.003 0-0.007 0-0.011 0-0.045 0-0.086-0.013-0.122-0.035l0.001 0.001c-0.045-0.031-0.082-0.071-0.107-0.118l-0.001-0.002c-0.031-0.051-0.049-0.113-0.049-0.18 0-0.069 0.020-0.133 0.054-0.188l-0.001 0.001 13.712-23.334c0.026-0.048 0.062-0.086 0.107-0.113l0.001-0.001zM17.964 3.132c-0.397-0.683-1.126-1.135-1.96-1.135s-1.563 0.452-1.954 1.124l-0.006 0.011-13.714 23.334c-0.914 1.556 0.182 3.534 1.96 3.534h27.426c1.778 0 2.876-1.98 1.96-3.534l-13.712-23.334z"></path>
</symbol>
<symbol id="icon-zoom-in" viewBox="0 0 32 32">
<path d="M13 24c6.075 0 11-4.925 11-11s-4.925-11-11-11v0c-6.075 0-11 4.925-11 11s4.925 11 11 11v0zM26 13c0 7.18-5.82 13-13 13s-13-5.82-13-13v0c0-7.18 5.82-13 13-13s13 5.82 13 13v0z"></path>
<path d="M20.688 23.484c0.060 0.080 0.124 0.156 0.196 0.23l7.7 7.7c0.362 0.362 0.862 0.586 1.415 0.586 1.105 0 2-0.896 2-2 0-0.552-0.224-1.052-0.585-1.414l-7.7-7.7c-0.070-0.071-0.145-0.136-0.225-0.196l-0.005-0.004c-0.796 1.078-1.719 2.002-2.761 2.775l-0.035 0.025z"></path>
<path d="M13 6c0.552 0 1 0.448 1 1v0 5h5c0.552 0 1 0.448 1 1s-0.448 1-1 1v0h-5v5c0 0.552-0.448 1-1 1s-1-0.448-1-1v0-5h-5c-0.552 0-1-0.448-1-1s0.448-1 1-1v0h5v-5c0-0.552 0.448-1 1-1v0z"></path>
</symbol>
<symbol id="icon-zoom-out" viewBox="0 0 32 32">
<path d="M13 24c6.075 0 11-4.925 11-11s-4.925-11-11-11v0c-6.075 0-11 4.925-11 11s4.925 11 11 11v0zM26 13c0 7.18-5.82 13-13 13s-13-5.82-13-13v0c0-7.18 5.82-13 13-13s13 5.82 13 13v0z"></path>
<path d="M20.688 23.484c0.060 0.080 0.124 0.156 0.196 0.23l7.7 7.7c0.362 0.362 0.862 0.586 1.415 0.586 1.105 0 2-0.896 2-2 0-0.552-0.224-1.052-0.585-1.414l-7.7-7.7c-0.070-0.071-0.145-0.136-0.225-0.196l-0.005-0.004c-0.796 1.078-1.719 2.002-2.761 2.775l-0.035 0.025z"></path>
<path d="M6 13c0-0.552 0.448-1 1-1v0h12c0.552 0 1 0.448 1 1s-0.448 1-1 1v0h-12c-0.552 0-1-0.448-1-1v0z"></path>
</symbol>
</defs>
</svg>
